<svg xmlns="http://www.w3.org/2000/svg" viewBox="0 0 499.439191 130.74704" width="499.439191" height="130.74704"><path d="M45.872002 56.088638 Q45.088001 55.920639 38.648003 55.920639 Q31.928001 55.920639 31.144001 56.088638 L30.639999 56.088638 L30.639999 53.512638 L32.375999 53.512638 Q34.784 53.456638 35.344002 53.232639 Q35.792 53.12064 36.015999 52.672638 Q36.071999 52.560638 36.071999 49.64864 L36.071999 46.848637 L21.568001 46.848637 L21.568001 44.272636 L30.024 31.336637 Q38.592003 18.344639 38.704002 18.288635 Q38.816002 18.176636 39.880001 18.176636 L40.888 18.176636 L41.223999 18.512638 L41.223999 44.272636 L46.375999 44.272636 L46.375999 46.848637 L41.223999 46.848637 L41.223999 49.704639 Q41.223999 52.000637 41.251999 52.392639 Q41.279999 52.784637 41.560001 53.064636 Q42.008003 53.456638 44.751999 53.512638 L46.375999 53.512638 L46.375999 56.088638 L45.872002 56.088638 L45.872002 56.088638 Z M36.408001 44.272636 L36.408001 25.568638 L24.144001 44.216637 L30.248001 44.272636 L36.408001 44.272636 L36.408001 44.272636 Z" fill="rgba(0,0,0,1)" fill-rule="evenodd" stroke="none"/><path d="M53.375999 23.328636 Q56.512001 18.792637 61.944 18.792637 Q66.031998 18.792637 69.112 21.592636 Q70.624001 23.048637 71.688004 25.400637 Q73.760002 30.048637 73.760002 38.16864 Q73.760002 46.848637 71.352005 51.440639 Q69.783997 54.688637 66.760002 56.144638 Q64.408005 57.320637 62 57.320637 Q55.560001 57.320637 52.591999 51.440639 Q50.183998 46.848637 50.183998 38.16864 Q50.183998 32.96064 50.883999 29.572638 Q51.584 26.184637 53.375999 23.328636 L53.375999 23.328636 Z M65.975998 22.656639 Q64.352005 20.864635 62 20.864635 Q59.648003 20.864635 57.968002 22.656639 Q56.736 23.944637 56.288002 25.792637 Q55.84 27.640638 55.728001 32.176636 Q55.728001 32.512638 55.700001 34.360638 Q55.672001 36.208637 55.672001 37.440636 Q55.672001 42.816639 55.784 44.944637 Q56.007999 48.864639 56.456001 50.572639 Q56.903999 52.28064 58.136002 53.512638 Q59.648003 55.192638 62 55.192638 Q64.296005 55.192638 65.807999 53.512638 Q67.040001 52.28064 67.487999 50.572639 Q67.936005 48.864639 68.160004 44.944637 Q68.272003 42.816639 68.272003 37.440636 Q68.272003 36.208637 68.244003 34.360638 Q68.216003 32.512638 68.216003 32.176636 Q68.104004 27.640638 67.655998 25.792637 Q67.208 23.944637 65.975998 22.656639 L65.975998 22.656639 Z" fill="rgba(0,0,0,1)" fill-rule="evenodd" stroke="none"/><path d="M43.296001 110.74704 Q42.344002 110.579041 34.391998 110.579041 Q26.552 110.579041 25.6 110.74704 L24.927999 110.74704 L24.927999 108.171043 L26.384001 108.171043 Q29.632 108.171043 30.584 108.003036 Q31.032001 107.947037 31.928001 107.331039 L31.928001 78.379044 Q31.816 78.379044 31.48 78.547043 Q28.903999 79.555038 25.712 79.611038 L24.648001 79.611038 L24.648001 77.035034 L25.712 77.035034 Q30.416 76.867035 33.552002 74.907043 Q34.560001 74.347038 35.288002 73.619034 Q35.400002 73.451035 35.959999 73.451035 Q36.52 73.451035 36.912003 73.787033 L36.912003 90.531036 L36.968002 107.331039 Q37.807999 108.171043 40.608002 108.171043 L42.456001 108.171043 L43.912003 108.171043 L43.912003 110.74704 L43.296001 110.74704 L43.296001 110.74704 Z" fill="rgba(0,0,0,1)" fill-rule="evenodd" stroke="none"/><path d="M57.632 91.987038 Q54.888 90.195038 53.403999 88.235039 Q51.919998 86.27504 51.919998 83.083038 Q51.919998 80.675041 52.816002 79.051041 Q54.048 76.531036 56.428001 74.991043 Q58.807999 73.451035 61.888 73.451035 Q65.695999 73.451035 68.496002 75.439041 Q71.296005 77.42704 71.968002 80.563042 Q72.024002 80.89904 72.024002 81.907043 Q72.024002 83.139038 71.912003 83.587036 Q71.071999 87.283035 66.816002 89.971039 Q66.704002 90.027039 66.508003 90.139038 Q66.311996 90.251038 66.255997 90.363037 L66.143997 90.419037 Q69.279999 92.547043 69.391998 92.659042 Q73.592003 96.019043 73.592003 101.003036 Q73.592003 105.53904 70.260002 108.759041 Q66.928001 111.979042 61.944 111.979042 Q55.056 111.979042 51.807999 106.939041 Q50.408001 104.923042 50.408001 102.067039 Q50.408001 100.779037 50.52 100.331039 Q51.360001 96.075043 55.896 93.051041 Q56.232002 92.827042 56.903999 92.435043 Q57.576 92.043037 57.632 91.987038 L57.632 91.987038 Z M68.776001 82.019043 Q68.776001 79.611038 67.208 77.931038 Q65.639999 76.251038 63.400002 75.80304 Q63.007999 75.74704 61.552002 75.74704 Q58.584 75.74704 56.568001 77.763039 Q55.167999 79.051041 55.167999 80.84304 Q55.167999 83.251038 57.183998 84.651039 Q57.464001 84.931038 60.768002 87.003036 L64.015999 89.131042 Q64.071999 89.075043 64.744003 88.655037 Q65.416 88.235039 65.751999 87.89904 Q68.776001 85.491043 68.776001 82.019043 L68.776001 82.019043 Z M53.992001 101.95504 Q53.992001 105.259041 56.400002 107.415039 Q58.807999 109.571037 62 109.571037 Q64.296005 109.571037 66.171997 108.619041 Q68.048004 107.667038 69 106.155037 Q69.952003 104.699036 69.952003 103.075043 Q69.952003 100.667038 67.992004 98.819038 Q67.543999 98.37104 63.344002 95.627037 Q62.560001 95.123039 61.636002 94.535042 Q60.712002 93.947037 60.208 93.611038 L59.760002 93.331039 L59.088001 93.667038 Q55.560001 95.963043 54.439999 99.267036 Q53.992001 100.723038 53.992001 101.95504 L53.992001 101.95504 Z" fill="rgba(0,0,0,1)" fill-rule="evenodd" stroke="none"/><path d="M96.400002 90.987038 Q94.959999 90.74704 87.199997 90.74704 Q80.080002 90.74704 79.120003 90.987038 L78.559998 90.987038 L78.559998 87.307037 L79.760002 87.307037 Q85.519997 87.067039 87.120003 83.947037 Q87.199997 83.707039 91.360001 71.347038 Q95.520004 58.987038 99.639999 46.707039 Q103.760002 34.42704 103.839996 34.347038 Q104.080002 33.707039 105.360001 33.707039 L106.080002 33.707039 Q107.68 33.787041 108 34.26704 Q108.080002 34.347038 115.759995 57.147038 Q123.440002 79.947037 125.360001 85.627037 Q125.599998 86.10704 125.919998 86.42704 Q126.800003 87.227036 130.959991 87.307037 L133.360001 87.307037 L133.360001 90.987038 L132.639999 90.987038 Q131.440002 90.74704 122.479996 90.74704 Q112.160004 90.74704 110.959999 90.987038 L110.160004 90.987038 L110.160004 87.307037 L111.199997 87.307037 Q116.800003 87.307037 116.800003 85.867035 Q116.800003 85.707039 114.879997 79.947037 L112.959999 74.267036 L94.32 74.267036 L92.720001 78.987038 Q91.120003 83.707039 91.120003 84.187035 Q91.120003 84.587036 91.360001 84.907036 Q91.839996 85.947037 93.400002 86.627037 Q94.959999 87.307037 96.720001 87.307037 L97.119995 87.307037 L97.119995 90.987038 L96.400002 90.987038 L96.400002 90.987038 Z M109.279999 63.227036 Q106.959999 56.26704 105.199997 51.147038 L103.599998 46.42704 L99.599998 58.42704 L95.520004 70.507034 Q95.520004 70.587036 103.599998 70.587036 L111.759995 70.587036 L109.279999 63.227036 L109.279999 63.227036 Z" fill="rgba(0,0,0,1)" fill-rule="evenodd" stroke="none"/><path d="M137.759995 56.507038 Q138.080002 56.507038 143.800003 56.067039 Q149.520004 55.627037 149.679993 55.627037 L149.919998 55.627037 L149.919998 61.147038 Q151.440002 58.58704 153.279999 57.147038 Q155.119995 55.707039 158.160004 55.707039 Q160.399994 55.707039 162 56.58704 Q165.119995 58.187038 165.119995 61.147038 Q165.119995 62.907036 163.919998 64.067039 Q162.720001 65.227036 161.039993 65.227036 Q159.360001 65.227036 158.199997 64.10704 Q157.039993 62.987038 157.039993 61.227036 Q157.039993 59.867039 157.679993 58.987038 Q157.839996 58.667038 157.839996 58.58704 Q157.679993 58.42704 156 58.90704 Q154.720001 59.547039 154.080002 60.10704 Q150.880005 63.147038 150.399994 70.187042 L150.399994 73.307037 Q150.320007 76.42704 150.320007 78.667038 Q150.320007 79.707039 150.320007 80.867035 Q150.320007 82.027039 150.360001 82.907036 Q150.399994 83.787041 150.399994 84.507034 Q150.399994 85.227036 150.399994 85.707039 L150.399994 86.10704 Q150.720001 86.74704 151.360001 86.907036 Q152.160004 87.227036 155.600006 87.307037 L158.080002 87.307037 L158.080002 90.987038 L157.360001 90.987038 Q155.919998 90.74704 147.199997 90.74704 Q139.360001 90.74704 138.240005 90.987038 L137.600006 90.987038 L137.600006 87.307037 L138.880005 87.307037 L139.759995 87.307037 Q143.119995 87.307037 143.759995 86.187035 L143.759995 85.547035 Q143.759995 84.827042 143.800003 83.707039 Q143.839996 82.587036 143.839996 81.187035 Q143.839996 79.787041 143.839996 78.067039 Q143.839996 76.347038 143.839996 74.74704 Q143.839996 72.267036 143.839996 69.42704 Q143.839996 66.587036 143.839996 64.74704 L143.759995 62.907036 Q143.520004 61.387039 142.600006 60.867039 Q141.679993 60.347038 139.039993 60.187038 L137.600006 60.187038 L137.600006 58.347038 Q137.600006 56.507038 137.759995 56.507038 L137.759995 56.507038 Z" fill="rgba(0,0,0,1)" fill-rule="evenodd" stroke="none"/><path d="M189.59137 70.987038 Q189.59137 69.947037 190.71138 69.387039 L214.631378 69.387039 L214.631378 57.387039 L214.711365 45.387039 Q215.511368 44.347038 216.231369 44.347038 Q217.271378 44.347038 217.831375 45.547039 L217.831375 69.387039 L241.671371 69.387039 Q242.871368 70.027039 242.871368 70.987038 Q242.871368 71.947037 241.671371 72.587036 L217.831375 72.587036 L217.831375 96.42704 Q217.271378 97.547035 216.231369 97.547035 Q215.191376 97.547035 214.631378 96.42704 L214.631378 72.587036 L190.71138 72.587036 Q189.59137 72.027039 189.59137 70.987038 L189.59137 70.987038 Z" fill="rgba(0,0,0,1)" fill-rule="evenodd" stroke="none"/><path d="M308.071533 56.507038 Q308.551544 56.987038 308.551544 57.227039 Q308.551544 57.307037 307.111542 60.347038 Q300.631531 73.067039 296.391541 85.307037 Q295.91153 86.667038 295.751526 87.707039 Q295.111542 93.227036 293.671539 98.987038 Q291.671539 107.307037 290.071533 108.027039 Q289.591553 108.267036 289.271545 108.267036 Q287.991547 108.267036 287.991547 106.027039 Q287.991547 105.227036 288.071533 104.74704 Q288.791534 99.787041 292.311554 88.42704 L292.791534 86.907036 L292.871552 85.467041 Q292.951538 84.667038 292.951538 82.987038 Q292.951538 76.267036 291.511536 71.227036 Q290.391541 67.387039 287.631531 64.987038 Q284.871552 62.587036 280.791534 62.587036 Q276.951538 62.587036 273.711548 64.707039 Q270.471527 66.827042 269.191528 70.187042 Q269.031555 70.907036 268.871552 70.907036 Q268.711548 71.067039 267.591553 71.067039 Q265.991547 71.067039 265.991547 70.42704 Q265.991547 70.10704 266.391541 68.74704 Q268.15155 63.547039 272.071533 59.947037 Q275.991547 56.347038 280.631531 55.707039 L281.591553 55.707039 Q283.751526 55.707039 284.231537 55.787037 Q288.071533 56.667038 290.551544 60.10704 Q293.031555 63.547039 294.791534 70.587036 Q295.91153 75.387039 295.91153 77.387039 Q295.91153 77.707039 295.991547 77.707039 Q296.391541 76.827042 296.951538 75.547035 Q299.91153 67.947037 303.991547 59.787041 Q305.671539 56.667038 305.751526 56.58704 Q305.91153 56.507038 307.031555 56.507038 L308.071533 56.507038 L308.071533 56.507038 Z" fill="rgba(0,0,0,1)" fill-rule="evenodd" stroke="none"/><path d="M333.232544 70.987038 Q333.232544 69.947037 334.352539 69.387039 L358.272522 69.387039 L358.272522 57.387039 L358.352539 45.387039 Q359.152527 44.347038 359.872528 44.347038 Q360.912537 44.347038 361.472534 45.547039 L361.472534 69.387039 L385.312531 69.387039 Q386.512543 70.027039 386.512543 70.987038 Q386.512543 71.947037 385.312531 72.587036 L361.472534 72.587036 L361.472534 96.42704 Q360.912537 97.547035 359.872528 97.547035 Q358.83252 97.547035 358.272522 96.42704 L358.272522 72.587036 L334.352539 72.587036 Q333.232544 72.027039 333.232544 70.987038 L333.232544 70.987038 Z" fill="rgba(0,0,0,1)" fill-rule="evenodd" stroke="none"/><path d="M414.672729 56.507038 Q414.752716 56.507038 420.472717 56.067039 Q426.192719 55.627037 426.272705 55.627037 Q427.232727 55.627037 427.232727 56.26704 Q427.232727 56.74704 423.552704 71.707039 L419.712708 86.907036 L419.952728 86.907036 L420.112701 86.827042 Q420.352722 86.74704 420.632721 86.627037 Q420.91272 86.507034 421.15271 86.42704 Q429.15271 83.307037 435.552704 75.74704 Q441.952728 68.187042 444.352722 59.467041 Q445.3927 55.627037 448.432709 55.627037 Q449.472717 55.627037 450.312714 56.307037 Q451.15271 56.987038 451.15271 58.107037 Q451.15271 58.74704 450.752716 60.347038 Q447.552704 70.907036 438.432709 79.307037 Q429.312714 87.707039 417.232727 90.587036 Q415.232727 91.147041 414.432709 91.147041 Q414.192719 91.147041 413.552704 91.027039 Q412.91272 90.907036 412.832703 90.907036 Q412.352722 90.587036 412.352722 90.10704 Q412.352722 89.947037 415.792725 75.947037 L419.312714 61.867039 Q419.472717 60.74704 418.792725 60.467041 Q418.112701 60.187038 416.512726 60.187038 Q415.952728 60.187038 415.632721 60.187038 L413.952728 60.187038 Q413.472717 59.707039 413.432709 59.547039 Q413.392731 59.387039 413.632721 58.027039 Q413.872711 56.90704 414.192719 56.74704 Q414.432709 56.507038 414.672729 56.507038 L414.672729 56.507038 Z" fill="rgba(0,0,0,1)" fill-rule="evenodd" stroke="none"/><path d="M464.843933 103.603035 Q460.587921 103.603035 458.067932 100.80304 Q455.547913 98.003036 455.547913 93.579041 Q455.547913 91.451035 455.995911 89.379036 Q457.171936 85.01104 460.839935 81.931038 Q464.507935 78.851036 469.659912 78.291039 Q469.715912 78.235039 470.555908 78.235039 L470.723938 78.235039 Q473.075928 78.235039 474.727936 79.271034 Q476.379913 80.307037 476.883911 82.099037 Q476.939911 82.323036 476.939911 83.10704 Q476.939911 84.115036 476.827911 84.507034 Q475.651917 88.48304 470.723938 89.715034 Q467.979919 90.443039 463.21991 90.499039 Q461.147919 90.499039 461.091919 90.611038 Q461.091919 90.667038 460.979919 91.339035 Q460.363922 94.083038 460.363922 95.819038 Q460.363922 98.451035 461.539917 99.991035 Q462.715912 101.531036 465.067932 101.531036 Q471.339935 101.531036 475.427917 96.771034 Q475.931915 96.211037 476.099915 96.211037 Q476.323914 96.211037 476.827911 96.715034 Q477.499939 97.387039 477.331909 97.667038 Q477.10791 98.283035 475.651917 99.571037 Q471.059937 103.603035 464.843933 103.603035 L464.843933 103.603035 Z M474.251923 83.21904 Q473.915924 80.307037 470.443909 80.307037 Q468.483917 80.307037 466.411926 81.427032 Q463.667908 83.051041 462.323914 86.523041 Q461.707916 88.203033 461.707916 88.37104 Q461.707916 88.42704 462.827911 88.42704 Q464.675934 88.42704 466.243927 88.315033 Q469.547913 88.035034 471.171936 87.363037 Q472.795929 86.69104 473.859924 85.123039 Q474.251923 84.283035 474.251923 83.21904 L474.251923 83.21904 Z" fill="rgba(0,0,0,1)" fill-rule="evenodd" stroke="none"/></svg>