<svg xmlns="http://www.w3.org/2000/svg" viewBox="0 0 831.947333 138.21352" width="831.947333" height="138.21352"><path d="M30.24 37.804882 Q29.439999 37.004883 28.68 36.844883 Q27.92 36.684883 24.639999 36.604881 L22 36.604881 L22 32.924881 L22.879999 32.924881 Q24.32 33.164883 34.559998 33.164883 Q46.400002 33.164883 47.84 32.924881 L48.799999 32.924881 L48.799999 36.604881 L46.639999 36.604881 Q43.68 36.604881 42.799999 36.684883 Q40.559998 36.764881 39.919998 36.964882 Q39.279999 37.164883 38.639999 37.804882 L38.559998 60.20488 Q38.559998 82.604881 38.639999 82.844879 Q38.720001 83.164879 38.959999 83.404877 Q39.439999 83.804878 45.040001 83.804878 Q50.720001 83.804878 52.799999 83.324883 Q57.52 81.964882 59.759998 78.844879 Q62 75.724884 62.879997 69.88488 Q62.879997 69.484879 63 68.484879 Q63.119999 67.484879 63.239998 66.684883 Q63.360001 65.88488 63.360001 65.804878 Q63.360001 65.724884 64.959999 65.724884 L66.559998 65.724884 L66.559998 66.124878 Q66.399994 66.364883 65.440002 76.644882 Q64.479996 86.924881 64.32 87.164879 L64.32 87.56488 L22 87.56488 L22 83.88488 L24.639999 83.88488 Q27.92 83.804878 28.68 83.644882 Q29.439999 83.484879 30.24 82.684883 L30.24 37.804882 L30.24 37.804882 Z" fill="rgba(0,0,0,1)" fill-rule="evenodd" stroke="none"/><path d="M80.479996 34.04488 Q82.479996 34.20488 83.760002 35.444881 Q85.040001 36.684883 85.040001 38.844883 Q85.040001 41.72488 82.879997 42.924881 Q81.839996 43.644882 80.32 43.644882 Q77.040001 43.644882 75.68 40.444881 Q75.519997 39.964882 75.519997 38.844883 Q75.519997 36.604881 76.919998 35.324883 Q78.32 34.04488 80.479996 34.04488 L80.479996 34.04488 Z M72.559998 53.084881 Q72.879997 53.084881 78.639999 52.644882 Q84.400002 52.20488 84.559998 52.20488 L84.800003 52.20488 L84.800003 82.604881 Q85.199997 83.404877 85.760002 83.604881 Q86.32 83.804878 88.559998 83.88488 L90.400002 83.88488 L90.400002 87.56488 L89.760002 87.56488 Q88.879997 87.324883 81.440002 87.324883 Q74.160004 87.324883 72.720001 87.56488 L72.080002 87.56488 L72.080002 83.88488 L73.360001 83.88488 L74.239998 83.88488 Q77.599998 83.88488 78.239998 82.764877 Q78.32 82.604881 78.32 71.164879 Q78.32 59.164879 78 58.364883 Q77.360001 56.764881 73.279999 56.764881 L72.400002 56.764881 L72.400002 54.924881 Q72.400002 53.084881 72.559998 53.084881 L72.559998 53.084881 Z" fill="rgba(0,0,0,1)" fill-rule="evenodd" stroke="none"/><path d="M127.502396 51.04248 Q127.502396 51.490482 127.166397 51.826481 Q126.830399 52.162479 126.326401 52.162479 Q126.046402 52.162479 125.094398 51.266479 Q124.142395 50.37048 119.830399 46.058479 L114.006393 40.234482 L108.126396 46.114479 Q102.190399 51.93848 102.0224 52.05048 Q101.798401 52.162479 101.630394 52.162479 Q101.182396 52.162479 100.818398 51.826481 Q100.454399 51.490482 100.454399 51.04248 Q100.454399 50.930481 100.566399 50.594482 Q100.734398 50.25848 106.502396 44.490479 L112.326401 38.666481 L106.502396 32.84248 Q100.734398 27.07448 100.566399 26.73848 Q100.454399 26.514481 100.454399 26.346479 Q100.454399 25.898479 100.790398 25.534481 Q101.126396 25.170481 101.574394 25.170481 Q101.686401 25.170481 102.0224 25.28248 Q102.190399 25.39448 108.126396 31.218481 L114.006393 37.09848 L119.830399 31.274481 Q124.142395 26.962481 125.094398 26.066481 Q126.046402 25.170481 126.326401 25.170481 Q126.830399 25.170481 127.166397 25.506479 Q127.502396 25.84248 127.502396 26.29048 Q127.502396 26.514481 127.390396 26.73848 Q127.278397 26.962481 121.454399 32.78648 L115.630402 38.666481 L121.454399 44.546482 Q127.278397 50.37048 127.390396 50.594482 Q127.502396 50.818481 127.502396 51.04248 L127.502396 51.04248 Z" fill="rgba(0,0,0,1)" fill-rule="evenodd" stroke="none"/><path d="M99.390396 72.492882 Q98.830399 71.932877 98.298401 71.820877 Q97.766396 71.708878 95.470398 71.652878 L93.622398 71.652878 L93.622398 69.076881 L94.238396 69.076881 Q95.246399 69.244881 102.414398 69.244881 Q110.7024 69.244881 111.710396 69.076881 L112.382401 69.076881 L112.382401 71.652878 L110.870399 71.652878 Q108.798401 71.652878 108.182396 71.708878 Q106.614395 71.764877 106.166397 71.904877 Q105.718399 72.044876 105.270401 72.492882 L105.214401 88.172882 Q105.214401 103.852882 105.270401 104.020882 Q105.326401 104.244881 105.4944 104.41288 Q105.830399 104.692886 109.750397 104.692886 Q113.726395 104.692886 115.182396 104.35688 Q118.486397 103.404884 120.054398 101.220886 Q121.622398 99.03688 122.238396 94.948883 Q122.238396 94.668884 122.322395 93.96888 Q122.406395 93.268883 122.490402 92.708885 Q122.574402 92.14888 122.574402 92.09288 Q122.574402 92.03688 123.694397 92.03688 L124.8144 92.03688 L124.8144 92.316879 Q124.702393 92.484879 124.030396 99.680885 Q123.358398 106.876884 123.246399 107.044884 L123.246399 107.324883 L93.622398 107.324883 L93.622398 104.748886 L95.470398 104.748886 Q97.766396 104.692886 98.298401 104.580879 Q98.830399 104.46888 99.390396 103.908882 L99.390396 72.492882 L99.390396 72.492882 Z" fill="rgba(0,0,0,1)" fill-rule="evenodd" stroke="none"/><path d="M134.558395 69.860886 Q135.958405 69.972885 136.854401 70.840881 Q137.750397 71.708878 137.750397 73.220886 Q137.750397 75.236877 136.238403 76.076881 Q135.510391 76.580879 134.446396 76.580879 Q132.150391 76.580879 131.198395 74.340881 Q131.086395 74.004883 131.086395 73.220886 Q131.086395 71.652878 132.066391 70.756882 Q133.046402 69.860886 134.558395 69.860886 L134.558395 69.860886 Z M129.014404 83.188881 Q129.238403 83.188881 133.270401 82.880882 Q137.302399 82.572884 137.414398 82.572884 L137.582397 82.572884 L137.582397 103.852882 Q137.862396 104.41288 138.254395 104.552879 Q138.646393 104.692886 140.214401 104.748886 L141.502396 104.748886 L141.502396 107.324883 L141.054398 107.324883 Q140.4384 107.156883 135.230392 107.156883 Q130.134399 107.156883 129.126404 107.324883 L128.678391 107.324883 L128.678391 104.748886 L129.574402 104.748886 L130.190399 104.748886 Q132.542404 104.748886 132.990402 103.964882 Q133.046402 103.852882 133.046402 95.844879 Q133.046402 87.444885 132.822403 86.88488 Q132.37439 85.764877 129.518402 85.764877 L128.90239 85.764877 L128.90239 84.476883 Q128.90239 83.188881 129.014404 83.188881 L129.014404 83.188881 Z" fill="rgba(0,0,0,1)" fill-rule="evenodd" stroke="none"/><path d="M147.146072 103.964882 Q147.146072 102.56488 148.070084 101.556885 Q148.99408 100.548882 150.450073 100.548882 Q152.578079 100.548882 153.558075 102.340881 Q154.538071 104.132881 154.538071 106.876884 Q154.538071 107.94088 154.426071 108.836884 Q153.642075 113.820885 150.338074 117.404884 Q149.554077 118.188881 149.330078 118.188881 Q149.162079 118.188881 148.714081 117.740883 Q148.266083 117.292885 148.098083 117.068886 Q148.042084 116.788879 148.658081 116.116882 Q152.130081 112.588882 152.46608 107.492882 L152.46608 106.820885 Q152.41008 106.820885 152.130081 106.988884 Q151.402069 107.324883 150.618073 107.324883 Q149.162079 107.324883 148.154083 106.344879 Q147.146072 105.364883 147.146072 103.964882 L147.146072 103.964882 Z" fill="rgba(0,0,0,1)" fill-rule="evenodd" stroke="none"/><path d="M185.272873 107.324883 Q184.320862 107.156883 176.368866 107.156883 Q168.52887 107.156883 167.576874 107.324883 L166.904861 107.324883 L166.904861 104.748886 L168.36087 104.748886 Q171.608871 104.748886 172.560867 104.580879 Q173.008865 104.524879 173.904861 103.908882 L173.904861 74.956879 Q173.792862 74.956879 173.456863 75.124878 Q170.880875 76.132881 167.688873 76.188881 L166.624863 76.188881 L166.624863 73.612885 L167.688873 73.612885 Q172.392868 73.444885 175.52887 71.484879 Q176.536865 70.924881 177.264862 70.196884 Q177.376862 70.028885 177.936874 70.028885 Q178.496872 70.028885 178.88887 70.364883 L178.88887 87.108879 L178.94487 103.908882 Q179.784866 104.748886 182.584869 104.748886 L184.432861 104.748886 L185.88887 104.748886 L185.88887 107.324883 L185.272873 107.324883 L185.272873 107.324883 Z" fill="rgba(0,0,0,1)" fill-rule="evenodd" stroke="none"/><path d="M194.680862 93.324883 Q194.680862 92.596878 195.464874 92.20488 L228.00087 92.20488 Q228.840866 92.652878 228.840866 93.324883 Q228.840866 93.99688 228.00087 94.444885 L195.464874 94.444885 Q194.680862 94.052879 194.680862 93.324883 L194.680862 93.324883 Z" fill="rgba(0,0,0,1)" fill-rule="evenodd" stroke="none"/><path d="M239.692551 83.30088 Q238.124542 83.30088 237.228546 82.292877 Q236.33255 81.284882 236.33255 79.82888 Q236.33255 75.796883 239.384552 72.91288 Q242.436554 70.028885 246.692551 70.028885 Q251.508545 70.028885 254.672546 72.632881 Q257.836548 75.236877 258.564545 79.436882 Q258.676544 80.444885 258.676544 81.284882 Q258.676544 84.532883 256.716553 87.388885 Q255.148544 89.740883 250.38855 93.82888 Q248.372543 95.56488 244.788544 98.980881 L241.484543 102.116882 L245.74054 102.172882 Q254.532547 102.172882 255.092545 101.892883 Q255.316544 101.836884 255.652542 100.716881 Q255.876541 100.100883 256.436554 96.908882 L256.436554 96.740883 L258.676544 96.740883 L258.676544 96.908882 L257.108551 107.156883 L257.108551 107.324883 L236.33255 107.324883 L236.33255 106.26088 Q236.33255 105.140884 236.44455 104.972885 Q236.500549 104.860886 241.148544 99.652885 Q247.252548 92.876884 248.988541 90.692886 Q252.74054 85.596878 252.74054 81.340881 Q252.74054 77.644882 250.808548 75.152878 Q248.876541 72.660881 245.404541 72.660881 Q242.156555 72.660881 240.140549 75.572884 Q240.028549 75.796883 239.80455 76.188881 Q239.636551 76.46888 239.636551 76.524879 Q239.636551 76.580879 239.91655 76.580879 Q241.316544 76.580879 242.18454 77.588882 Q243.052551 78.596878 243.052551 79.94088 Q243.052551 81.340881 242.12854 82.320877 Q241.204544 83.30088 239.692551 83.30088 L239.692551 83.30088 Z" fill="rgba(0,0,0,1)" fill-rule="evenodd" stroke="none"/><path d="M264.780548 91.756882 Q264.44455 91.420883 264.44455 91.140884 Q264.668549 89.628883 266.180573 87.276886 Q268.812561 83.30088 272.788574 82.684883 Q273.572571 82.572884 273.964569 82.572884 Q275.924561 82.572884 277.576569 83.580879 Q279.228577 84.588882 279.956573 86.100883 Q280.68457 85.14888 280.85257 84.924881 Q282.924561 82.572884 285.612549 82.572884 Q287.908569 82.572884 289.336548 83.888885 Q290.764557 85.20488 290.764557 87.108879 Q290.764557 88.844879 289.784576 90.020882 Q288.804565 91.196884 287.180573 91.196884 Q286.116577 91.196884 285.44455 90.580879 Q284.772552 89.964882 284.772552 88.956879 Q284.772552 86.380882 287.572571 85.428879 Q287.572571 85.372879 286.956573 85.03688 Q286.396576 84.700882 285.33255 84.700882 Q284.604553 84.700882 284.268555 84.812881 Q282.140564 85.708878 281.132568 88.508881 Q280.964569 88.956879 279.508575 94.752884 Q278.052551 100.548882 277.940552 101.276886 Q277.772552 102.116882 277.772552 102.956879 Q277.772552 104.30088 278.556549 105.084885 Q279.340576 105.868881 280.628571 105.868881 Q282.98056 105.868881 284.884552 103.880882 Q286.788574 101.892883 287.460571 99.484879 Q287.628571 98.924881 287.79657 98.840881 Q287.964569 98.756882 288.692566 98.756882 Q289.756561 98.756882 289.756561 99.20488 Q289.756561 99.26088 289.644562 99.820885 Q288.692566 103.292885 285.724548 105.868881 Q283.09256 107.94088 280.180573 107.94088 Q276.260559 107.94088 274.244568 104.41288 Q272.620575 106.932884 270.100555 107.772881 Q269.596558 107.88488 268.644562 107.88488 Q265.396576 107.88488 264.052551 105.588882 Q263.492554 104.636879 263.492554 103.348885 Q263.492554 101.668884 264.500549 100.492882 Q265.508575 99.316879 267.076569 99.316879 Q269.484558 99.316879 269.484558 101.668884 Q269.484558 103.740883 267.524567 104.692886 Q267.412567 104.748886 267.244568 104.832886 Q267.076569 104.916885 266.964569 104.972885 Q266.85257 105.028885 266.79657 105.028885 L266.628571 105.084885 Q266.628571 105.252884 267.468567 105.588882 Q268.140564 105.868881 268.924561 105.868881 Q270.940552 105.868881 272.396576 103.348885 Q273.012573 102.340881 274.580566 96.068878 Q274.916565 94.780884 275.308563 93.212883 Q275.700562 91.644882 275.896576 90.804886 Q276.09256 89.964882 276.14856 89.796883 Q276.428558 88.284882 276.428558 87.612885 Q276.428558 86.268883 275.700562 85.484879 Q274.972565 84.700882 273.68457 84.700882 Q271.164551 84.700882 269.316559 86.632881 Q267.468567 88.56488 266.74057 91.084885 Q266.628571 91.588882 266.488556 91.672882 Q266.348572 91.756882 265.564575 91.756882 L264.780548 91.756882 L264.780548 91.756882 Z" fill="rgba(0,0,0,1)" fill-rule="evenodd" stroke="none"/><path d="M304.098236 37.804882 Q303.298248 37.004883 302.538239 36.844883 Q301.778229 36.684883 298.49823 36.604881 L295.858246 36.604881 L295.858246 32.924881 L304.338226 32.924881 Q312.738251 32.924881 313.058228 33.164883 L313.458252 33.56488 Q330.178223 77.56488 330.178223 77.644882 Q337.058228 59.56488 343.378235 42.684883 Q345.778229 36.284882 346.338226 34.924881 Q346.898254 33.56488 347.298248 33.164883 Q347.618225 32.924881 356.01825 32.924881 L364.49823 32.924881 L364.49823 36.604881 L361.858246 36.604881 Q358.578247 36.684883 357.73822 36.844883 Q356.898224 37.004883 356.338226 37.804882 L356.338226 82.684883 Q356.898224 83.484879 357.73822 83.644882 Q358.578247 83.804878 361.858246 83.88488 L364.49823 83.88488 L364.49823 87.56488 L363.618225 87.56488 Q362.338226 87.324883 352.418243 87.324883 Q342.49823 87.324883 341.218231 87.56488 L340.338226 87.56488 L340.338226 83.88488 L342.978241 83.88488 Q346.25824 83.804878 347.01825 83.644882 Q347.778229 83.484879 348.578247 82.684883 L348.578247 59.804878 Q348.578247 53.644882 348.578247 50.684879 Q348.578247 47.72488 348.578247 43.88488 Q348.578247 40.04488 348.578247 38.524883 L348.49823 37.004883 Q329.858246 86.444878 329.538239 87.004883 Q329.218231 87.484879 327.938232 87.484879 Q326.658234 87.484879 326.338226 87.004883 L307.618225 37.644882 L307.618225 39.084881 Q307.538239 40.524883 307.538239 44.124882 Q307.538239 47.72488 307.538239 50.524879 Q307.538239 53.324883 307.538239 59.084881 L307.618225 80.684883 Q308.578247 83.56488 314.418243 83.88488 L315.778229 83.88488 L315.778229 87.56488 L315.058228 87.56488 Q314.01825 87.324883 305.858246 87.324883 Q297.538239 87.324883 296.49823 87.56488 L295.858246 87.56488 L295.858246 83.88488 L297.218231 83.88488 Q302.658234 83.56488 303.858246 81.164879 L304.098236 80.684883 L304.098236 37.804882 L304.098236 37.804882 Z" fill="rgba(0,0,0,1)" fill-rule="evenodd" stroke="none"/><path d="M393.191833 54.844883 Q396.711823 51.324883 401.27182 51.324883 Q403.27182 51.324883 404.471832 52.56488 Q405.671814 53.804882 405.671814 55.88488 Q405.671814 57.164879 404.871826 57.964882 Q404.071838 58.764881 402.791809 58.764881 Q400.231812 58.764881 399.831818 56.364883 Q399.671814 55.244881 400.071838 54.684879 Q400.071838 54.604881 400.151825 54.444881 L400.151825 54.36488 Q399.831818 54.444881 399.431824 54.524879 Q397.511841 54.844883 395.911835 56.124882 Q395.27182 56.524879 395.27182 56.684883 Q395.431824 56.844879 395.591827 57.084881 Q398.231812 60.364883 398.231812 64.20488 Q398.231812 67.484879 396.071838 70.604881 Q392.311829 76.124878 384.631836 76.124878 Q380.79184 76.124878 376.711823 73.88488 Q375.831818 75.484879 375.831818 76.924881 Q375.831818 79.724884 377.911835 81.084877 Q378.631836 81.56488 379.311829 81.604881 Q379.991821 81.644882 385.03183 81.724884 Q391.751831 81.804878 393.671814 82.20488 Q402.711823 83.56488 404.311829 91.164879 Q404.471832 91.804878 404.471832 93.324883 Q404.471832 94.764877 404.311829 95.244881 Q403.191833 99.324883 398.151825 101.684883 Q393.111816 104.044876 386.871826 104.044876 Q380.311829 104.044876 375.431824 101.56488 Q370.471832 99.164879 369.351837 95.244881 Q369.191833 94.764877 369.191833 93.56488 Q369.191833 90.284882 371.671814 87.964882 Q372.871826 86.764877 374.231812 86.124878 L375.111816 85.644882 Q372.231812 83.164879 372.231812 78.924881 Q372.231812 75.244881 374.551819 72.124878 Q371.03183 68.604881 371.03183 64.20488 Q371.03183 60.844879 373.191833 57.72488 Q374.871826 55.244881 377.911835 53.72488 Q380.951813 52.20488 384.711823 52.20488 Q388.79184 52.20488 392.311829 54.284882 L393.191833 54.844883 L393.191833 54.844883 Z M378.231812 64.20488 Q378.231812 68.524879 379.591827 70.764877 Q380.951813 73.004883 384.631836 73.004883 Q387.191833 73.004883 388.79184 71.684883 Q390.391815 70.364883 390.79184 68.20488 Q391.03183 66.924881 391.03183 64.20488 Q391.03183 61.484879 390.79184 60.124882 Q389.831818 55.244881 384.551819 55.244881 Q382.231812 55.244881 380.551819 56.56488 Q378.871826 57.88488 378.471832 60.124882 Q378.231812 61.404881 378.231812 64.20488 L378.231812 64.20488 Z M396.871826 89.404877 Q395.111816 88.20488 392.911835 87.88488 Q390.711823 87.56488 386.631836 87.56488 L384.311829 87.56488 Q378.951813 87.56488 377.911835 88.044884 Q376.311829 88.764877 375.391815 90.284882 Q374.471832 91.804878 374.471832 93.484879 Q374.471832 94.364883 374.711823 95.084877 Q375.351837 96.924881 377.591827 98.484879 Q379.831818 100.044876 382.79184 100.604881 Q384.231812 100.924881 386.871826 100.924881 Q389.431824 100.924881 390.871826 100.604881 Q393.831818 99.964882 396.111816 98.404877 Q398.391815 96.844879 398.951813 95.004883 Q399.111816 94.604881 399.111816 93.56488 Q399.111816 90.844879 396.871826 89.404877 L396.871826 89.404877 Z" fill="rgba(0,0,0,1)" fill-rule="evenodd" stroke="none"/><path d="M436.490143 38.722481 Q436.490143 43.25848 433.242126 46.422482 Q429.994141 49.586479 425.626129 49.586479 Q420.922119 49.586479 417.730133 46.226482 Q414.706116 43.090481 414.706116 38.610481 Q414.706116 34.074478 417.870117 30.93848 Q421.034119 27.802481 425.570129 27.802481 Q430.274139 27.802481 433.466125 31.162479 Q436.490143 34.298481 436.490143 38.722481 L436.490143 38.722481 Z" fill="rgba(0,0,0,1)" fill-rule="evenodd" stroke="none"/><path d="M415.151031 72.492882 Q414.591034 71.932877 414.059021 71.820877 Q413.527039 71.708878 411.231018 71.652878 L409.383026 71.652878 L409.383026 69.076881 L409.999023 69.076881 Q411.007019 69.244881 418.175018 69.244881 Q426.463043 69.244881 427.471039 69.076881 L428.143036 69.076881 L428.143036 71.652878 L426.631042 71.652878 Q424.559021 71.652878 423.943024 71.708878 Q422.375031 71.764877 421.927032 71.904877 Q421.479034 72.044876 421.031036 72.492882 L420.975037 88.172882 Q420.975037 103.852882 421.031036 104.020882 Q421.087036 104.244881 421.255035 104.41288 Q421.591034 104.692886 425.511047 104.692886 Q429.48703 104.692886 430.943024 104.35688 Q434.24704 103.404884 435.815033 101.220886 Q437.383026 99.03688 437.999023 94.948883 Q437.999023 94.668884 438.083038 93.96888 Q438.167023 93.268883 438.251038 92.708885 Q438.335022 92.14888 438.335022 92.09288 Q438.335022 92.03688 439.455017 92.03688 L440.575043 92.03688 L440.575043 92.316879 Q440.463043 92.484879 439.791046 99.680885 Q439.119019 106.876884 439.007019 107.044884 L439.007019 107.324883 L409.383026 107.324883 L409.383026 104.748886 L411.231018 104.748886 Q413.527039 104.692886 414.059021 104.580879 Q414.591034 104.46888 415.151031 103.908882 L415.151031 72.492882 L415.151031 72.492882 Z" fill="rgba(0,0,0,1)" fill-rule="evenodd" stroke="none"/><path d="M450.319031 69.860886 Q451.719025 69.972885 452.615021 70.840881 Q453.511047 71.708878 453.511047 73.220886 Q453.511047 75.236877 451.999023 76.076881 Q451.271027 76.580879 450.207031 76.580879 Q447.911041 76.580879 446.959045 74.340881 Q446.847046 74.004883 446.847046 73.220886 Q446.847046 71.652878 447.827026 70.756882 Q448.807037 69.860886 450.319031 69.860886 L450.319031 69.860886 Z M444.775024 83.188881 Q444.999023 83.188881 449.031036 82.880882 Q453.063019 82.572884 453.175018 82.572884 L453.343018 82.572884 L453.343018 103.852882 Q453.623047 104.41288 454.015045 104.552879 Q454.407043 104.692886 455.975037 104.748886 L457.263031 104.748886 L457.263031 107.324883 L456.815033 107.324883 Q456.199036 107.156883 450.991028 107.156883 Q445.89502 107.156883 444.887024 107.324883 L444.439026 107.324883 L444.439026 104.748886 L445.335022 104.748886 L445.951019 104.748886 Q448.30304 104.748886 448.751038 103.964882 Q448.807037 103.852882 448.807037 95.844879 Q448.807037 87.444885 448.583038 86.88488 Q448.13504 85.764877 445.279022 85.764877 L444.663025 85.764877 L444.663025 84.476883 Q444.663025 83.188881 444.775024 83.188881 L444.775024 83.188881 Z" fill="rgba(0,0,0,1)" fill-rule="evenodd" stroke="none"/><path d="M462.906708 103.964882 Q462.906708 102.56488 463.830688 101.556885 Q464.7547 100.548882 466.210693 100.548882 Q468.338684 100.548882 469.318695 102.340881 Q470.298706 104.132881 470.298706 106.876884 Q470.298706 107.94088 470.186707 108.836884 Q469.40271 113.820885 466.098694 117.404884 Q465.314697 118.188881 465.090698 118.188881 Q464.922699 118.188881 464.474701 117.740883 Q464.026703 117.292885 463.858704 117.068886 Q463.802704 116.788879 464.418701 116.116882 Q467.890686 112.588882 468.226685 107.492882 L468.226685 106.820885 Q468.170685 106.820885 467.890686 106.988884 Q467.162689 107.324883 466.378693 107.324883 Q464.922699 107.324883 463.914703 106.344879 Q462.906708 105.364883 462.906708 103.964882 L462.906708 103.964882 Z" fill="rgba(0,0,0,1)" fill-rule="evenodd" stroke="none"/><path d="M480.985474 91.756882 Q480.649475 91.420883 480.649475 91.140884 Q480.873474 89.628883 482.385498 87.276886 Q485.017487 83.30088 488.9935 82.684883 Q489.777496 82.572884 490.169495 82.572884 Q492.129486 82.572884 493.781494 83.580879 Q495.433502 84.588882 496.161499 86.100883 Q496.889496 85.14888 497.057495 84.924881 Q499.129486 82.572884 501.817474 82.572884 Q504.113495 82.572884 505.541504 83.888885 Q506.969482 85.20488 506.969482 87.108879 Q506.969482 88.844879 505.989502 90.020882 Q505.009491 91.196884 503.385498 91.196884 Q502.321503 91.196884 501.649475 90.580879 Q500.977478 89.964882 500.977478 88.956879 Q500.977478 86.380882 503.777496 85.428879 Q503.777496 85.372879 503.161499 85.03688 Q502.601501 84.700882 501.537476 84.700882 Q500.809479 84.700882 500.47348 84.812881 Q498.34549 85.708878 497.337494 88.508881 Q497.169495 88.956879 495.713501 94.752884 Q494.257477 100.548882 494.145477 101.276886 Q493.977478 102.116882 493.977478 102.956879 Q493.977478 104.30088 494.761475 105.084885 Q495.545502 105.868881 496.833496 105.868881 Q499.185486 105.868881 501.089478 103.880882 Q502.9935 101.892883 503.665497 99.484879 Q503.833496 98.924881 504.001495 98.840881 Q504.169495 98.756882 504.897491 98.756882 Q505.961487 98.756882 505.961487 99.20488 Q505.961487 99.26088 505.849487 99.820885 Q504.897491 103.292885 501.929504 105.868881 Q499.297485 107.94088 496.385498 107.94088 Q492.465485 107.94088 490.449493 104.41288 Q488.8255 106.932884 486.305481 107.772881 Q485.801483 107.88488 484.849487 107.88488 Q481.601501 107.88488 480.257477 105.588882 Q479.697479 104.636879 479.697479 103.348885 Q479.697479 101.668884 480.705475 100.492882 Q481.713501 99.316879 483.281494 99.316879 Q485.689484 99.316879 485.689484 101.668884 Q485.689484 103.740883 483.729492 104.692886 Q483.617493 104.748886 483.449493 104.832886 Q483.281494 104.916885 483.169495 104.972885 Q483.057495 105.028885 483.001495 105.028885 L482.833496 105.084885 Q482.833496 105.252884 483.673492 105.588882 Q484.34549 105.868881 485.129486 105.868881 Q487.145477 105.868881 488.601501 103.348885 Q489.217499 102.340881 490.785492 96.068878 Q491.12149 94.780884 491.513489 93.212883 Q491.905487 91.644882 492.101501 90.804886 Q492.297485 89.964882 492.353485 89.796883 Q492.633484 88.284882 492.633484 87.612885 Q492.633484 86.268883 491.905487 85.484879 Q491.17749 84.700882 489.889496 84.700882 Q487.369476 84.700882 485.521484 86.632881 Q483.673492 88.56488 482.945496 91.084885 Q482.833496 91.588882 482.693481 91.672882 Q482.553497 91.756882 481.769501 91.756882 L480.985474 91.756882 L480.985474 91.756882 Z" fill="rgba(0,0,0,1)" fill-rule="evenodd" stroke="none"/><path d="M554.383179 32.924881 Q555.743164 32.924881 558.743164 33.004883 Q561.743164 33.084881 563.183167 33.084881 Q568.703186 33.084881 570.143188 32.924881 L570.703186 32.924881 Q571.183167 33.404881 571.223206 33.604881 Q571.263184 33.804882 571.023193 35.084881 Q570.943176 35.324883 570.86322 35.644882 Q570.783203 35.964882 570.743164 36.084881 Q570.703186 36.20488 570.623169 36.364883 Q570.543213 36.524883 570.343201 36.524883 Q570.143188 36.524883 569.903198 36.56488 Q569.663208 36.604881 569.183167 36.604881 Q564.86322 36.844883 562.303223 39.164883 Q562.143188 39.324883 561.783203 39.72488 Q561.423218 40.124882 561.343201 40.20488 Q561.10321 40.684883 560.783203 41.004883 Q531.343201 88.764877 530.86322 89.004883 L530.463196 89.244881 L529.023193 89.324883 Q527.583191 89.324883 527.343201 89.164879 Q527.023193 89.004883 527.023193 88.764877 Q526.783203 88.364883 523.86322 63.084881 Q520.943176 37.804882 520.783203 37.484882 Q520.303223 36.604881 516.703186 36.604881 L515.823181 36.604881 L514.463196 36.604881 Q513.983215 36.20488 513.903198 35.924881 Q513.823181 35.644882 514.143188 34.444881 Q514.463196 33.404881 514.943176 32.924881 L515.823181 32.924881 Q519.183167 33.164883 524.223206 33.164883 Q533.663208 33.164883 535.343201 32.924881 L536.143188 32.924881 Q536.623169 33.404881 536.663208 33.604881 Q536.703186 33.804882 536.463196 35.084881 Q536.143188 36.20488 535.743164 36.604881 L534.063171 36.604881 Q532.303223 36.764881 531.663208 36.764881 Q529.343201 37.164883 529.10321 37.964882 Q529.10321 38.124882 531.423218 58.084881 Q533.743164 78.044884 533.823181 78.124878 L539.663208 68.764877 Q545.503174 59.404881 551.343201 49.88488 Q557.183167 40.36488 557.343201 40.04488 Q557.743164 39.244881 557.743164 38.844883 Q557.743164 37.004883 554.143188 36.604881 Q552.623169 36.604881 552.623169 35.804882 Q552.623169 35.404881 552.86322 34.684883 Q553.10321 33.56488 553.343201 33.244881 Q553.583191 32.924881 554.383179 32.924881 L554.383179 32.924881 Z" fill="rgba(0,0,0,1)" fill-rule="evenodd" stroke="none"/><path d="M585.275208 21.30648 Q586.731201 21.30648 587.795166 22.31448 Q588.859192 23.322479 588.859192 24.610479 Q588.859192 24.89048 588.747192 25.45048 Q588.691223 25.84248 583.847168 37.93848 Q579.003174 50.034481 578.891174 50.146481 Q578.667175 50.37048 577.323181 49.978481 Q575.867188 49.47448 575.867188 49.250481 Q575.867188 48.858482 578.97522 36.25848 Q582.083191 23.65848 582.36322 23.09848 Q583.147217 21.30648 585.275208 21.30648 L585.275208 21.30648 Z" fill="rgba(0,0,0,1)" fill-rule="evenodd" stroke="none"/><path d="M581.355225 72.492882 Q580.795166 71.932877 580.263184 71.820877 Q579.731201 71.708878 577.435181 71.652878 L575.587219 71.652878 L575.587219 69.076881 L576.203186 69.076881 Q577.211182 69.244881 584.379211 69.244881 Q592.667175 69.244881 593.675171 69.076881 L594.347168 69.076881 L594.347168 71.652878 L592.835205 71.652878 Q590.763184 71.652878 590.147217 71.708878 Q588.579224 71.764877 588.131226 71.904877 Q587.683167 72.044876 587.235168 72.492882 L587.179199 88.172882 Q587.179199 103.852882 587.235168 104.020882 Q587.291199 104.244881 587.459167 104.41288 Q587.795166 104.692886 591.71521 104.692886 Q595.691223 104.692886 597.147217 104.35688 Q600.451172 103.404884 602.019165 101.220886 Q603.587219 99.03688 604.203186 94.948883 Q604.203186 94.668884 604.28717 93.96888 Q604.371216 93.268883 604.4552 92.708885 Q604.539185 92.14888 604.539185 92.09288 Q604.539185 92.03688 605.65918 92.03688 L606.779175 92.03688 L606.779175 92.316879 Q606.667175 92.484879 605.995178 99.680885 Q605.323181 106.876884 605.211182 107.044884 L605.211182 107.324883 L575.587219 107.324883 L575.587219 104.748886 L577.435181 104.748886 Q579.731201 104.692886 580.263184 104.580879 Q580.795166 104.46888 581.355225 103.908882 L581.355225 72.492882 L581.355225 72.492882 Z" fill="rgba(0,0,0,1)" fill-rule="evenodd" stroke="none"/><path d="M616.523193 69.860886 Q617.923218 69.972885 618.819214 70.840881 Q619.71521 71.708878 619.71521 73.220886 Q619.71521 75.236877 618.203186 76.076881 Q617.47522 76.580879 616.411194 76.580879 Q614.115173 76.580879 613.163208 74.340881 Q613.051208 74.004883 613.051208 73.220886 Q613.051208 71.652878 614.031189 70.756882 Q615.011169 69.860886 616.523193 69.860886 L616.523193 69.860886 Z M610.979187 83.188881 Q611.203186 83.188881 615.235168 82.880882 Q619.267212 82.572884 619.379211 82.572884 L619.54718 82.572884 L619.54718 103.852882 Q619.827209 104.41288 620.219177 104.552879 Q620.611206 104.692886 622.179199 104.748886 L623.467224 104.748886 L623.467224 107.324883 L623.019165 107.324883 Q622.403198 107.156883 617.19519 107.156883 Q612.099182 107.156883 611.091187 107.324883 L610.643188 107.324883 L610.643188 104.748886 L611.539185 104.748886 L612.155212 104.748886 Q614.507202 104.748886 614.9552 103.964882 Q615.011169 103.852882 615.011169 95.844879 Q615.011169 87.444885 614.78717 86.88488 Q614.339172 85.764877 611.483215 85.764877 L610.867188 85.764877 L610.867188 84.476883 Q610.867188 83.188881 610.979187 83.188881 L610.979187 83.188881 Z" fill="rgba(0,0,0,1)" fill-rule="evenodd" stroke="none"/><path d="M629.11084 103.964882 Q629.11084 102.56488 630.034851 101.556885 Q630.958862 100.548882 632.414856 100.548882 Q634.542847 100.548882 635.522888 102.340881 Q636.502869 104.132881 636.502869 106.876884 Q636.502869 107.94088 636.390869 108.836884 Q635.606873 113.820885 632.302856 117.404884 Q631.51886 118.188881 631.294861 118.188881 Q631.126831 118.188881 630.678833 117.740883 Q630.230835 117.292885 630.062866 117.068886 Q630.006836 116.788879 630.622864 116.116882 Q634.094849 112.588882 634.430847 107.492882 L634.430847 106.820885 Q634.374878 106.820885 634.094849 106.988884 Q633.366882 107.324883 632.582886 107.324883 Q631.126831 107.324883 630.118835 106.344879 Q629.11084 105.364883 629.11084 103.964882 L629.11084 103.964882 Z" fill="rgba(0,0,0,1)" fill-rule="evenodd" stroke="none"/><path d="M647.189636 91.756882 Q646.853638 91.420883 646.853638 91.140884 Q647.077637 89.628883 648.589661 87.276886 Q651.22168 83.30088 655.197632 82.684883 Q655.981628 82.572884 656.373657 82.572884 Q658.333679 82.572884 659.985657 83.580879 Q661.637634 84.588882 662.365662 86.100883 Q663.093628 85.14888 663.261658 84.924881 Q665.333679 82.572884 668.021667 82.572884 Q670.317627 82.572884 671.745667 83.888885 Q673.173645 85.20488 673.173645 87.108879 Q673.173645 88.844879 672.193665 90.020882 Q671.213623 91.196884 669.589661 91.196884 Q668.525635 91.196884 667.853638 90.580879 Q667.181641 89.964882 667.181641 88.956879 Q667.181641 86.380882 669.981628 85.428879 Q669.981628 85.372879 669.365662 85.03688 Q668.805664 84.700882 667.741638 84.700882 Q667.013672 84.700882 666.677673 84.812881 Q664.549622 85.708878 663.541626 88.508881 Q663.373657 88.956879 661.917664 94.752884 Q660.46167 100.548882 660.34967 101.276886 Q660.181641 102.116882 660.181641 102.956879 Q660.181641 104.30088 660.965637 105.084885 Q661.749634 105.868881 663.037659 105.868881 Q665.389648 105.868881 667.29364 103.880882 Q669.197632 101.892883 669.869629 99.484879 Q670.037659 98.924881 670.205627 98.840881 Q670.373657 98.756882 671.101624 98.756882 Q672.165649 98.756882 672.165649 99.20488 Q672.165649 99.26088 672.05365 99.820885 Q671.101624 103.292885 668.133667 105.868881 Q665.501648 107.94088 662.589661 107.94088 Q658.669678 107.94088 656.653625 104.41288 Q655.029663 106.932884 652.509644 107.772881 Q652.005676 107.88488 651.05365 107.88488 Q647.805664 107.88488 646.46167 105.588882 Q645.901672 104.636879 645.901672 103.348885 Q645.901672 101.668884 646.909668 100.492882 Q647.917664 99.316879 649.485657 99.316879 Q651.893677 99.316879 651.893677 101.668884 Q651.893677 103.740883 649.933655 104.692886 Q649.821655 104.748886 649.653625 104.832886 Q649.485657 104.916885 649.373657 104.972885 Q649.261658 105.028885 649.205627 105.028885 L649.037659 105.084885 Q649.037659 105.252884 649.877625 105.588882 Q650.549622 105.868881 651.333679 105.868881 Q653.34967 105.868881 654.805664 103.348885 Q655.421631 102.340881 656.989624 96.068878 Q657.325623 94.780884 657.717651 93.212883 Q658.10968 91.644882 658.305664 90.804886 Q658.501648 89.964882 658.557678 89.796883 Q658.837646 88.284882 658.837646 87.612885 Q658.837646 86.268883 658.10968 85.484879 Q657.381653 84.700882 656.093628 84.700882 Q653.573669 84.700882 651.725647 86.632881 Q649.877625 88.56488 649.149658 91.084885 Q649.037659 91.588882 648.897644 91.672882 Q648.757629 91.756882 647.973633 91.756882 L647.189636 91.756882 L647.189636 91.756882 Z" fill="rgba(0,0,0,1)" fill-rule="evenodd" stroke="none"/><path d="M728.747314 67.004883 L729.227295 67.484879 L729.227295 68.684883 Q728.827332 75.88488 724.507324 81.404877 Q720.187317 86.924881 713.387329 88.684883 Q711.067322 89.244881 708.187317 89.244881 Q705.227295 89.244881 703.147339 88.764877 Q694.187317 87.004883 688.067322 80.284882 Q681.947327 73.56488 680.507324 63.644882 Q680.427307 62.924881 680.427307 60.20488 Q680.427307 57.56488 680.507324 56.764881 Q681.86731 47.004883 688.027344 40.244881 Q694.187317 33.484882 703.147339 31.644882 Q705.707336 31.164883 707.227295 31.164883 Q707.387329 31.164883 707.86731 31.20488 Q708.347351 31.244881 708.587341 31.244881 Q710.507324 31.244881 711.307312 31.404881 Q717.147339 32.444881 721.467346 36.684883 L722.507324 37.644882 L724.907349 34.524883 Q727.067322 31.56488 727.387329 31.244881 Q727.467346 31.244881 727.707336 31.20488 Q727.947327 31.164883 728.187317 31.164883 Q728.747314 31.164883 729.227295 31.644882 L729.227295 54.04488 L728.747314 54.524879 L726.027344 54.524879 Q725.547302 54.04488 725.467346 53.164883 Q724.747314 46.604881 721.627319 41.804882 Q718.507324 37.004883 714.027344 35.484882 Q712.507324 34.924881 710.027344 34.924881 Q701.707336 34.924881 696.1073 40.524883 Q689.787354 46.844883 689.787354 60.20488 Q689.787354 69.88488 692.827332 75.484879 Q695.307312 80.20488 699.907349 82.924881 Q704.507324 85.644882 710.187317 85.644882 Q716.027344 85.644882 720.347351 81.444878 Q724.667297 77.244881 725.627319 71.56488 Q726.027344 69.56488 726.027344 68.044876 Q726.027344 67.484879 726.507324 67.004883 L728.747314 67.004883 L728.747314 67.004883 Z" fill="rgba(0,0,0,1)" fill-rule="evenodd" stroke="none"/><path d="M735.964905 32.924881 Q736.364929 32.924881 742.244934 32.484882 Q748.124939 32.04488 748.284912 32.04488 L748.524902 32.04488 L748.524902 57.244881 Q748.524902 82.604881 748.604919 82.764877 Q749.244934 83.88488 752.604919 83.88488 L753.484924 83.88488 L754.764893 83.88488 L754.764893 87.56488 L754.124939 87.56488 Q752.684937 87.324883 745.32489 87.324883 Q737.484924 87.324883 736.444885 87.56488 L735.804932 87.56488 L735.804932 83.88488 L737.0849 83.88488 L737.964905 83.88488 Q741.32489 83.88488 741.964905 82.764877 L741.964905 82.124878 Q741.964905 81.404877 741.964905 80.284882 Q741.964905 79.164879 742.004944 77.644882 Q742.044922 76.124878 742.044922 74.164879 Q742.044922 72.20488 742.044922 70.164879 Q742.044922 68.124878 742.044922 65.764877 Q742.044922 63.404881 742.044922 61.244881 Q742.044922 58.284882 742.044922 54.964882 Q742.044922 51.644882 742.044922 49.004883 Q742.044922 46.36488 742.004944 44.164883 Q741.964905 41.964882 741.964905 40.684883 Q741.964905 39.404881 741.964905 39.324883 Q741.724915 37.804882 740.804932 37.284882 Q739.884888 36.764881 737.244934 36.604881 L735.804932 36.604881 L735.804932 34.764881 Q735.804932 32.924881 735.964905 32.924881 L735.964905 32.924881 Z" fill="rgba(0,0,0,1)" fill-rule="evenodd" stroke="none"/><path d="M791.227356 51.04248 Q791.227356 51.490482 790.891357 51.826481 Q790.555298 52.162479 790.051331 52.162479 Q789.771301 52.162479 788.819336 51.266479 Q787.86731 50.37048 783.555298 46.058479 L777.731323 40.234482 L771.851318 46.114479 Q765.915344 51.93848 765.747314 52.05048 Q765.523315 52.162479 765.355347 52.162479 Q764.907349 52.162479 764.543335 51.826481 Q764.179321 51.490482 764.179321 51.04248 Q764.179321 50.930481 764.291321 50.594482 Q764.459351 50.25848 770.227356 44.490479 L776.051331 38.666481 L770.227356 32.84248 Q764.459351 27.07448 764.291321 26.73848 Q764.179321 26.514481 764.179321 26.346479 Q764.179321 25.898479 764.51532 25.534481 Q764.851318 25.170481 765.299316 25.170481 Q765.411316 25.170481 765.747314 25.28248 Q765.915344 25.39448 771.851318 31.218481 L777.731323 37.09848 L783.555298 31.274481 Q787.86731 26.962481 788.819336 26.066481 Q789.771301 25.170481 790.051331 25.170481 Q790.555298 25.170481 790.891357 25.506479 Q791.227356 25.84248 791.227356 26.29048 Q791.227356 26.514481 791.115356 26.73848 Q791.003296 26.962481 785.179321 32.78648 L779.355347 38.666481 L785.179321 44.546482 Q791.003296 50.37048 791.115356 50.594482 Q791.227356 50.818481 791.227356 51.04248 L791.227356 51.04248 Z" fill="rgba(0,0,0,1)" fill-rule="evenodd" stroke="none"/><path d="M792.907349 92.932884 L793.243347 93.268883 L793.243347 94.108879 Q792.963318 99.14888 789.939331 103.012878 Q786.915344 106.876884 782.155334 108.108879 Q780.531311 108.500885 778.51532 108.500885 Q776.443298 108.500885 774.987305 108.164879 Q768.715332 106.932884 764.431335 102.228882 Q760.147339 97.524879 759.139343 90.580879 Q759.083313 90.076881 759.083313 88.172882 Q759.083313 86.324883 759.139343 85.764877 Q760.091309 78.932884 764.40332 74.200882 Q768.715332 69.46888 774.987305 68.180878 Q776.779297 67.844879 777.843323 67.844879 Q777.955322 67.844879 778.291321 67.872879 Q778.627319 67.900879 778.795349 67.900879 Q780.139343 67.900879 780.699341 68.012878 Q784.787354 68.740883 787.81134 71.708878 L788.539307 72.380882 L790.219299 70.196884 Q791.731323 68.124878 791.955322 67.900879 Q792.011353 67.900879 792.179321 67.872879 Q792.347351 67.844879 792.51532 67.844879 Q792.907349 67.844879 793.243347 68.180878 L793.243347 83.860886 L792.907349 84.196884 L791.003296 84.196884 Q790.667358 83.860886 790.611328 83.244881 Q790.1073 78.652878 787.92334 75.292877 Q785.739319 71.932877 782.603333 70.868881 Q781.539307 70.476883 779.803345 70.476883 Q773.979309 70.476883 770.059326 74.396881 Q765.635315 78.820877 765.635315 88.172882 Q765.635315 94.948883 767.763306 98.868881 Q769.499329 102.172882 772.719299 104.076881 Q775.939331 105.980881 779.915344 105.980881 Q784.003357 105.980881 787.027344 103.040886 Q790.051331 100.100883 790.723328 96.124878 Q791.003296 94.724884 791.003296 93.660881 Q791.003296 93.268883 791.339355 92.932884 L792.907349 92.932884 L792.907349 92.932884 Z" fill="rgba(0,0,0,1)" fill-rule="evenodd" stroke="none"/><path d="M797.959656 69.076881 Q798.239685 69.076881 802.355652 68.768883 Q806.47168 68.460876 806.583679 68.460876 L806.751648 68.460876 L806.751648 86.100883 Q806.751648 103.852882 806.807678 103.964882 Q807.255676 104.748886 809.607666 104.748886 L810.223633 104.748886 L811.11969 104.748886 L811.11969 107.324883 L810.671692 107.324883 Q809.663635 107.156883 804.511658 107.156883 Q799.023682 107.156883 798.295654 107.324883 L797.847656 107.324883 L797.847656 104.748886 L798.743652 104.748886 L799.35968 104.748886 Q801.71167 104.748886 802.159668 103.964882 L802.159668 103.516884 Q802.159668 103.012878 802.159668 102.228882 Q802.159668 101.444885 802.187683 100.380882 Q802.215637 99.316879 802.215637 97.944885 Q802.215637 96.572884 802.215637 95.144882 Q802.215637 93.716881 802.215637 92.06488 Q802.215637 90.41288 802.215637 88.900879 Q802.215637 86.82888 802.215637 84.504883 Q802.215637 82.180878 802.215637 80.332886 Q802.215637 78.484879 802.187683 76.944885 Q802.159668 75.404884 802.159668 74.508881 Q802.159668 73.612885 802.159668 73.556885 Q801.991638 72.492882 801.347656 72.128876 Q800.703674 71.764877 798.855652 71.652878 L797.847656 71.652878 L797.847656 70.364883 Q797.847656 69.076881 797.959656 69.076881 L797.959656 69.076881 Z" fill="rgba(0,0,0,1)" fill-rule="evenodd" stroke="none"/></svg>