<svg xmlns="http://www.w3.org/2000/svg" viewBox="0 0 252.408578 117.64552" width="252.408578" height="117.64552"><path d="M15.04 59.964317 L15.04 59.284317 L24.439999 35.844318 Q33.799999 12.40432 33.879997 12.24432 Q34.32 11.644318 34.959999 11.644318 Q35.48 11.644318 35.82 11.984318 Q36.16 12.324318 36.16 12.884319 L36.16 13.204319 L26.879999 36.40432 Q17.6 59.524319 17.6 59.644318 Q17.6 59.764317 26.879999 82.884315 L36.16 106.044312 L36.16 106.404312 Q36.16 106.964317 35.799999 107.304321 Q35.439999 107.644318 34.959999 107.644318 Q34.48 107.644318 33.879997 107.044312 Q33.799999 106.884315 24.439999 83.444321 L15.04 59.964317 L15.04 59.964317 Z" fill="rgba(0,0,0,1)" fill-rule="evenodd" stroke="none"/><path d="M57.959999 53.884319 Q57.959999 54.40432 56.459999 60.304317 Q54.959999 66.204315 54.959999 66.924316 Q54.959999 68.604317 56.080002 68.604317 Q56.440002 68.564316 56.879997 68.244316 Q57.720001 67.444321 58.52 64.40432 Q58.760002 63.604317 58.919998 63.564316 Q59 63.524319 59.32 63.524319 L59.48 63.524319 Q60.239998 63.524319 60.239998 63.844318 Q60.239998 64.004318 60.119999 64.484314 Q59.239998 67.844315 57.959999 69.124321 Q57.040001 70.044319 55.720001 70.044319 Q53.200001 70.044319 52.200001 68.08432 Q52 67.564316 52 67.604317 Q51.959999 67.564316 51.84 67.644318 Q51.759998 67.724319 51.68 67.804321 Q49.760002 69.604317 47.880001 70.004318 Q47.639999 70.044319 46.880001 70.044319 Q44.239998 70.044319 42.52 67.844315 Q41.32 66.08432 41.32 63.364319 Q41.32 62.724319 41.360001 62.484318 Q41.639999 59.924316 43.02 57.58432 Q44.400002 55.244316 46.32 53.804317 Q48.639999 52.004318 51.200001 52.004318 Q53.200001 52.004318 54.799999 53.964317 Q55.439999 52.76432 56.639999 52.76432 Q57.16 52.76432 57.559998 53.08432 Q57.959999 53.40432 57.959999 53.884319 L57.959999 53.884319 Z M44.720001 65.40432 Q44.720001 66.844315 45.34 67.724319 Q45.959999 68.604317 47.16 68.604317 Q48.32 68.604317 49.639999 67.644318 Q50.119999 67.324318 50.939999 66.444321 Q51.759998 65.564316 51.919998 65.244316 Q52 65.08432 53.02 60.964317 Q54.040001 56.844318 54.040001 56.524319 Q54.040001 56.044319 53.599998 55.164318 Q52.720001 53.444321 51.080002 53.444321 Q49.48 53.444321 48.260002 54.804317 Q47.040001 56.164318 46.400002 57.924316 Q45.239998 61.08432 44.759998 64.484314 Q44.759998 64.604317 44.739998 64.924316 Q44.720001 65.244316 44.720001 65.40432 L44.720001 65.40432 Z" fill="rgba(0,0,0,1)" fill-rule="evenodd" stroke="none"/><path d="M78.054711 12.24353 L78.054711 35.64392 L78.054711 83.64472 L78.054711 107.04511 C78.161391 107.445117 78.441391 107.64512 78.894711 107.64512 C79.294711 107.64512 79.561391 107.445117 79.694711 107.04511 L79.694711 83.64472 L79.694711 35.64392 L79.694711 12.24353 C79.588031 11.843523 79.308031 11.64352 78.854711 11.64352 C78.454711 11.64352 78.188031 11.843523 78.054711 12.24353 Z" fill="rgba(0,0,0,1)" fill-rule="nonzero" stroke="none"/><path d="M79.774711 12.24353 L78.054711 12.24353 L78.054711 35.64392 L78.054711 83.64472 L78.054711 107.04511 L79.774711 107.04511 Z" fill="rgba(0,0,0,1)" fill-rule="nonzero" stroke="none"/><path d="M117.543488 22.24432 Q116.783485 22.24432 116.283485 21.82432 Q115.783485 21.40432 115.783485 20.68432 Q115.783485 20.284321 115.943489 19.76432 Q116.543488 17.604321 118.003487 16.14432 Q119.463486 14.68432 121.503487 14.16432 Q122.503487 13.964321 122.783485 13.964321 L123.263489 13.964321 Q124.583488 13.964321 124.823486 14.00432 Q128.143494 14.604321 130.123489 17.384319 Q132.103485 20.16432 132.103485 24.284321 Q132.103485 26.64432 131.22348 29.92432 Q129.143494 37.164318 125.543488 40.444321 Q122.303482 43.444321 118.383484 43.444321 Q116.263489 43.444321 114.863487 42.704319 Q113.463486 41.964321 112.383484 40.324318 Q111.503487 39.044319 111.223488 37.644318 Q111.143486 37.284321 111.143486 36.204319 Q111.143486 34.92432 111.383484 33.964321 Q112.303482 29.84432 115.303482 27.124321 Q118.023483 24.64432 120.663483 24.124319 Q121.423485 23.964319 122.343483 23.964319 Q123.543488 23.964319 124.343483 24.24432 Q126.98349 25.16432 127.663483 27.884319 L127.783485 27.444321 Q128.583481 24.124319 128.583481 21.964319 Q128.583481 17.364321 125.423485 15.964321 Q124.343483 15.524321 123.223488 15.524321 Q121.703484 15.524321 120.423485 16.24432 Q119.143486 16.964321 118.383484 18.08432 Q120.023483 18.364321 120.023483 19.68432 Q120.023483 20.76432 119.283485 21.50432 Q118.543488 22.24432 117.543488 22.24432 L117.543488 22.24432 Z M126.663483 30.32432 Q126.663483 26.124319 123.423485 25.48432 Q123.223488 25.444321 122.783485 25.444321 Q120.863487 25.444321 119.403488 26.40432 Q117.943481 27.364319 117.143486 28.884319 Q116.343483 30.24432 115.463486 33.724319 Q114.743484 36.604321 114.743484 37.92432 Q114.743484 41.724319 118.743484 41.724319 Q119.223488 41.724319 119.463486 41.684319 Q122.543488 41.164318 124.423485 38.08432 Q125.183487 36.76432 125.943481 34.324318 Q126.663483 32.044319 126.663483 30.32432 L126.663483 30.32432 Z" fill="rgba(0,0,0,1)" fill-rule="evenodd" stroke="none"/><path d="M136.001892 16.032318 Q135.217896 16.032318 134.769897 15.528318 Q134.321884 15.024319 134.321884 14.296319 Q134.321884 12.280318 135.847885 10.838318 Q137.373886 9.396318 139.501892 9.396318 Q141.909897 9.396318 143.491898 10.698318 Q145.073883 12.000319 145.437897 14.100319 Q145.493896 14.604319 145.493896 15.024319 Q145.493896 16.648319 144.513885 18.076319 Q143.729889 19.252319 141.349884 21.296318 Q140.341888 22.164318 138.549896 23.872318 L136.897888 25.440319 L139.025894 25.468319 Q143.42189 25.468319 143.701889 25.32832 Q143.813889 25.30032 143.981888 24.740318 Q144.093887 24.43232 144.373886 22.836319 L144.373886 22.752319 L145.493896 22.752319 L145.493896 22.836319 L144.709885 27.96032 L144.709885 28.044319 L134.321884 28.044319 L134.321884 27.51232 Q134.321884 26.95232 134.377884 26.868319 Q134.405884 26.812319 136.729889 24.208319 Q139.781891 20.820318 140.649887 19.728319 Q142.525894 17.180319 142.525894 15.052319 Q142.525894 13.204319 141.559891 11.958319 Q140.593887 10.712318 138.857895 10.712318 Q137.233887 10.712318 136.225891 12.168319 Q136.169891 12.280318 136.057892 12.476318 Q135.973892 12.616319 135.973892 12.644319 Q135.973892 12.672318 136.113892 12.672318 Q136.813889 12.672318 137.247894 13.176319 Q137.681885 13.680319 137.681885 14.352319 Q137.681885 15.052319 137.219894 15.542318 Q136.757889 16.032318 136.001892 16.032318 L136.001892 16.032318 Z" fill="rgba(0,0,0,1)" fill-rule="evenodd" stroke="none"/><path d="M111.432487 76.76432 Q110.672485 76.76432 110.172485 76.344322 Q109.672485 75.924316 109.672485 75.204323 Q109.672485 74.804321 109.832489 74.284317 Q110.432487 72.124321 111.892487 70.664322 Q113.352486 69.204323 115.392487 68.684319 Q116.392487 68.484322 116.672485 68.484322 L117.152481 68.484322 Q118.472488 68.484322 118.712486 68.524323 Q122.032486 69.124321 124.012482 71.90432 Q125.992485 74.684319 125.992485 78.804321 Q125.992485 81.164322 125.112488 84.444321 Q123.032486 91.684319 119.432487 94.964317 Q116.19249 97.964317 112.272484 97.964317 Q110.152489 97.964317 108.752487 97.224319 Q107.352486 96.484322 106.272484 94.844322 Q105.392487 93.564323 105.112488 92.164322 Q105.032486 91.804321 105.032486 90.724319 Q105.032486 89.444321 105.272484 88.484322 Q106.192482 84.364319 109.192482 81.644318 Q111.912483 79.164322 114.552483 78.644318 Q115.312485 78.484322 116.232483 78.484322 Q117.432487 78.484322 118.232483 78.76432 Q120.872482 79.684319 121.552483 82.40432 L121.672485 81.964317 Q122.472488 78.644318 122.472488 76.484322 Q122.472488 71.884323 119.312485 70.484322 Q118.232483 70.044319 117.112488 70.044319 Q115.592484 70.044319 114.312485 70.76432 Q113.032486 71.484322 112.272484 72.604324 Q113.912483 72.884323 113.912483 74.204323 Q113.912483 75.284317 113.172485 76.024323 Q112.432487 76.76432 111.432487 76.76432 L111.432487 76.76432 Z M120.552483 84.844322 Q120.552483 80.644318 117.312485 80.004318 Q117.112488 79.964325 116.672485 79.964325 Q114.752487 79.964325 113.292488 80.924316 Q111.832489 81.884323 111.032486 83.40432 Q110.232483 84.76432 109.352486 88.244324 Q108.632484 91.124321 108.632484 92.444321 Q108.632484 96.244324 112.632484 96.244324 Q113.112488 96.244324 113.352486 96.204323 Q116.432487 95.684319 118.312485 92.604317 Q119.072487 91.284317 119.832489 88.844322 Q120.552483 86.564323 120.552483 84.844322 L120.552483 84.844322 Z" fill="rgba(0,0,0,1)" fill-rule="evenodd" stroke="none"/><path d="M129.98848 94.364319 Q129.98848 96.044319 131.068481 96.044319 Q131.34848 96.044319 131.548492 96.004318 Q133.548492 95.644318 135.188492 92.804321 Q135.588486 92.164322 135.908478 91.324318 Q135.98848 91.08432 136.10849 91.024323 Q136.228485 90.964317 136.708481 90.964317 Q137.508484 90.964317 137.508484 91.284317 Q137.508484 91.364319 137.34848 91.76432 Q136.908478 93.044319 135.928482 94.344322 Q134.948486 95.644318 133.948486 96.40432 Q132.468491 97.524323 130.788483 97.524323 Q129.34848 97.524323 128.328491 96.784317 Q127.308487 96.044319 126.948486 94.844322 Q126.868484 94.524323 126.868484 93.76432 L126.868484 93.044319 L128.268478 87.444321 Q129.668488 81.804321 129.708481 81.76432 Q129.708481 81.684319 127.668488 81.684319 L125.628487 81.684319 Q125.388489 81.444321 125.368484 81.364319 Q125.348488 81.284317 125.468483 80.684319 Q125.628487 80.124321 125.668488 80.08432 Q125.748489 79.884323 126.048485 79.864319 Q126.348488 79.844322 128.068481 79.844322 L130.188492 79.844322 L130.948486 76.644318 Q131.788483 73.40432 131.908478 73.164322 Q132.388489 72.044319 133.748489 72.044319 Q134.268478 72.08432 134.648483 72.40432 Q135.028488 72.724319 135.028488 73.244324 Q135.028488 73.724319 134.268478 76.644318 Q134.10849 77.324318 133.888489 78.144318 Q133.668488 78.964325 133.548492 79.364319 L133.468491 79.76432 Q133.468491 79.844322 135.468491 79.844322 L137.508484 79.844322 Q137.748489 80.08432 137.768478 80.184319 Q137.788483 80.284317 137.668488 80.924316 Q137.548492 81.40432 137.268478 81.684319 L132.98848 81.684319 L131.548492 87.484322 Q130.068481 93.444321 130.028488 93.76432 Q129.98848 93.964317 129.98848 94.364319 L129.98848 94.364319 Z" fill="rgba(0,0,0,1)" fill-rule="evenodd" stroke="none"/><path d="M142.112885 73.512321 Q141.328888 73.512321 140.88089 73.008324 Q140.432877 72.504318 140.432877 71.776321 Q140.432877 69.760323 141.958878 68.318321 Q143.484879 66.87632 145.612885 66.87632 Q148.020889 66.87632 149.60289 68.178322 Q151.184875 69.480324 151.548889 71.580322 Q151.604889 72.08432 151.604889 72.504318 Q151.604889 74.128326 150.624878 75.55632 Q149.840881 76.732323 147.460876 78.776321 Q146.452881 79.644325 144.660889 81.352325 L143.008881 82.920319 L145.136887 82.948326 Q149.532883 82.948326 149.812881 82.808319 Q149.924881 82.780319 150.09288 82.220322 Q150.20488 81.912323 150.484879 80.316322 L150.484879 80.232323 L151.604889 80.232323 L151.604889 80.316322 L150.820877 85.440323 L150.820877 85.524323 L140.432877 85.524323 L140.432877 84.992325 Q140.432877 84.43232 140.488876 84.34832 Q140.516876 84.29232 142.840881 81.688324 Q145.892883 78.300323 146.76088 77.208321 Q148.636887 74.660324 148.636887 72.532318 Q148.636887 70.684326 147.670883 69.438324 Q146.70488 68.192322 144.968887 68.192322 Q143.344879 68.192322 142.336884 69.648323 Q142.280884 69.760323 142.168884 69.956322 Q142.084885 70.096321 142.084885 70.124321 Q142.084885 70.152321 142.224884 70.152321 Q142.924881 70.152321 143.358887 70.656326 Q143.792877 71.160324 143.792877 71.832321 Q143.792877 72.532318 143.330887 73.022324 Q142.868881 73.512321 142.112885 73.512321 L142.112885 73.512321 Z" fill="rgba(0,0,0,1)" fill-rule="evenodd" stroke="none"/><rect x="103.352489" y="58.84432" width="49.6804" height="1.6" fill="rgba(0,0,0,1)"/><path d="M176.610667 12.24353 L176.610667 35.64392 L176.610667 83.64472 L176.610667 107.04511 C176.717347 107.445117 176.997347 107.64512 177.450667 107.64512 C177.850667 107.64512 178.117347 107.445117 178.250667 107.04511 L178.250667 83.64472 L178.250667 35.64392 L178.250667 12.24353 C178.143987 11.843523 177.863987 11.64352 177.410667 11.64352 C177.010667 11.64352 176.743987 11.843523 176.610667 12.24353 Z" fill="rgba(0,0,0,1)" fill-rule="nonzero" stroke="none"/><path d="M178.330667 12.24353 L176.610667 12.24353 L176.610667 35.64392 L176.610667 83.64472 L176.610667 107.04511 L178.330667 107.04511 Z" fill="rgba(0,0,0,1)" fill-rule="nonzero" stroke="none"/><path d="M198.801773 42.324318 Q198.841782 42.324318 201.701782 42.104317 Q204.561768 41.884315 204.601776 41.884315 Q205.081772 41.884315 205.081772 42.244316 Q205.081772 42.564316 203.681778 48.104317 Q202.281769 53.644318 202.281769 53.684319 Q202.281769 53.804317 202.521774 53.564316 Q203.881775 52.444321 205.561768 52.044319 Q206.041779 51.964317 206.561768 51.964317 Q207.081772 51.964317 207.561768 52.044319 Q209.641769 52.524319 210.881775 54.204319 Q212.12178 55.884319 212.12178 58.444317 Q212.12178 62.924316 208.981781 66.504318 Q205.841782 70.08432 202.161774 70.08432 Q201.00177 70.08432 199.961777 69.564316 Q196.841782 68.164314 196.841782 63.644318 Q196.841782 62.484318 197.081772 61.364319 Q197.081772 61.324318 199.081772 53.164318 L201.12178 45.004318 Q201.201782 44.444321 200.861771 44.304317 Q200.521774 44.164318 199.721771 44.164318 Q199.441772 44.164318 199.281769 44.164318 Q198.441772 44.164318 198.321777 44.044319 Q198.081772 43.844318 198.281769 43.08432 Q198.441772 42.524319 198.561783 42.444321 Q198.681778 42.324318 198.801773 42.324318 L198.801773 42.324318 Z M208.681778 56.644318 Q208.681778 53.444321 206.241776 53.444321 Q206.161774 53.444321 205.981781 53.464317 Q205.801773 53.484318 205.76178 53.484318 Q203.681778 53.924316 201.841782 56.364319 Q201.76178 56.444317 201.641769 56.604317 L201.521774 56.764317 Q201.521774 56.804317 200.821777 59.624317 Q200.12178 62.444317 200.041779 62.844318 Q199.801773 64.08432 199.801773 65.08432 Q199.801773 67.004318 200.76178 67.964317 Q201.401779 68.604317 202.361771 68.604317 Q203.681778 68.604317 205.041779 67.324318 Q206.041779 66.40432 206.661774 65.064316 Q207.281769 63.724319 207.961777 60.884315 Q208.681778 58.004318 208.681778 56.644318 L208.681778 56.644318 Z" fill="rgba(0,0,0,1)" fill-rule="evenodd" stroke="none"/><path d="M234.768585 59.644318 Q234.768585 59.564316 225.468582 36.384319 Q216.168579 13.204319 216.168579 12.684319 Q216.168579 12.604321 216.208588 12.524319 Q216.608582 11.644318 217.408585 11.644318 Q218.048584 11.644318 218.488586 12.24432 Q218.568588 12.40432 227.928589 35.844318 L237.328583 59.284317 L237.328583 59.964317 L227.928589 83.444321 Q218.52858 106.964317 218.488586 107.004318 Q218.168579 107.604317 217.408585 107.604317 Q216.208588 107.604317 216.208588 106.404312 L216.208588 106.044312 L225.488586 82.884315 Q234.768585 59.764317 234.768585 59.644318 L234.768585 59.644318 Z" fill="rgba(0,0,0,1)" fill-rule="evenodd" stroke="none"/></svg>