<svg xmlns="http://www.w3.org/2000/svg" viewBox="0 0 81.6232 52.5776" width="81.6232" height="52.5776"><path d="M15.48 43.017597 Q13.68 43.017597 12.6 41.997597 Q11.52 40.9776 11.52 39.177597 Q11.52 38.697598 11.559999 38.497597 L16.68 17.937599 Q16.719999 17.817598 16.68 17.697599 Q16.639999 17.577599 16.639999 17.497599 Q16.639999 17.417599 16.559999 17.357599 Q16.48 17.2976 16.42 17.257599 Q16.360001 17.2176 16.24 17.197599 Q16.119999 17.177599 16.040001 17.157598 Q15.96 17.1376 15.78 17.117599 Q15.6 17.097599 15.5 17.097599 Q15.4 17.097599 15.2 17.097599 Q15 17.097599 14.88 17.097599 Q13.92 17.097599 13.76 16.817598 Q13.72 16.697599 13.84 16.1376 Q14.04 15.3776 14.2 15.2976 Q14.32 15.257599 17.18 15.0376 Q20.040001 14.817598 20.16 14.817598 Q20.639999 14.817598 20.639999 15.1376 Q20.639999 15.577599 17.719999 27.1376 Q14.799999 38.697598 14.719999 39.257599 Q14.719999 39.337597 14.7 39.597599 Q14.68 39.857597 14.68 39.9776 Q14.68 41.1376 15.24 41.4576 Q15.4 41.537598 15.719999 41.517597 Q16.040001 41.497597 16.200001 41.417599 Q17.32 40.777599 18.200001 37.337601 Q18.439999 36.537598 18.599998 36.497597 Q18.68 36.4576 19 36.4576 L19.16 36.4576 Q19.880001 36.6576 19.92 36.8176 Q19.92 37.097599 19.599998 38.197598 Q19.279999 39.2976 19 39.937599 Q17.879999 42.537598 16.119999 42.937599 Q15.719999 43.017597 15.48 43.017597 L15.48 43.017597 Z" fill="rgba(0,0,0,1)" fill-rule="evenodd" stroke="none"/><path d="M30.082401 18.577599 Q30.082401 17.657598 30.8424 16.897598 Q31.602402 16.1376 32.602402 16.1376 Q33.322399 16.1376 33.822399 16.617599 Q34.322399 17.097599 34.322399 17.817598 Q34.322399 18.697599 33.5224 19.497599 Q32.722401 20.2976 31.762402 20.2976 Q31.0424 20.2976 30.562401 19.817598 Q30.082401 19.337599 30.082401 18.577599 L30.082401 18.577599 Z M29.642401 27.377598 Q29.642401 26.417599 28.9624 26.417599 L28.882401 26.417599 Q27.922401 26.417599 27.0424 27.337599 Q25.762402 28.657598 25.162401 31.097599 Q25.162401 31.1376 25.1224 31.237598 Q25.082401 31.337599 25.062401 31.357599 Q25.0424 31.377598 25.002401 31.417599 Q24.9624 31.4576 24.8624 31.4576 Q24.762402 31.4576 24.6824 31.4576 Q24.6024 31.4576 24.3624 31.4576 L23.802401 31.4576 Q23.482401 31.1376 23.6824 30.537598 Q24.722401 27.097599 26.722401 25.737598 Q27.802401 24.897598 29.0424 24.897598 Q30.642401 24.897598 31.6824 25.817598 Q32.722401 26.737598 32.722401 28.2976 Q32.722401 28.8176 32.5224 29.497599 Q32.482399 29.577599 30.6824 34.417599 L28.882401 39.257599 Q28.6824 40.1376 28.6824 40.537598 Q28.6824 41.537598 29.3624 41.537598 Q29.922401 41.537598 30.3624 41.2976 Q32.122398 40.4576 33.122398 37.097599 Q33.242401 36.617599 33.3424 36.537598 Q33.442398 36.4576 34.002399 36.4576 Q34.562401 36.4576 34.642403 36.537598 Q34.882401 36.697598 34.6824 37.377598 Q33.922401 39.6576 32.502399 41.337597 Q31.082401 43.017597 29.162401 43.017597 Q27.642401 43.017597 26.662401 42.077599 Q25.6824 41.1376 25.6824 39.617599 Q25.6824 38.937599 25.762402 38.697598 Q25.802401 38.617599 27.6224 33.757599 Q29.4424 28.897598 29.4424 28.8176 Q29.642401 28.177599 29.642401 27.377598 L29.642401 27.377598 Z" fill="rgba(0,0,0,1)" fill-rule="evenodd" stroke="none"/><path d="M40.8228 43.017597 Q40.262798 43.017597 39.862801 42.717598 Q39.462799 42.417599 39.462799 41.897598 Q39.462799 41.377598 41.0028 35.277599 Q42.542801 29.177599 42.542801 28.897598 Q42.6628 28.2976 42.6628 27.8176 Q42.6628 26.3776 41.6628 26.3776 Q41.262798 26.3776 40.862801 26.657598 Q39.902802 27.417599 38.942799 31.097599 Q38.942799 31.1376 38.902802 31.237598 Q38.862801 31.337599 38.8428 31.357599 Q38.8228 31.377598 38.782799 31.417599 Q38.742802 31.4576 38.642799 31.4576 Q38.542801 31.4576 38.462799 31.4576 Q38.382801 31.4576 38.142799 31.4576 L37.582802 31.4576 Q37.3428 31.217598 37.3428 31.097599 Q37.3428 30.577599 37.902802 29.097599 Q38.702801 26.777599 39.6628 25.857599 Q40.622799 24.897598 41.782799 24.897598 Q44.302799 24.897598 45.302799 26.697598 Q45.742798 27.4576 45.742798 27.8176 Q45.742798 27.897598 45.782799 27.897598 L46.222801 27.4576 Q48.6628 24.897598 51.862801 24.897598 Q55.742798 24.897598 56.542801 28.177599 L56.582802 28.2976 L56.902802 27.897598 Q58.382797 26.137598 60.3428 25.337599 Q61.582802 24.897598 62.862801 24.897598 Q65.062798 24.897598 66.382797 25.977598 Q67.702797 27.057598 67.702797 29.1376 Q67.702797 30.057598 67.582802 30.657598 Q67.222801 32.697598 65.382797 37.737598 Q64.662796 39.6576 64.662796 40.577599 Q64.702797 41.1376 64.862801 41.337597 Q65.022797 41.537598 65.462799 41.537598 Q66.582802 41.537598 67.562798 40.3176 Q68.542801 39.097599 69.102798 37.057598 Q69.222794 36.617599 69.3228 36.537598 Q69.422798 36.4576 69.982803 36.4576 Q70.782799 36.4576 70.782799 36.737598 Q70.782799 37.017597 70.622803 37.377598 Q69.582794 41.097599 66.862801 42.617599 Q66.142799 42.9776 65.142799 42.9776 Q63.622799 42.9776 62.542801 42.017597 Q61.582802 40.897598 61.582802 39.6576 Q61.582802 38.897598 62.142799 37.417599 Q63.902802 32.737598 64.382797 30.2976 Q64.5028 29.697598 64.5028 28.777599 Q64.5028 26.417599 62.542801 26.417599 Q61.8228 26.417599 61.5028 26.497599 Q58.702797 27.097599 56.742798 30.4576 L56.462799 30.937599 L55.142799 36.2976 Q53.8228 41.537598 53.622799 41.937599 Q53.102798 43.017597 51.902802 43.017597 Q50.942799 43.017597 50.622799 42.217598 L50.5028 41.857597 Q50.5028 41.417599 51.862801 36.1376 Q52.1828 34.857597 52.5228 33.4776 Q52.862801 32.097599 53.082802 31.237598 Q53.302799 30.377598 53.302799 30.2976 Q53.422798 29.697598 53.422798 28.777599 Q53.422798 26.417599 51.462799 26.417599 Q50.742798 26.417599 50.422798 26.497599 Q47.622799 27.097599 45.6628 30.4576 L45.382801 30.937599 L44.062801 36.2976 Q42.742798 41.537598 42.542801 41.937599 Q42.0228 43.017597 40.8228 43.017597 L40.8228 43.017597 Z" fill="rgba(0,0,0,1)" fill-rule="evenodd" stroke="none"/><rect x="10" y="10" width="61.6232" height="1.6" fill="rgba(0,0,0,1)"/></svg>