<svg xmlns="http://www.w3.org/2000/svg" viewBox="0 0 54.4276 47.3332" width="54.4276" height="47.3332"><path d="M31.6 9.173199 L32.080002 9.173199 Q33.239998 9.173199 33.799999 9.253199 Q37.32 9.773199 39.419998 12.593199 Q41.519997 15.413198 41.519997 19.573198 Q41.519997 22.453197 40.48 25.413198 Q39.080002 29.533199 35.919998 32.9132 Q32.760002 36.293198 28.84 37.5732 Q26.959999 38.2132 25.08 38.2132 Q21.360001 38.2132 18.84 35.693199 Q15.96 32.813198 15.96 27.853199 Q15.96 22.853199 18.619999 18.433199 Q21.279999 14.013199 25.040001 11.573198 Q28.199999 9.493198 31.6 9.173199 L31.6 9.173199 Z M37.639999 18.1332 Q37.639999 14.8932 36.199997 12.753199 Q34.760002 10.613199 32.040001 10.613199 Q28.24 10.613199 24.68 14.853199 Q21.599998 18.773199 20.32 25.013199 Q19.84 27.293198 19.84 29.253199 Q19.84 32.093201 20.880001 33.953197 Q21.92 35.813198 23.880001 36.453197 Q24.639999 36.693199 25.48 36.693199 Q28.76 36.693199 31.799999 33.653198 Q35.48 29.973198 37.080002 22.813198 Q37.639999 20.413198 37.639999 18.1332 L37.639999 18.1332 Z M32.360001 26.293198 Q32.360001 26.2132 32.439999 25.813198 L32.519997 25.373199 Q32.519997 25.333199 28.32 25.333199 L24.119999 25.333199 L24 25.8932 Q23.84 26.453197 23.599998 26.693199 L23 26.693199 Q22.08 26.693199 22.08 26.333199 Q22.08 26.2132 22.68 23.5732 Q22.799999 23.093199 22.92 22.653198 Q23.040001 22.2132 23.099998 21.953197 Q23.16 21.693199 23.219999 21.473198 Q23.279999 21.253199 23.32 21.153198 Q23.360001 21.0532 23.380001 20.9732 Q23.4 20.893198 23.439999 20.813198 L23.52 20.733198 L23.639999 20.613199 L24.24 20.613199 Q24.799999 20.613199 24.98 20.673199 Q25.16 20.733198 25.16 21.013199 Q25.16 21.093199 25.08 21.493198 L25 21.933199 Q25 21.973198 29.199999 21.973198 L33.400002 21.973198 L33.519997 21.413198 Q33.68 20.853199 33.919998 20.613199 L34.519997 20.613199 Q35.439999 20.613199 35.439999 20.9732 Q35.439999 21.093199 34.84 23.7332 Q34.720001 24.2132 34.599998 24.653198 Q34.48 25.093199 34.419998 25.353199 Q34.360001 25.613199 34.299999 25.833199 Q34.239998 26.0532 34.199997 26.153198 Q34.16 26.253199 34.139999 26.333199 Q34.119999 26.413198 34.080002 26.493198 L34 26.573198 L33.879997 26.693199 L33.279999 26.693199 Q32.720001 26.693199 32.540001 26.633198 Q32.360001 26.573198 32.360001 26.293198 L32.360001 26.293198 Z" fill="rgba(0,0,0,1)" fill-rule="evenodd" stroke="none"/></svg>