<svg xmlns="http://www.w3.org/2000/svg" viewBox="0 0 124.9292 47.3332" width="124.9292" height="47.3332"><path d="M10 37.3332 L114.9292 10 M10 10 L114.9292 37.3332" fill="none" stroke="rgba(0,0,0,1)" stroke-width="1.5" stroke-linecap="round" stroke-linejoin="round"/><path d="M36.040001 37.333199 Q35.360001 37.333199 33.880001 37.293198 Q32.400002 37.253197 31.639999 37.253197 Q28.799999 37.253197 28 37.333199 L27.68 37.333199 Q27.440001 37.093197 27.42 36.993198 Q27.4 36.8932 27.52 36.253197 Q27.68 35.7332 27.76 35.613197 L27.92 35.493198 L28.48 35.493198 Q31.279999 35.373199 32.560001 33.493198 Q32.799999 33.253197 39.82 21.273199 Q46.84 9.2932 46.919998 9.173199 Q47.119999 8.8132 47.299999 8.753199 Q47.48 8.693199 48.199997 8.693199 L48.879997 8.693199 Q49.119999 9.0532 49.119999 9.093199 L50.239998 22.013199 Q51.360001 34.933197 51.439999 35.0532 Q51.639999 35.493198 54.040001 35.493198 Q54.879997 35.493198 55 35.773197 Q55.040001 35.933197 54.919998 36.453197 Q54.799999 37.0532 54.699997 37.193199 Q54.599998 37.333199 54.16 37.333199 Q53.439999 37.333199 51.779999 37.293198 Q50.119999 37.253197 49.119999 37.253197 Q45.360001 37.253197 44.199997 37.333199 L43.720001 37.333199 Q43.48 37.093197 43.459999 36.993198 Q43.440002 36.8932 43.559998 36.253197 Q43.720001 35.7332 43.799999 35.613197 L43.959999 35.493198 L44.760002 35.493198 Q46.919998 35.4132 47.32 34.813198 L46.84 28.813198 L37.32 28.813198 L35.959999 31.133198 Q34.52 33.533199 34.48 33.7332 Q34.32 34.0532 34.32 34.333199 Q34.32 35.333199 36.16 35.493198 Q36.919998 35.493198 36.919998 35.8932 Q36.919998 36.093197 36.799999 36.453197 Q36.68 37.013199 36.559998 37.173199 Q36.439999 37.333199 36.040001 37.333199 L36.040001 37.333199 Z M46.639999 26.933199 Q45.799999 15.0532 45.599998 14.853199 L44.52 16.573198 Q43.879997 17.653198 42 20.853199 L38.400002 26.933199 L42.52 26.973198 Q46.639999 26.973198 46.639999 26.933199 L46.639999 26.933199 Z" fill="rgba(0,0,0,1)" fill-rule="evenodd" stroke="none"/><path d="M67.519997 12.2132 Q67.519997 12.173199 67.479996 12.113199 Q67.440002 12.0532 67.360001 12.033199 Q67.279999 12.013199 67.199997 11.9732 Q67.120003 11.933199 66.959999 11.913198 Q66.800003 11.8932 66.68 11.8932 Q66.559998 11.8932 66.360001 11.8932 Q66.160004 11.8932 66.019997 11.873199 Q65.879997 11.853199 65.639999 11.853199 Q65.400002 11.853199 65.239998 11.853199 Q64.279999 11.853199 64.080002 11.8132 Q63.880001 11.773199 63.799999 11.573198 Q63.720001 11.453199 63.84 10.853199 Q64.040001 10.1332 64.199997 10.0532 Q64.239998 10.013199 69.400002 10.013199 Q79.760002 10.013199 80.32 10.093199 Q83.080002 10.493198 84.639999 12.013199 Q86.239998 13.533199 86.239998 15.573198 Q86.239998 16.9732 85.479996 18.2932 Q84.599998 19.893198 82.660004 21.193199 Q80.720001 22.493198 78.599998 22.933199 L78.199997 23.0532 Q80.839996 23.413198 82.459999 24.8932 Q84.080002 26.373199 84.080002 28.573198 Q84.080002 31.453199 81.440002 33.973198 Q78.360001 36.933197 74.119995 37.293198 Q73.839996 37.333199 65.68 37.333199 Q57.68 37.333199 57.560001 37.253197 Q57.279999 37.093197 57.48 36.373199 Q57.48 36.333199 57.52 36.2132 Q57.720001 35.5732 57.959999 35.533199 Q58.080002 35.493198 58.48 35.493198 L58.720001 35.493198 Q59.799999 35.493198 61.119999 35.373199 Q61.68 35.253197 61.880001 34.8932 Q62 34.7332 64.760002 23.773199 Q67.519997 12.8132 67.519997 12.2132 L67.519997 12.2132 Z M81.959999 15.573198 Q81.959999 14.2132 81.260002 13.253199 Q80.559998 12.2932 79.400002 11.9732 Q79.119995 11.8932 75.720001 11.853199 Q74.919998 11.853199 74.040001 11.873199 Q73.160004 11.8932 72.639999 11.8932 L72.119995 11.8932 Q71.559998 11.933199 71.400002 12.173199 Q71.32 12.2932 68.800003 22.373199 L72.040001 22.373199 Q75.279999 22.373199 75.760002 22.293198 Q77.400002 22.013199 78.860001 20.993198 Q80.32 19.9732 81.119995 18.533199 Q81.959999 17.013199 81.959999 15.573198 L81.959999 15.573198 Z M79.800003 28.173199 Q79.800003 26.413198 78.860001 25.253199 Q77.919998 24.093199 76.479996 23.8932 Q76.239998 23.853199 73.160004 23.853199 Q68.440002 23.853199 68.400002 23.8932 Q68.400002 23.973198 67.699997 26.813198 Q67 29.653198 66.32 32.453197 L65.599998 35.253197 Q65.599998 35.4132 66.080002 35.433197 Q66.559998 35.453197 69.32 35.493198 Q72.879997 35.493198 73.160004 35.453197 Q75.760002 35.173199 77.779999 33.133198 Q79.800003 31.093199 79.800003 28.173199 L79.800003 28.173199 Z" fill="rgba(0,0,0,1)" fill-rule="evenodd" stroke="none"/><path d="M112.380402 18.093199 Q112.380402 14.773199 110.920403 12.873199 Q109.460403 10.9732 106.740402 10.9732 Q104.620399 10.9732 102.140396 11.9732 Q97.820404 13.8132 95.380402 18.173199 Q93.180397 22.0532 92.620399 27.293198 Q92.580399 27.613199 92.580399 28.453197 Q92.580399 32.013199 94.380402 33.993198 Q96.180405 35.973198 99.540398 36.333199 Q99.820404 36.373199 100.340401 36.373199 Q101.860397 36.373199 103.6604 35.693199 Q106.020401 34.7332 107.940399 32.533199 Q109.860397 30.333199 110.580399 27.7332 Q110.740402 27.2132 110.840401 27.133198 Q110.940399 27.0532 111.460403 27.0532 Q112.3004 27.0532 112.3004 27.373199 Q112.3004 27.453197 112.220398 27.773199 Q111.260399 31.333199 108.380402 34.173199 Q105.500397 37.013199 101.900398 37.853199 Q100.500397 38.2132 99.100403 38.2132 Q94.9804 38.2132 92.180397 35.873199 Q89.380402 33.533199 88.620399 29.853199 Q88.340401 28.693199 88.340401 27.253199 Q88.340401 22.453197 91.340401 17.933199 Q93.140404 15.173199 95.780403 13.0532 Q98.420403 10.933199 101.620399 9.8932 Q103.9804 9.173199 105.940399 9.173199 Q107.380402 9.173199 107.620399 9.2132 Q110.020401 9.613199 111.6604 11.2132 Q111.740402 11.2932 111.9804 11.613199 Q112.220398 11.933199 112.400398 12.173199 Q112.580399 12.413198 112.620399 12.413198 Q112.740402 12.413198 113.700401 11.373199 L115.340401 9.7332 L115.940399 9.1332 L116.180405 9.1332 Q116.740402 9.1332 116.740402 9.413198 Q116.740402 9.7332 115.420403 14.9732 Q114.100403 20.2132 114.020401 20.493198 Q113.940399 20.693199 113.820404 20.753199 Q113.700401 20.813198 113.100403 20.813198 L112.460403 20.813198 Q112.260399 20.613199 112.240402 20.5532 Q112.220398 20.493198 112.3004 19.853199 Q112.380402 19.0532 112.380402 18.093199 L112.380402 18.093199 Z" fill="rgba(0,0,0,1)" fill-rule="evenodd" stroke="none"/></svg>