<svg xmlns="http://www.w3.org/2000/svg" viewBox="0 0 399.631098 240.54088" width="399.631098" height="240.54088"><path d="M38.48 10.040001 L38.720001 10.280003 L38.720001 10.959999 Q38.720001 11.720001 38.68 11.760002 Q38.439999 12 38.16 12.16 Q35.080002 14.280001 33.059998 17.620001 Q31.039999 20.960001 30.4 25 Q30.4 25.040001 30.359999 25.16 Q30.199999 26.280001 30.16 32.040001 Q30.16 32.240002 30.16 32.639999 Q30.16 34.919998 30.16 36.400002 Q30.16 46.080002 30.119999 46.16 Q30.08 46.32 29.76 46.360001 Q29.439999 46.400002 27.76 46.400002 Q25.68 46.400002 25.599998 46.360001 Q25.48 46.32 25.439999 46.200001 Q25.360001 45.68 25.360001 36.799999 Q25.360001 27.32 25.4 26.960001 Q25.880001 19.480001 31.84 13.720001 Q33.84 11.84 36.559998 10.32 L37.080002 10.040001 L38.48 10.040001 L38.48 10.040001 Z" fill="rgba(0,0,0,1)" fill-rule="evenodd" stroke="none"/><path d="M25.36 45.6804 L30.16 45.6804 L30.16 84.59004 L25.36 84.59004 Z" fill="rgba(0,0,0,1)" fill-rule="nonzero" stroke="none"/><path d="M25.559999 83.910034 Q25.639999 83.870041 28.199999 83.870041 Q29.84 83.870041 29.92 83.910034 Q30.039999 83.950035 30.08 84.070038 Q30.16 84.550034 30.16 93.310036 Q30.16 102.630035 30.119999 102.990036 Q29.68 109.270035 25.84 114.350037 Q23.279999 117.710037 19.16 120.270035 Q19.4 120.430038 19.719999 120.630035 Q24.92 123.830032 27.68 129.070038 Q29.84 133.070038 30.119999 137.550034 Q30.16 137.910034 30.16 147.230042 Q30.16 154.270035 30.139999 155.450043 Q30.119999 156.630035 29.959999 156.630035 L29.92 156.630035 L29.6 156.670029 Q29.24 156.670029 28.74 156.670029 Q28.24 156.670029 27.76 156.670029 Q27.279999 156.670029 26.779999 156.670029 Q26.279999 156.670029 25.92 156.670029 L25.599998 156.630035 Q25.48 156.590027 25.439999 156.470032 Q25.360001 155.990036 25.360001 147.270035 Q25.360001 137.910034 25.32 137.430038 Q24.68 126.910034 17.32 121.430038 Q16.84 121.070038 16.84 120.990036 L16.799999 120.870033 Q16.799999 120.750038 16.799999 120.590034 Q16.799999 120.430038 16.799999 120.270035 Q16.799999 120.110031 16.799999 119.950035 Q16.799999 119.790039 16.799999 119.670036 L16.84 119.550034 Q16.84 119.470032 17.32 119.110031 Q20.880001 116.430038 22.959999 112.310036 Q25.040001 108.190033 25.32 103.110031 Q25.360001 102.630035 25.360001 93.270035 Q25.360001 84.190033 25.4 84.070038 L25.559999 83.910034 L25.559999 83.910034 Z" fill="rgba(0,0,0,1)" fill-rule="evenodd" stroke="none"/><path d="M25.36 155.95084 L30.16 155.95084 L30.16 194.86048 L25.36 194.86048 Z" fill="rgba(0,0,0,1)" fill-rule="nonzero" stroke="none"/><path d="M38.720001 230.260483 L38.48 230.500488 L37.080002 230.500488 L36.639999 230.260483 Q30.4 226.900482 27.359999 220.740479 Q25.639999 217.300476 25.4 213.580475 Q25.360001 213.180481 25.360001 205.82048 Q25.360001 194.420486 25.4 194.340485 L25.559999 194.180481 Q25.68 194.140488 27.76 194.140488 Q29.439999 194.140488 29.76 194.180481 Q30.08 194.220474 30.119999 194.380478 Q30.16 194.46048 30.16 204.100479 Q30.199999 213.900482 30.24 214.380478 Q30.559999 216.980484 31.199999 218.900482 Q33.16 224.940475 38.16 228.380478 Q38.439999 228.540482 38.68 228.780487 Q38.720001 228.82048 38.720001 229.580475 L38.720001 230.260483 L38.720001 230.260483 Z" fill="rgba(0,0,0,1)" fill-rule="evenodd" stroke="none"/><path d="M67.395599 21.613199 Q67.395599 21.453199 67.595604 21.333199 L96.795601 21.333199 Q96.995605 21.453199 96.995605 21.613199 Q96.995605 21.693199 90.215607 35.613197 Q83.4356 49.533199 83.315605 49.693199 Q83.115601 49.973198 82.195602 49.973198 Q81.275604 49.973198 81.0756 49.693199 Q80.955605 49.533199 74.175606 35.613197 Q67.395599 21.693199 67.395599 21.613199 L67.395599 21.613199 Z M93.4356 24.813198 Q93.4356 24.773199 83.355606 24.773199 Q73.275604 24.773199 73.275604 24.813198 Q73.355606 25.013199 78.335602 35.2332 Q83.315605 45.453197 83.355606 45.453197 Q93.355606 24.973198 93.4356 24.813198 L93.4356 24.813198 Z" fill="rgba(0,0,0,1)" fill-rule="evenodd" stroke="none"/><path d="M113.338089 41.0532 Q112.298088 41.0532 111.598091 40.333199 Q110.898094 39.613197 110.898094 38.653198 Q110.898094 37.773197 111.438095 37.133198 Q111.978088 36.493198 112.778091 36.293198 Q113.298088 36.133198 113.858093 36.293198 Q114.658089 36.453197 115.19809 37.133198 Q115.738091 37.813198 115.738091 38.613197 Q115.738091 39.653198 115.018089 40.353199 Q114.298088 41.0532 113.338089 41.0532 L113.338089 41.0532 Z" fill="rgba(0,0,0,1)" fill-rule="evenodd" stroke="none"/><path d="M139.258179 23.533199 Q139.258179 23.493198 139.21817 23.433199 Q139.178177 23.373199 139.098175 23.353199 Q139.018173 23.333199 138.938171 23.2932 Q138.85817 23.253199 138.698181 23.233198 Q138.538177 23.2132 138.418182 23.2132 Q138.298172 23.2132 138.098175 23.2132 Q137.898178 23.2132 137.758179 23.193199 Q137.618179 23.173199 137.378174 23.173199 Q137.138168 23.173199 136.97818 23.173199 Q135.618179 23.173199 135.498169 22.893198 Q135.458176 22.773199 135.578171 22.2132 Q135.778168 21.453199 135.938171 21.373199 Q136.018173 21.333199 143.898178 21.333199 Q150.578171 21.373199 151.378174 21.393198 Q152.178177 21.413198 152.97818 21.613199 Q156.138168 22.333199 158.018173 24.933199 Q159.898178 27.533199 159.898178 31.413198 Q159.898178 33.4132 159.418182 35.333199 Q158.298172 39.853199 154.738174 43.533199 Q150.698181 47.693199 145.538177 48.533199 L144.97818 48.613197 L137.21817 48.653198 L132.778168 48.653198 Q129.21817 48.653198 129.178177 48.453197 L129.178177 48.413197 Q129.098175 48.293198 129.21817 47.653198 Q129.378174 47.013199 129.518173 46.913197 Q129.658173 46.813198 130.458176 46.813198 Q131.538177 46.813198 132.85817 46.693199 Q133.418182 46.573196 133.618179 46.2132 Q133.738174 46.0532 136.498169 35.093201 Q139.258179 24.1332 139.258179 23.533199 L139.258179 23.533199 Z M155.898178 29.893198 Q155.898178 26.933199 154.338181 25.2132 Q152.778168 23.493198 149.97818 23.2132 Q149.898178 23.2132 149.418182 23.2132 Q148.938171 23.2132 148.238174 23.193199 Q147.538177 23.173199 146.938171 23.173199 Q146.338181 23.173199 145.638168 23.193199 Q144.938171 23.2132 144.458176 23.2132 Q143.97818 23.2132 143.938171 23.2132 Q143.418182 23.253199 143.21817 23.573198 Q143.138168 23.733198 140.298172 35.093201 Q137.458176 46.453197 137.458176 46.573196 Q137.458176 46.7332 137.918182 46.753197 Q138.378174 46.773197 140.97818 46.773197 Q144.21817 46.773197 144.618179 46.7332 Q148.418182 46.133198 151.018173 43.533199 Q152.458176 42.093197 153.378174 40.173199 Q154.298172 38.253197 155.098175 35.093201 Q155.898178 31.933199 155.898178 29.893198 L155.898178 29.893198 Z" fill="rgba(0,0,0,1)" fill-rule="evenodd" stroke="none"/><path d="M153.494578 10.8 C153.494578 10.58668 153.567898 10.4 153.714578 10.24 C153.714578 10.24 154.054578 10 154.294578 10 C154.481258 10 154.641258 10.06668 154.774578 10.2 C154.907898 10.30668 155.041258 10.56 155.174578 10.96 C155.441258 11.94668 155.987898 12.70668 156.814578 13.24 C157.107898 13.42668 157.254578 13.66668 157.254578 13.96 C157.254578 14.2 157.214578 14.36 157.134578 14.44 C157.134578 14.44 156.867898 14.64 156.574578 14.8 C155.427898 15.38668 154.427898 16.22668 153.574578 17.32 C153.521258 17.37332 153.447898 17.46 153.354578 17.58 C153.354578 17.58 153.194578 17.77332 153.154578 17.8 C153.114578 17.82668 153.054578 17.85332 152.974578 17.88 C152.974578 17.88 152.801258 17.92 152.694578 17.92 C152.507898 17.92 152.327898 17.84668 152.154578 17.7 C152.154578 17.7 151.894578 17.36 151.894578 17.12 C151.894578 16.61332 152.521258 15.82668 153.774578 14.76 L146.934578 14.76 L140.094578 14.72 C139.747898 14.48 139.574578 14.22668 139.574578 13.96 C139.574578 13.77332 139.747898 13.50668 140.094578 13.16 L154.454578 13.16 C153.814578 12.14668 153.494578 11.36 153.494578 10.8 Z" fill="rgba(0,0,0,1)" fill-rule="nonzero" stroke="none"/><path d="M175.3573 34.773197 Q175.3573 34.253197 175.917297 33.973198 L201.397293 33.973198 Q201.997299 34.253197 201.997299 34.773197 Q201.997299 35.2132 201.437286 35.533199 L188.7173 35.573196 L175.997299 35.573196 Q175.3573 35.373199 175.3573 34.773197 L175.3573 34.773197 Z M175.3573 42.533199 Q175.3573 41.933197 175.997299 41.7332 L201.437286 41.7332 Q201.477295 41.773197 201.617294 41.873199 Q201.757294 41.973198 201.817291 42.033199 Q201.877289 42.093197 201.937286 42.2332 Q201.997299 42.373199 201.997299 42.533199 Q201.997299 43.0532 201.397293 43.333199 L175.917297 43.333199 Q175.3573 43.0532 175.3573 42.533199 L175.3573 42.533199 Z" fill="rgba(0,0,0,1)" fill-rule="evenodd" stroke="none"/><path d="M217.659607 57.293198 Q216.3396 57.293198 216.259598 56.093197 Q216.259598 55.693199 218.279602 47.613197 Q220.299606 39.533199 220.419601 39.293198 Q221.059601 37.093201 222.619598 35.013199 Q225.419601 31.573198 228.979599 31.013199 Q229.059601 31.013199 229.299606 30.993198 Q229.539597 30.973198 229.6996 30.973198 Q230.579605 30.973198 231.059601 31.093199 Q233.179596 31.573198 234.459595 33.293198 Q235.739594 35.013199 235.739594 37.613197 Q235.739594 41.173199 233.299591 44.5532 Q230.859604 47.933197 227.3396 48.853199 Q226.539597 49.0532 225.979599 49.0532 L225.539597 49.0532 Q224.139603 49.0532 223.379593 48.573196 Q222.619598 48.093197 221.739594 47.013199 L220.659607 51.493198 Q219.659607 55.373199 219.499603 55.893196 Q219.3396 56.413197 219.019592 56.7332 Q218.379593 57.293198 217.659607 57.293198 L217.659607 57.293198 Z M232.299591 35.773197 Q232.299591 34.293198 231.619598 33.373199 Q230.939606 32.453201 229.619598 32.453201 Q228.219604 32.453201 226.819595 33.633198 Q225.419601 34.813198 224.579605 36.653198 Q224.019592 37.893196 223.059601 41.853199 L222.379593 44.573196 Q222.6996 45.973198 223.579605 46.793198 Q224.459595 47.613197 225.739594 47.613197 Q227.259598 47.613197 228.6996 46.173199 Q230.219604 44.773197 231.059601 41.8932 Q232.299591 37.253197 232.299591 35.773197 L232.299591 35.773197 Z" fill="rgba(0,0,0,1)" fill-rule="evenodd" stroke="none"/><path d="M67.395599 74.666397 Q67.395599 74.506401 67.595604 74.386398 L96.795601 74.386398 Q96.995605 74.506401 96.995605 74.666397 Q96.995605 74.746399 90.215607 88.666397 Q83.4356 102.586395 83.315605 102.746399 Q83.115601 103.026398 82.195602 103.026398 Q81.275604 103.026398 81.0756 102.746399 Q80.955605 102.586395 74.175606 88.666397 Q67.395599 74.746399 67.395599 74.666397 L67.395599 74.666397 Z M93.4356 77.866394 Q93.4356 77.826401 83.355606 77.826401 Q73.275604 77.826401 73.275604 77.866394 Q73.355606 78.066399 78.335602 88.2864 Q83.315605 98.506401 83.355606 98.506401 Q93.355606 78.026398 93.4356 77.866394 L93.4356 77.866394 Z" fill="rgba(0,0,0,1)" fill-rule="evenodd" stroke="none"/><path d="M113.338089 94.1064 Q112.298088 94.1064 111.598091 93.386398 Q110.898094 92.666397 110.898094 91.706398 Q110.898094 90.826401 111.438095 90.186401 Q111.978088 89.546402 112.778091 89.346397 Q113.298088 89.186401 113.858093 89.346397 Q114.658089 89.506401 115.19809 90.186401 Q115.738091 90.866394 115.738091 91.666397 Q115.738091 92.706398 115.018089 93.406395 Q114.298088 94.1064 113.338089 94.1064 L113.338089 94.1064 Z" fill="rgba(0,0,0,1)" fill-rule="evenodd" stroke="none"/><path d="M139.298172 76.586395 Q139.298172 76.546402 139.258179 76.486397 Q139.21817 76.426399 139.138168 76.406403 Q139.058182 76.386398 138.97818 76.346397 Q138.898178 76.306396 138.738174 76.2864 Q138.578171 76.266403 138.458176 76.266403 Q138.338181 76.266403 138.138168 76.266403 Q137.938171 76.266403 137.798172 76.246399 Q137.658173 76.226395 137.418182 76.226395 Q137.178177 76.226395 137.018173 76.226395 Q136.058182 76.226395 135.85817 76.186401 Q135.658173 76.1464 135.578171 75.946396 Q135.498169 75.826401 135.618179 75.226395 Q135.818176 74.506401 135.97818 74.426399 Q136.018173 74.386398 141.178177 74.386398 Q151.538177 74.386398 152.098175 74.4664 Q154.85817 74.866394 156.418182 76.386398 Q158.018173 77.906403 158.018173 79.946396 Q158.018173 81.346397 157.258179 82.666397 Q156.378174 84.266396 154.438171 85.566399 Q152.498169 86.866402 150.378174 87.306396 L149.97818 87.426399 Q152.618179 87.7864 154.238174 89.266396 Q155.85817 90.746399 155.85817 92.946396 Q155.85817 95.826401 153.21817 98.346397 Q150.138168 101.306396 145.898178 101.666397 Q145.618179 101.706398 137.458176 101.706398 Q129.458176 101.706398 129.338181 101.626396 Q129.058182 101.4664 129.258179 100.746399 Q129.258179 100.706398 129.298172 100.586395 Q129.498169 99.946396 129.738174 99.906395 Q129.85817 99.866402 130.258179 99.866402 L130.498169 99.866402 Q131.578171 99.866402 132.898178 99.746399 Q133.458176 99.626396 133.658173 99.266396 Q133.778168 99.1064 136.538177 88.1464 Q139.298172 77.186401 139.298172 76.586395 L139.298172 76.586395 Z M153.738174 79.946396 Q153.738174 78.586395 153.038177 77.626396 Q152.338181 76.666397 151.178177 76.346397 Q150.898178 76.266403 147.498169 76.226395 Q146.698181 76.226395 145.818176 76.246399 Q144.938171 76.266403 144.418182 76.266403 L143.898178 76.266403 Q143.338181 76.306396 143.178177 76.546402 Q143.098175 76.666397 140.578171 86.746399 L143.818176 86.746399 Q147.058167 86.746399 147.538177 86.666397 Q149.178177 86.386398 150.638168 85.366394 Q152.098175 84.346397 152.898178 82.906403 Q153.738174 81.386398 153.738174 79.946396 L153.738174 79.946396 Z M151.578171 92.546402 Q151.578171 90.7864 150.638168 89.626396 Q149.698181 88.4664 148.258179 88.266396 Q148.018173 88.226395 144.938171 88.226395 Q140.21817 88.226395 140.178177 88.266396 Q140.178177 88.346397 139.47818 91.186401 Q138.778168 94.026398 138.098175 96.826401 L137.378174 99.626396 Q137.378174 99.7864 137.85817 99.806396 Q138.338181 99.826401 141.098175 99.866402 Q144.658173 99.866402 144.938171 99.826401 Q147.538177 99.546402 149.558167 97.506401 Q151.578171 95.4664 151.578171 92.546402 L151.578171 92.546402 Z" fill="rgba(0,0,0,1)" fill-rule="evenodd" stroke="none"/><path d="M153.665378 63.8532 C153.665378 63.63988 153.738698 63.4532 153.885378 63.2932 C153.885378 63.2932 154.225378 63.0532 154.465378 63.0532 C154.652058 63.0532 154.812058 63.11988 154.945378 63.2532 C155.078698 63.35988 155.212058 63.6132 155.345378 64.0132 C155.612058 64.99988 156.158698 65.75988 156.985378 66.2932 C157.278698 66.47988 157.425378 66.71988 157.425378 67.0132 C157.425378 67.2532 157.385378 67.4132 157.305378 67.4932 C157.305378 67.4932 157.038698 67.6932 156.745378 67.8532 C155.598698 68.43988 154.598698 69.27988 153.745378 70.3732 C153.692058 70.42652 153.618698 70.5132 153.525378 70.6332 C153.525378 70.6332 153.365378 70.82652 153.325378 70.8532 C153.285378 70.87988 153.225378 70.90652 153.145378 70.9332 C153.145378 70.9332 152.972058 70.9732 152.865378 70.9732 C152.678698 70.9732 152.498698 70.89988 152.325378 70.7532 C152.325378 70.7532 152.065378 70.4132 152.065378 70.1732 C152.065378 69.66652 152.692058 68.87988 153.945378 67.8132 L147.105378 67.8132 L140.265378 67.7732 C139.918698 67.5332 139.745378 67.27988 139.745378 67.0132 C139.745378 66.82652 139.918698 66.55988 140.265378 66.2132 L154.625378 66.2132 C153.985378 65.19988 153.665378 64.4132 153.665378 63.8532 Z" fill="rgba(0,0,0,1)" fill-rule="nonzero" stroke="none"/><path d="M173.476501 87.826401 Q173.476501 87.306396 174.036499 87.026398 L199.516495 87.026398 Q200.116501 87.306396 200.116501 87.826401 Q200.116501 88.266396 199.556488 88.586395 L186.836502 88.626396 L174.116501 88.626396 Q173.476501 88.426399 173.476501 87.826401 L173.476501 87.826401 Z M173.476501 95.586395 Q173.476501 94.986397 174.116501 94.7864 L199.556488 94.7864 Q199.596497 94.826401 199.736496 94.926399 Q199.876495 95.026398 199.936493 95.086395 Q199.99649 95.1464 200.056488 95.2864 Q200.116501 95.426399 200.116501 95.586395 Q200.116501 96.1064 199.516495 96.386398 L174.036499 96.386398 Q173.476501 96.1064 173.476501 95.586395 L173.476501 95.586395 Z" fill="rgba(0,0,0,1)" fill-rule="evenodd" stroke="none"/><path d="M217.298798 78.306396 Q219.538803 75.066399 223.418808 75.066399 Q226.338806 75.066399 228.538803 77.066399 Q229.618805 78.1064 230.378799 79.7864 Q231.858795 83.1064 231.858795 88.906403 Q231.858795 95.1064 230.138794 98.386398 Q229.018799 100.706398 226.858795 101.746399 Q225.178802 102.586395 223.458801 102.586395 Q218.858795 102.586395 216.7388 98.386398 Q215.018799 95.1064 215.018799 88.906403 Q215.018799 85.186401 215.518799 82.766403 Q216.018799 80.346397 217.298798 78.306396 L217.298798 78.306396 Z M226.298798 77.826401 Q225.138794 76.546402 223.458801 76.546402 Q221.778809 76.546402 220.578796 77.826401 Q219.698807 78.746399 219.378799 80.066399 Q219.058807 81.386398 218.978806 84.626396 Q218.978806 84.866394 218.958801 86.186401 Q218.938797 87.506401 218.938797 88.386398 Q218.938797 92.226395 219.018799 93.746399 Q219.178802 96.546402 219.498795 97.766396 Q219.818802 98.986397 220.698807 99.866402 Q221.778809 101.066399 223.458801 101.066399 Q225.098801 101.066399 226.178802 99.866402 Q227.058807 98.986397 227.378799 97.766396 Q227.698807 96.546402 227.858795 93.746399 Q227.938797 92.226395 227.938797 88.386398 Q227.938797 87.506401 227.918808 86.186401 Q227.898804 84.866394 227.898804 84.626396 Q227.818802 81.386398 227.498795 80.066399 Q227.178802 78.746399 226.298798 77.826401 L226.298798 77.826401 Z" fill="rgba(0,0,0,1)" fill-rule="evenodd" stroke="none"/><path d="M67.395599 131.883652 Q67.395599 131.723648 67.595604 131.603638 L96.795601 131.603638 Q96.995605 131.723648 96.995605 131.883652 Q96.995605 131.963654 90.215607 145.883652 Q83.4356 159.80365 83.315605 159.963638 Q83.115601 160.243652 82.195602 160.243652 Q81.275604 160.243652 81.0756 159.963638 Q80.955605 159.80365 74.175606 145.883652 Q67.395599 131.963654 67.395599 131.883652 L67.395599 131.883652 Z M93.4356 135.083649 Q93.4356 135.04364 83.355606 135.04364 Q73.275604 135.04364 73.275604 135.083649 Q73.355606 135.283646 78.335602 145.503647 Q83.315605 155.723648 83.355606 155.723648 Q93.355606 135.243652 93.4356 135.083649 L93.4356 135.083649 Z" fill="rgba(0,0,0,1)" fill-rule="evenodd" stroke="none"/><path d="M132.978088 157.763641 Q132.978088 158.083649 132.738098 158.323639 Q132.498093 158.563644 132.138092 158.563644 Q131.938095 158.563644 131.258087 157.923645 Q130.578094 157.283646 127.498093 154.203644 L123.338089 150.04364 L119.138092 154.243652 Q114.898094 158.403641 114.778091 158.483643 Q114.618088 158.563644 114.498093 158.563644 Q114.178093 158.563644 113.918091 158.323639 Q113.658089 158.083649 113.658089 157.763641 Q113.658089 157.68364 113.738091 157.443649 Q113.858093 157.203644 117.978088 153.083649 L122.138092 148.923645 L117.978088 144.763641 Q113.858093 140.643646 113.738091 140.403641 Q113.658089 140.243652 113.658089 140.123642 Q113.658089 139.80365 113.898094 139.54364 Q114.138092 139.283646 114.458092 139.283646 Q114.538094 139.283646 114.778091 139.363647 Q114.898094 139.443649 119.138092 143.603638 L123.338089 147.80365 L127.498093 143.643646 Q130.578094 140.563644 131.258087 139.923645 Q131.938095 139.283646 132.138092 139.283646 Q132.498093 139.283646 132.738098 139.523651 Q132.978088 139.763641 132.978088 140.083649 Q132.978088 140.243652 132.898087 140.403641 Q132.818085 140.563644 128.658096 144.723648 L124.498093 148.923645 L128.658096 153.123642 Q132.818085 157.283646 132.898087 157.443649 Q132.978088 157.603638 132.978088 157.763641 L132.978088 157.763641 Z" fill="rgba(0,0,0,1)" fill-rule="evenodd" stroke="none"/><path d="M175.698181 140.923645 Q175.698181 140.523651 175.818176 139.323639 Q175.938187 138.123642 175.938187 137.80365 Q175.938187 136.04364 175.358185 135.123642 Q174.778183 134.203644 173.298187 133.843643 Q171.97818 133.563644 167.178177 133.563644 Q163.778183 133.603638 163.618179 133.643646 Q163.338181 133.763641 163.218185 134.04364 Q163.178177 134.163651 161.958176 138.963654 Q160.73819 143.763641 160.73819 143.843643 Q161.658188 143.883652 162.658188 143.883652 L163.018188 143.883652 Q165.618179 143.883652 166.758179 143.54364 Q167.898178 143.203644 168.538177 141.763641 Q168.778183 141.323639 169.138184 140.04364 Q169.178177 139.923645 169.198181 139.743652 Q169.218185 139.563644 169.23819 139.503647 Q169.258179 139.443649 169.298187 139.363647 Q169.338181 139.283646 169.438187 139.263641 Q169.538177 139.243652 169.678177 139.223648 Q169.818176 139.203644 170.058182 139.203644 Q170.258179 139.203644 170.378189 139.223648 Q170.498184 139.243652 170.578186 139.283646 Q170.658188 139.323639 170.678177 139.343643 Q170.698181 139.363647 170.758179 139.463654 Q170.818176 139.563644 170.858185 139.603638 L169.538177 144.883652 Q168.218185 150.203644 168.098175 150.283646 Q167.97818 150.403641 167.458191 150.403641 Q166.938187 150.403641 166.818176 150.283646 Q166.578186 150.163651 166.778183 149.323639 Q167.058182 148.283646 167.058182 147.523651 Q167.058182 146.363647 166.258179 146.04364 Q165.538177 145.723648 162.338181 145.723648 L160.258179 145.723648 Q160.018188 146.563644 158.758179 151.663651 Q157.498184 156.763641 157.498184 156.843643 Q157.498184 157.003647 157.958176 157.023651 Q158.418182 157.04364 161.138184 157.083649 Q164.898178 157.083649 166.118179 156.983643 Q167.338181 156.883652 168.498184 156.483643 Q170.458191 155.843643 171.758179 154.243652 Q173.058182 152.643646 174.578186 149.003647 Q174.97818 148.123642 175.098175 148.04364 Q175.218185 147.963638 175.678177 147.963638 Q176.138184 147.963638 176.258179 148.04364 Q176.498184 148.203644 176.498184 148.483643 Q172.298187 158.643646 172.098175 158.843643 Q171.97818 158.923645 160.658188 158.923645 Q152.018188 158.923645 150.578186 158.903641 Q149.138184 158.883652 149.09819 158.723648 L149.09819 158.68364 Q149.018188 158.563644 149.138184 157.923645 Q149.298187 157.283646 149.458176 157.18364 Q149.618179 157.083649 150.378189 157.083649 Q151.458176 157.083649 152.778183 156.963638 Q153.338181 156.843643 153.538177 156.483643 Q153.618179 156.283646 156.398178 145.243652 Q159.178177 134.203644 159.178177 134.04364 Q159.178177 133.763641 159.018188 133.763641 Q158.698181 133.643646 156.898178 133.563644 L155.658188 133.563644 Q155.418182 133.323639 155.398178 133.223648 Q155.378189 133.123642 155.498184 132.563644 Q155.658188 131.843643 155.898178 131.723648 L178.058182 131.723648 Q178.338181 132.003647 178.338181 132.163651 Q178.338181 132.363647 177.818176 136.663651 Q177.298187 140.963654 177.258179 141.04364 Q177.178177 141.323639 176.458191 141.323639 L175.97818 141.323639 Q175.698181 141.083649 175.698181 140.923645 L175.698181 140.923645 Z" fill="rgba(0,0,0,1)" fill-rule="evenodd" stroke="none"/><path d="M173.408578 121.07044 C173.408578 120.85712 173.481898 120.67044 173.628578 120.51044 C173.628578 120.51044 173.968578 120.27044 174.208578 120.27044 C174.395258 120.27044 174.555258 120.33712 174.688578 120.47044 C174.821898 120.57712 174.955258 120.83044 175.088578 121.23044 C175.355258 122.21712 175.901898 122.97712 176.728578 123.51044 C177.021898 123.69712 177.168578 123.93712 177.168578 124.23044 C177.168578 124.47044 177.128578 124.63044 177.048578 124.71044 C177.048578 124.71044 176.781898 124.91044 176.488578 125.07044 C175.341898 125.65712 174.341898 126.49712 173.488578 127.59044 C173.435258 127.64376 173.361898 127.73044 173.268578 127.85044 C173.268578 127.85044 173.108578 128.04376 173.068578 128.07044 C173.028578 128.09712 172.968578 128.12376 172.888578 128.15044 C172.888578 128.15044 172.715258 128.19044 172.608578 128.19044 C172.421898 128.19044 172.241898 128.11712 172.068578 127.97044 C172.068578 127.97044 171.808578 127.63044 171.808578 127.39044 C171.808578 126.88376 172.435258 126.09712 173.688578 125.03044 L166.848578 125.03044 L160.008578 124.99044 C159.661898 124.75044 159.488578 124.49712 159.488578 124.23044 C159.488578 124.04376 159.661898 123.77712 160.008578 123.43044 L174.368578 123.43044 C173.728578 122.41712 173.408578 121.63044 173.408578 121.07044 Z" fill="rgba(0,0,0,1)" fill-rule="nonzero" stroke="none"/><path d="M192.962891 145.04364 Q192.962891 144.523651 193.522888 144.243652 L219.002884 144.243652 Q219.60289 144.523651 219.60289 145.04364 Q219.60289 145.483643 219.042877 145.80365 L206.322891 145.843643 L193.60289 145.843643 Q192.962891 145.643646 192.962891 145.04364 L192.962891 145.04364 Z M192.962891 152.80365 Q192.962891 152.203644 193.60289 152.003647 L219.042877 152.003647 Q219.082886 152.04364 219.222885 152.143646 Q219.362885 152.243652 219.422882 152.30365 Q219.48288 152.363647 219.542877 152.503647 Q219.60289 152.643646 219.60289 152.80365 Q219.60289 153.323639 219.002884 153.603638 L193.522888 153.603638 Q192.962891 153.323639 192.962891 152.80365 L192.962891 152.80365 Z" fill="rgba(0,0,0,1)" fill-rule="evenodd" stroke="none"/><path d="M236.305206 148.923645 Q236.305206 148.403641 236.865204 148.123642 L260.105194 148.123642 Q260.7052 148.443649 260.7052 148.923645 Q260.7052 149.403641 260.105194 149.723648 L236.865204 149.723648 Q236.305206 149.443649 236.305206 148.923645 L236.305206 148.923645 Z" fill="rgba(0,0,0,1)" fill-rule="evenodd" stroke="none"/><path d="M276.379059 128.939636 Q275.847046 128.939636 275.49704 128.64563 Q275.147064 128.351639 275.147064 127.847633 Q275.147064 127.567635 275.259064 127.203636 Q275.679047 125.691635 276.70105 124.669632 Q277.723053 123.647636 279.151062 123.28363 Q279.851044 123.143631 280.047058 123.143631 L280.383057 123.143631 Q281.307068 123.143631 281.475067 123.171631 Q283.799042 123.591637 285.185059 125.537636 Q286.571045 127.483635 286.571045 130.36763 Q286.571045 132.019638 285.955048 134.315628 Q284.499054 139.383636 281.979065 141.679642 Q279.71106 143.779633 276.967041 143.779633 Q275.483063 143.779633 274.503052 143.261642 Q273.523041 142.743637 272.767059 141.595642 Q272.151062 140.699631 271.955048 139.719635 Q271.899048 139.467636 271.899048 138.711639 Q271.899048 137.815628 272.067047 137.143631 Q272.71106 134.259628 274.811066 132.355637 Q276.715057 130.619629 278.563049 130.25563 Q279.095062 130.143631 279.739044 130.143631 Q280.579041 130.143631 281.139038 130.33963 Q282.987061 130.983643 283.463043 132.887634 L283.547058 132.579636 Q284.107056 130.25563 284.107056 128.743637 Q284.107056 125.523636 281.89505 124.543633 Q281.139038 124.235634 280.355042 124.235634 Q279.291046 124.235634 278.39505 124.739639 Q277.499054 125.243637 276.967041 126.027634 Q278.115051 126.223633 278.115051 127.147636 Q278.115051 127.903633 277.597046 128.421631 Q277.079041 128.939636 276.379059 128.939636 L276.379059 128.939636 Z M282.763062 134.595642 Q282.763062 131.65564 280.495056 131.207642 Q280.355042 131.179642 280.047058 131.179642 Q278.703064 131.179642 277.681061 131.851639 Q276.659058 132.523636 276.09906 133.587631 Q275.539062 134.539642 274.923065 136.975632 Q274.419067 138.991638 274.419067 139.915634 Q274.419067 142.575638 277.219055 142.575638 Q277.555054 142.575638 277.723053 142.547638 Q279.879059 142.18364 281.195068 140.027634 Q281.727051 139.103638 282.259064 137.39563 Q282.763062 135.799637 282.763062 134.595642 L282.763062 134.595642 Z" fill="rgba(0,0,0,1)" fill-rule="evenodd" stroke="none"/><path d="M295.207947 125.579636 Q295.207947 125.551636 295.179962 125.509636 Q295.151947 125.467636 295.095947 125.453636 Q295.039948 125.439636 294.983948 125.411636 Q294.927948 125.383636 294.815948 125.369637 Q294.703949 125.355637 294.619965 125.355637 Q294.53595 125.355637 294.395966 125.355637 Q294.255951 125.355637 294.157959 125.341637 Q294.059937 125.327637 293.891937 125.327637 Q293.723938 125.327637 293.611938 125.327637 Q292.939941 125.327637 292.799957 125.299637 Q292.659943 125.271637 292.603943 125.131638 Q292.547943 125.047638 292.631958 124.627632 Q292.771942 124.123634 292.883942 124.067635 Q292.911957 124.039635 296.523956 124.039635 Q303.77594 124.039635 304.167938 124.095634 Q306.099945 124.375633 307.191956 125.439636 Q308.311951 126.503632 308.311951 127.931633 Q308.311951 128.911636 307.779968 129.835632 Q307.16394 130.955627 305.805939 131.865631 Q304.447937 132.775635 302.963959 133.083633 L302.68396 133.167633 Q304.531952 133.419632 305.665955 134.455627 Q306.799957 135.491638 306.799957 137.031631 Q306.799957 139.047638 304.951965 140.81163 Q302.795959 142.883636 299.827942 143.135635 Q299.631958 143.163635 293.919952 143.163635 Q288.319946 143.163635 288.235962 143.107635 Q288.039948 142.995636 288.179962 142.491638 Q288.179962 142.463638 288.207947 142.379639 Q288.347961 141.931641 288.515961 141.903641 Q288.599945 141.875641 288.879944 141.875641 L289.047943 141.875641 Q289.803955 141.875641 290.727966 141.791641 Q291.119965 141.707642 291.259949 141.455643 Q291.343964 141.343628 293.27594 133.671631 Q295.207947 125.999634 295.207947 125.579636 L295.207947 125.579636 Z M305.315948 127.931633 Q305.315948 126.979637 304.825958 126.307632 Q304.335938 125.635635 303.523956 125.411636 Q303.327942 125.355637 300.947937 125.327637 Q300.387939 125.327637 299.771942 125.341637 Q299.155945 125.355637 298.791962 125.355637 L298.427948 125.355637 Q298.03595 125.383636 297.92395 125.551636 Q297.86795 125.635635 296.103943 132.691635 L298.371948 132.691635 Q300.639954 132.691635 300.975952 132.635635 Q302.123962 132.439636 303.145966 131.725632 Q304.167938 131.011627 304.727966 130.003632 Q305.315948 128.939636 305.315948 127.931633 L305.315948 127.931633 Z M303.803955 136.751633 Q303.803955 135.519638 303.145966 134.707642 Q302.487946 133.89563 301.47995 133.75563 Q301.311951 133.727631 299.155945 133.727631 Q295.851959 133.727631 295.823944 133.75563 Q295.823944 133.81163 295.333954 135.799637 Q294.843964 137.787628 294.36795 139.747635 L293.863953 141.707642 Q293.863953 141.819641 294.199951 141.833633 Q294.53595 141.847641 296.467957 141.875641 Q298.959961 141.875641 299.155945 141.847641 Q300.975952 141.651642 302.389954 140.223633 Q303.803955 138.795639 303.803955 136.751633 L303.803955 136.751633 Z" fill="rgba(0,0,0,1)" fill-rule="evenodd" stroke="none"/><path d="M305.264987 116.6664 C305.264987 116.517076 305.316311 116.3864 305.418987 116.2744 C305.418987 116.2744 305.656987 116.1064 305.824987 116.1064 C305.955663 116.1064 306.067663 116.153076 306.160987 116.2464 C306.254311 116.321076 306.347663 116.4984 306.440987 116.7784 C306.627663 117.469076 307.010311 118.001076 307.588987 118.3744 C307.794311 118.505076 307.896987 118.673076 307.896987 118.8784 C307.896987 119.0464 307.868987 119.1584 307.812987 119.2144 C307.812987 119.2144 307.626311 119.3544 307.420987 119.4664 C306.618311 119.877076 305.918311 120.465076 305.320987 121.2304 C305.283663 121.267724 305.232311 121.3284 305.166987 121.4124 C305.166987 121.4124 305.054987 121.547724 305.026987 121.5664 C304.998987 121.585076 304.956987 121.603724 304.900987 121.6224 C304.900987 121.6224 304.779663 121.6504 304.704987 121.6504 C304.574311 121.6504 304.448311 121.599076 304.326987 121.4964 C304.326987 121.4964 304.144987 121.2584 304.144987 121.0904 C304.144987 120.735724 304.583663 120.185076 305.460987 119.4384 L300.672987 119.4384 L295.884987 119.4104 C295.642311 119.2424 295.520987 119.065076 295.520987 118.8784 C295.520987 118.747724 295.642311 118.561076 295.884987 118.3184 L305.936987 118.3184 C305.488987 117.609076 305.264987 117.0584 305.264987 116.6664 Z" fill="rgba(0,0,0,1)" fill-rule="nonzero" stroke="none"/><path d="M282.64505 158.499634 Q282.113037 158.499634 281.763031 158.205627 Q281.413055 157.911636 281.413055 157.407639 Q281.413055 157.127625 281.525055 156.763626 Q281.945038 155.251633 282.967041 154.22963 Q283.989044 153.207626 285.417053 152.843628 Q286.117035 152.703629 286.313049 152.703629 L286.649048 152.703629 Q287.573059 152.703629 287.741058 152.731628 Q290.065033 153.151627 291.45105 155.097626 Q292.837036 157.04364 292.837036 159.927628 Q292.837036 161.579636 292.221039 163.875626 Q290.765045 168.943634 288.245056 171.239639 Q285.977051 173.33963 283.233032 173.33963 Q281.749054 173.33963 280.769043 172.82164 Q279.789032 172.303635 279.033051 171.15564 Q278.417053 170.259628 278.221039 169.279633 Q278.165039 169.027634 278.165039 168.271637 Q278.165039 167.375626 278.333038 166.703629 Q278.977051 163.819626 281.077057 161.915634 Q282.981049 160.179626 284.829041 159.815628 Q285.361053 159.703629 286.005035 159.703629 Q286.845032 159.703629 287.405029 159.899628 Q289.253052 160.54364 289.729034 162.447632 L289.813049 162.139633 Q290.373047 159.815628 290.373047 158.303635 Q290.373047 155.083633 288.161041 154.103638 Q287.405029 153.795624 286.621033 153.795624 Q285.557037 153.795624 284.661041 154.299637 Q283.765045 154.803635 283.233032 155.587631 Q284.381042 155.78363 284.381042 156.707626 Q284.381042 157.463638 283.863037 157.981628 Q283.345032 158.499634 282.64505 158.499634 L282.64505 158.499634 Z M289.029053 164.15564 Q289.029053 161.215637 286.761047 160.767639 Q286.621033 160.739639 286.313049 160.739639 Q284.969055 160.739639 283.947052 161.411636 Q282.925049 162.083633 282.365051 163.147629 Q281.805054 164.09964 281.189056 166.535629 Q280.685059 168.551636 280.685059 169.475632 Q280.685059 172.135635 283.485046 172.135635 Q283.821045 172.135635 283.989044 172.107635 Q286.14505 171.743637 287.46106 169.587631 Q287.993042 168.663635 288.525055 166.955627 Q289.029053 165.359634 289.029053 164.15564 L289.029053 164.15564 Z" fill="rgba(0,0,0,1)" fill-rule="evenodd" stroke="none"/><path d="M297.189911 170.819626 Q297.189911 171.995636 297.945923 171.995636 Q298.141907 171.995636 298.281921 171.967636 Q299.681915 171.715637 300.829926 169.727631 Q301.109924 169.279633 301.333923 168.691635 Q301.389923 168.523636 301.473907 168.481628 Q301.557922 168.439636 301.893921 168.439636 Q302.453918 168.439636 302.453918 168.663635 Q302.453918 168.719635 302.341919 168.999634 Q302.033905 169.89563 301.3479 170.805634 Q300.661926 171.715637 299.961914 172.247635 Q298.925903 173.031631 297.749908 173.031631 Q296.741913 173.031631 296.027924 172.513626 Q295.313904 171.995636 295.06192 171.15564 Q295.00592 170.931625 295.00592 170.399628 L295.00592 169.89563 L295.985901 165.975632 Q296.965912 162.027634 296.993927 161.999634 Q296.993927 161.943634 295.565918 161.943634 L294.137909 161.943634 Q293.96991 161.775635 293.955902 161.719635 Q293.941925 161.663635 294.025909 161.243637 Q294.137909 160.851639 294.165924 160.823639 Q294.221924 160.68364 294.431915 160.669632 Q294.641907 160.65564 295.845917 160.65564 L297.329926 160.65564 L297.861908 158.415634 Q298.449921 156.147629 298.533905 155.97963 Q298.869904 155.195633 299.821899 155.195633 Q300.185913 155.223633 300.451904 155.447632 Q300.717926 155.671631 300.717926 156.035629 Q300.717926 156.371628 300.185913 158.415634 Q300.073914 158.891632 299.919922 159.465637 Q299.7659 160.039627 299.681915 160.319626 L299.625916 160.59964 Q299.625916 160.65564 301.025909 160.65564 L302.453918 160.65564 Q302.621918 160.823639 302.635925 160.893631 Q302.649902 160.963638 302.565918 161.411636 Q302.481903 161.747635 302.285919 161.943634 L299.289917 161.943634 L298.281921 166.003632 Q297.245911 170.175629 297.217926 170.399628 Q297.189911 170.539627 297.189911 170.819626 L297.189911 170.819626 Z" fill="rgba(0,0,0,1)" fill-rule="evenodd" stroke="none"/><rect x="270.723067" y="148.12364" width="39.06392" height="1.6" fill="rgba(0,0,0,1)"/><path d="M67.395599 189.100891 Q67.395599 188.940887 67.595604 188.820892 L96.795601 188.820892 Q96.995605 188.940887 96.995605 189.100891 Q96.995605 189.180878 90.215607 203.100891 Q83.4356 217.020889 83.315605 217.180878 Q83.115601 217.460892 82.195602 217.460892 Q81.275604 217.460892 81.0756 217.180878 Q80.955605 217.020889 74.175606 203.100891 Q67.395599 189.180878 67.395599 189.100891 L67.395599 189.100891 Z M93.4356 192.300888 Q93.4356 192.26088 83.355606 192.26088 Q73.275604 192.26088 73.275604 192.300888 Q73.355606 192.500885 78.335602 202.720886 Q83.315605 212.940887 83.355606 212.940887 Q93.355606 192.460876 93.4356 192.300888 L93.4356 192.300888 Z" fill="rgba(0,0,0,1)" fill-rule="evenodd" stroke="none"/><path d="M132.978088 214.980881 Q132.978088 215.300888 132.738098 215.540878 Q132.498093 215.780884 132.138092 215.780884 Q131.938095 215.780884 131.258087 215.140884 Q130.578094 214.500885 127.498093 211.420883 L123.338089 207.26088 L119.138092 211.460892 Q114.898094 215.62088 114.778091 215.700882 Q114.618088 215.780884 114.498093 215.780884 Q114.178093 215.780884 113.918091 215.540878 Q113.658089 215.300888 113.658089 214.980881 Q113.658089 214.900879 113.738091 214.660889 Q113.858093 214.420883 117.978088 210.300888 L122.138092 206.140884 L117.978088 201.980881 Q113.858093 197.860886 113.738091 197.62088 Q113.658089 197.460876 113.658089 197.340881 Q113.658089 197.020889 113.898094 196.76088 Q114.138092 196.500885 114.458092 196.500885 Q114.538094 196.500885 114.778091 196.580887 Q114.898094 196.660889 119.138092 200.820892 L123.338089 205.020889 L127.498093 200.860886 Q130.578094 197.780884 131.258087 197.140884 Q131.938095 196.500885 132.138092 196.500885 Q132.498093 196.500885 132.738098 196.740891 Q132.978088 196.980881 132.978088 197.300888 Q132.978088 197.460876 132.898087 197.62088 Q132.818085 197.780884 128.658096 201.940887 L124.498093 206.140884 L128.658096 210.340881 Q132.818085 214.500885 132.898087 214.660889 Q132.978088 214.820877 132.978088 214.980881 L132.978088 214.980881 Z" fill="rgba(0,0,0,1)" fill-rule="evenodd" stroke="none"/><path d="M159.178177 191.020889 Q159.178177 190.980881 159.138184 190.920883 Q159.098175 190.860886 159.018188 190.840881 Q158.938187 190.820892 158.858185 190.780884 Q158.778183 190.740891 158.618179 190.720886 Q158.458176 190.700882 158.338181 190.700882 Q158.218185 190.700882 158.018188 190.700882 Q157.818176 190.700882 157.678177 190.680878 Q157.538177 190.660889 157.298187 190.660889 Q157.058182 190.660889 156.898178 190.660889 Q155.938187 190.660889 155.73819 190.62088 Q155.538177 190.580887 155.458176 190.38089 Q155.378189 190.26088 155.498184 189.660889 Q155.658188 188.980881 155.858185 188.860886 Q155.938187 188.820892 156.538177 188.820892 Q158.178177 188.900879 161.97818 188.900879 Q162.938187 188.900879 164.638184 188.88089 Q166.338181 188.860886 167.098175 188.860886 Q167.618179 188.860886 167.698181 189.100891 Q167.778183 189.220886 167.658188 189.820892 Q167.458191 190.500885 167.258179 190.62088 L167.058182 190.62088 Q166.858185 190.62088 166.558182 190.640884 Q166.258179 190.660889 165.97818 190.660889 Q163.858185 190.700882 163.538177 190.940887 Q163.378189 191.020889 163.258179 191.220886 Q163.138184 191.420883 161.958176 196.160889 Q160.778183 200.900879 160.73819 200.940887 Q160.73819 201.020889 166.538177 201.020889 L172.338181 201.020889 L172.378189 200.900879 Q172.378189 200.780884 173.558182 196.180878 Q174.73819 191.580887 174.73819 191.060883 Q174.73819 190.980881 174.678177 190.900879 Q174.618179 190.820892 174.498184 190.780884 Q174.378174 190.740891 174.23819 190.720886 Q174.098175 190.700882 173.858185 190.700882 Q173.618179 190.700882 173.438187 190.680878 Q173.258179 190.660889 172.958191 190.660889 Q172.658188 190.660889 172.458191 190.660889 Q171.018188 190.660889 171.018188 190.26088 Q171.018188 189.420883 171.258179 189.060883 Q171.378189 188.860886 171.938187 188.860886 Q172.658188 188.860886 174.378174 188.900879 Q176.098175 188.940887 177.378174 188.940887 Q178.658188 188.940887 180.318176 188.900879 Q181.97818 188.860886 182.618179 188.860886 Q183.178177 188.860886 183.258179 189.100891 Q183.338181 189.220886 183.218185 189.820892 Q183.018188 190.500885 182.818176 190.62088 L182.618179 190.62088 Q182.418182 190.62088 182.118179 190.640884 Q181.818176 190.660889 181.538177 190.660889 Q181.378174 190.660889 181.098175 190.660889 Q179.298187 190.700882 178.97818 191.020889 Q178.898178 191.100891 178.818176 191.220886 Q178.698181 191.420883 175.918182 202.560883 Q173.138184 213.700882 173.138184 213.820877 Q173.138184 214.100891 173.298187 214.100891 Q173.618179 214.220886 175.458191 214.300888 L176.698181 214.300888 Q176.898178 214.580887 176.918182 214.640884 Q176.938187 214.700882 176.818176 215.38089 Q176.658188 215.900879 176.418182 216.140884 L175.818176 216.140884 Q174.338181 216.060883 170.458191 216.060883 Q169.458191 216.060883 167.758179 216.080887 Q166.058182 216.100891 165.258179 216.100891 Q164.578186 216.100891 164.578186 215.780884 Q164.578186 215.740891 164.618179 215.540878 Q164.658188 215.340881 164.698181 215.180878 Q164.698181 215.140884 164.73819 215.020889 Q164.938187 214.38089 165.178177 214.340881 Q165.298187 214.300888 165.698181 214.300888 L165.938187 214.300888 Q167.018188 214.300888 168.338181 214.180878 Q168.898178 214.060883 169.098175 213.700882 Q169.218185 213.500885 170.538177 208.26088 Q171.858185 203.020889 171.858185 202.900879 Q171.858185 202.860886 166.058182 202.860886 L160.258179 202.860886 L158.938187 208.26088 Q157.578186 213.62088 157.578186 213.820877 Q157.578186 214.060883 157.698181 214.100891 Q157.97818 214.220886 159.898178 214.300888 L161.138184 214.300888 Q161.338181 214.580887 161.358185 214.640884 Q161.378189 214.700882 161.258179 215.38089 Q161.098175 215.900879 160.858185 216.140884 L160.258179 216.140884 Q158.778183 216.060883 154.898178 216.060883 Q153.898178 216.060883 152.198181 216.080887 Q150.498184 216.100891 149.698181 216.100891 Q149.018188 216.100891 149.018188 215.780884 Q149.018188 215.740891 149.078186 215.520889 Q149.138184 215.300888 149.138184 215.180878 Q149.138184 215.140884 149.178177 215.020889 Q149.378189 214.38089 149.618179 214.340881 Q149.73819 214.300888 150.138184 214.300888 L150.378189 214.300888 Q151.458176 214.300888 152.778183 214.180878 Q153.338181 214.060883 153.538177 213.700882 Q153.658188 213.540878 156.418182 202.580887 Q159.178177 191.62088 159.178177 191.020889 L159.178177 191.020889 Z" fill="rgba(0,0,0,1)" fill-rule="evenodd" stroke="none"/><path d="M174.630578 178.28768 C174.630578 178.07436 174.703898 177.88768 174.850578 177.72768 C174.850578 177.72768 175.190578 177.48768 175.430578 177.48768 C175.617258 177.48768 175.777258 177.55436 175.910578 177.68768 C176.043898 177.79436 176.177258 178.04768 176.310578 178.44768 C176.577258 179.43436 177.123898 180.19436 177.950578 180.72768 C178.243898 180.91436 178.390578 181.15436 178.390578 181.44768 C178.390578 181.68768 178.350578 181.84768 178.270578 181.92768 C178.270578 181.92768 178.003898 182.12768 177.710578 182.28768 C176.563898 182.87436 175.563898 183.71436 174.710578 184.80768 C174.657258 184.861 174.583898 184.94768 174.490578 185.06768 C174.490578 185.06768 174.330578 185.261 174.290578 185.28768 C174.250578 185.31436 174.190578 185.341 174.110578 185.36768 C174.110578 185.36768 173.937258 185.40768 173.830578 185.40768 C173.643898 185.40768 173.463898 185.33436 173.290578 185.18768 C173.290578 185.18768 173.030578 184.84768 173.030578 184.60768 C173.030578 184.101 173.657258 183.31436 174.910578 182.24768 L168.070578 182.24768 L161.230578 182.20768 C160.883898 181.96768 160.710578 181.71436 160.710578 181.44768 C160.710578 181.261 160.883898 180.99436 161.230578 180.64768 L175.590578 180.64768 C174.950578 179.63436 174.630578 178.84768 174.630578 178.28768 Z" fill="rgba(0,0,0,1)" fill-rule="nonzero" stroke="none"/><path d="M197.629288 202.26088 Q197.629288 201.740891 198.189285 201.460892 L223.669281 201.460892 Q224.269287 201.740891 224.269287 202.26088 Q224.269287 202.700882 223.70929 203.020889 L210.989288 203.060883 L198.269287 203.060883 Q197.629288 202.860886 197.629288 202.26088 L197.629288 202.26088 Z M197.629288 210.020889 Q197.629288 209.420883 198.269287 209.220886 L223.70929 209.220886 Q223.749283 209.26088 223.889282 209.360886 Q224.029282 209.460892 224.089279 209.520889 Q224.149277 209.580887 224.20929 209.720886 Q224.269287 209.860886 224.269287 210.020889 Q224.269287 210.540878 223.669281 210.820892 L198.189285 210.820892 Q197.629288 210.540878 197.629288 210.020889 L197.629288 210.020889 Z" fill="rgba(0,0,0,1)" fill-rule="evenodd" stroke="none"/><path d="M255.491608 191.140884 Q255.491608 190.660889 251.771606 190.660889 L250.771606 190.660889 Q250.531601 190.460876 250.491608 190.320892 Q250.451599 190.180878 250.611603 189.580887 Q250.771606 189.060883 251.011597 188.820892 L251.691605 188.820892 Q253.331604 188.900879 257.531616 188.900879 Q258.611603 188.900879 260.1716 188.88089 Q261.731598 188.860886 262.371613 188.860886 Q262.811615 188.860886 262.851593 189.060883 Q262.93161 189.180878 262.811615 189.820892 Q262.651611 190.460876 262.511597 190.560883 Q262.371613 190.660889 261.771606 190.660889 L261.411591 190.660889 Q259.651611 190.660889 259.411591 191.220886 Q259.331604 191.420883 256.911591 201.12088 Q254.491608 210.820892 254.371597 211.060883 Q253.531601 213.500885 251.051605 215.26088 Q248.571609 217.020889 245.411606 217.020889 Q242.971603 217.020889 241.43161 215.800888 Q239.891602 214.580887 239.891602 212.62088 Q239.891602 211.220886 240.711609 210.200882 Q241.531601 209.180878 242.891602 209.180878 Q244.691605 209.180878 244.891602 210.940887 Q244.891602 212.100891 244.231598 212.900879 Q243.571609 213.700882 242.531601 213.900879 Q242.211609 213.980881 242.211609 214.040878 Q242.211609 214.100891 242.491608 214.38089 Q243.531601 215.540878 245.491608 215.540878 Q247.011597 215.540878 248.471603 214.200882 Q249.93161 212.860886 250.571609 210.940887 Q250.731598 210.460892 253.111603 200.940887 Q255.491608 191.420883 255.491608 191.140884 L255.491608 191.140884 Z" fill="rgba(0,0,0,1)" fill-rule="evenodd" stroke="none"/><path d="M263.6722 178.28768 C263.6722 178.07436 263.74552 177.88768 263.8922 177.72768 C263.8922 177.72768 264.2322 177.48768 264.4722 177.48768 C264.65888 177.48768 264.81888 177.55436 264.9522 177.68768 C265.08552 177.79436 265.21888 178.04768 265.3522 178.44768 C265.61888 179.43436 266.16552 180.19436 266.9922 180.72768 C267.28552 180.91436 267.4322 181.15436 267.4322 181.44768 C267.4322 181.68768 267.3922 181.84768 267.3122 181.92768 C267.3122 181.92768 267.04552 182.12768 266.7522 182.28768 C265.60552 182.87436 264.60552 183.71436 263.7522 184.80768 C263.69888 184.861 263.62552 184.94768 263.5322 185.06768 C263.5322 185.06768 263.3722 185.261 263.3322 185.28768 C263.2922 185.31436 263.2322 185.341 263.1522 185.36768 C263.1522 185.36768 262.97888 185.40768 262.8722 185.40768 C262.68552 185.40768 262.50552 185.33436 262.3322 185.18768 C262.3322 185.18768 262.0722 184.84768 262.0722 184.60768 C262.0722 184.101 262.69888 183.31436 263.9522 182.24768 L257.1122 182.24768 L250.2722 182.20768 C249.92552 181.96768 249.7522 181.71436 249.7522 181.44768 C249.7522 181.261 249.92552 180.99436 250.2722 180.64768 L264.6322 180.64768 C263.9922 179.63436 263.6722 178.84768 263.6722 178.28768 Z" fill="rgba(0,0,0,1)" fill-rule="nonzero" stroke="none"/><path d="M266.943176 226.67688 Q267.699188 226.844879 267.755188 226.844879 Q268.3992 226.844879 268.875183 225.668884 Q269.211182 224.744888 270.919189 215.700882 Q271.703186 211.472885 271.731201 211.444885 L271.731201 211.360886 L270.415192 211.360886 Q269.099182 211.360886 269.015198 211.304886 Q268.819183 211.192886 268.959198 210.688889 Q269.071198 210.26889 269.099182 210.240891 Q269.155182 210.100891 269.351196 210.086884 Q269.54718 210.072876 270.639191 210.072876 Q271.983185 210.072876 271.983185 210.044891 Q271.983185 209.988892 272.235199 208.644882 Q272.487183 207.300888 272.571198 207.020889 Q273.15918 204.360886 274.335205 203.32489 Q275.4552 202.400879 276.65918 202.400879 Q277.667206 202.456879 278.35318 203.016876 Q279.039185 203.576889 279.039185 204.500885 Q279.039185 205.312881 278.535187 205.872879 Q278.031189 206.432892 277.275177 206.432892 Q276.043182 206.432892 276.043182 205.256882 Q276.043182 204.220886 277.023193 203.744888 L277.275177 203.604889 Q276.771179 203.43689 276.435181 203.43689 Q275.623199 203.43689 275.371185 204.500885 Q275.147186 205.340881 274.643188 208.168884 L274.279205 210.016876 Q274.279205 210.072876 275.819183 210.072876 Q277.079193 210.072876 277.331177 210.100891 Q277.583191 210.128891 277.583191 210.29689 Q277.583191 210.604889 277.387177 211.192886 Q277.331177 211.332886 277.121185 211.346878 Q276.911194 211.360886 275.623199 211.360886 L274.055176 211.360886 L273.411194 214.776886 Q272.375183 220.124878 272.123199 221.244888 Q271.171204 225.472885 269.575195 226.984879 Q268.539185 227.88089 267.531189 227.88089 Q266.523193 227.88089 265.851196 227.320892 Q265.179199 226.76088 265.179199 225.836884 Q265.179199 224.996887 265.683197 224.422882 Q266.187195 223.848877 266.943176 223.848877 Q268.175201 223.848877 268.175201 225.024887 Q268.175201 226.060883 267.19519 226.53688 L266.943176 226.67688 L266.943176 226.67688 Z" fill="rgba(0,0,0,1)" fill-rule="evenodd" stroke="none"/><path d="M291.490509 206.140884 Q291.490509 205.62088 292.050507 205.340881 L304.010529 205.340881 L304.010529 199.340881 L304.050507 193.340881 Q304.450531 192.820892 304.810516 192.820892 Q305.330505 192.820892 305.610504 193.420883 L305.610504 205.340881 L317.530518 205.340881 Q318.130524 205.660889 318.130524 206.140884 Q318.130524 206.62088 317.530518 206.940887 L305.610504 206.940887 L305.610504 218.860886 Q305.330505 219.420883 304.810516 219.420883 Q304.290527 219.420883 304.010529 218.860886 L304.010529 206.940887 L292.050507 206.940887 Q291.490509 206.660889 291.490509 206.140884 L291.490509 206.140884 Z" fill="rgba(0,0,0,1)" fill-rule="evenodd" stroke="none"/><path d="M334.906616 186.156876 Q334.374603 186.156876 334.024597 185.862869 Q333.674622 185.568878 333.674622 185.06488 Q333.674622 184.784882 333.786621 184.420868 Q334.206604 182.908875 335.228607 181.886871 Q336.25061 180.864868 337.678619 180.50087 Q338.378601 180.36087 338.574615 180.36087 L338.910614 180.36087 Q339.834625 180.36087 340.002625 180.38887 Q342.326599 180.808868 343.712616 182.754868 Q345.098602 184.700867 345.098602 187.584869 Q345.098602 189.236877 344.482605 191.532867 Q343.026611 196.600876 340.506622 198.896881 Q338.238617 200.996872 335.494598 200.996872 Q334.01062 200.996872 333.030609 200.478882 Q332.050598 199.960876 331.294617 198.812881 Q330.678619 197.91687 330.482605 196.936874 Q330.426605 196.684875 330.426605 195.928879 Q330.426605 195.032867 330.594604 194.36087 Q331.238617 191.476868 333.338623 189.572876 Q335.242615 187.836868 337.090607 187.47287 Q337.62262 187.36087 338.266602 187.36087 Q339.106598 187.36087 339.666626 187.55687 Q341.514618 188.200867 341.990601 190.104874 L342.074615 189.796875 Q342.634613 187.47287 342.634613 185.960876 Q342.634613 182.740875 340.422607 181.76088 Q339.666626 181.452881 338.882599 181.452881 Q337.818604 181.452881 336.922607 181.956879 Q336.026611 182.460876 335.494598 183.244873 Q336.642609 183.440872 336.642609 184.364868 Q336.642609 185.12088 336.124603 185.63887 Q335.606598 186.156876 334.906616 186.156876 L334.906616 186.156876 Z M341.290619 191.812881 Q341.290619 188.872879 339.022614 188.424881 Q338.882599 188.396881 338.574615 188.396881 Q337.230621 188.396881 336.208618 189.068878 Q335.186615 189.740875 334.626617 190.804871 Q334.06662 191.756866 333.450623 194.192871 Q332.946625 196.208878 332.946625 197.132874 Q332.946625 199.792877 335.746613 199.792877 Q336.082611 199.792877 336.25061 199.764877 Q338.406616 199.400879 339.722595 197.244873 Q340.254608 196.320877 340.786621 194.612869 Q341.290619 193.016876 341.290619 191.812881 L341.290619 191.812881 Z" fill="rgba(0,0,0,1)" fill-rule="evenodd" stroke="none"/><path d="M353.70752 182.796875 Q353.70752 182.768875 353.679504 182.726868 Q353.65152 182.684875 353.59552 182.670868 Q353.53952 182.656876 353.483521 182.628876 Q353.427521 182.600876 353.315521 182.586868 Q353.203522 182.572876 353.119507 182.572876 Q353.035522 182.572876 352.895508 182.572876 Q352.755524 182.572876 352.657501 182.558868 Q352.559509 182.544876 352.39151 182.544876 Q352.223511 182.544876 352.111511 182.544876 Q351.159515 182.544876 351.0755 182.348877 Q351.047516 182.264877 351.1315 181.872879 Q351.271515 181.340881 351.383514 181.284882 Q351.439514 181.256866 356.955505 181.256866 Q361.6315 181.284882 362.191498 181.298874 Q362.751495 181.312866 363.311523 181.452881 Q365.523499 181.956879 366.839508 183.776871 Q368.155518 185.596878 368.155518 188.312866 Q368.155518 189.712875 367.819519 191.05687 Q367.035522 194.220871 364.543518 196.796875 Q361.715515 199.708878 358.103516 200.296875 L357.711517 200.352875 L352.27951 200.380875 L349.171509 200.380875 Q346.679504 200.380875 346.65152 200.240875 L346.65152 200.212875 Q346.59552 200.128876 346.679504 199.680878 Q346.791504 199.23288 346.889496 199.162872 Q346.987518 199.09288 347.547516 199.09288 Q348.303497 199.09288 349.227509 199.008881 Q349.619507 198.924881 349.759521 198.672882 Q349.843506 198.560867 351.775513 190.88887 Q353.70752 183.216873 353.70752 182.796875 L353.70752 182.796875 Z M365.355499 187.248871 Q365.355499 185.17688 364.263519 183.97287 Q363.171509 182.768875 361.211517 182.572876 Q361.155518 182.572876 360.819519 182.572876 Q360.483521 182.572876 359.9935 182.558868 Q359.50351 182.544876 359.083496 182.544876 Q358.663513 182.544876 358.173523 182.558868 Q357.683502 182.572876 357.347504 182.572876 Q357.011505 182.572876 356.983521 182.572876 Q356.619507 182.600876 356.479523 182.824875 Q356.423523 182.936874 354.435516 190.88887 Q352.44751 198.840881 352.44751 198.924881 Q352.44751 199.03688 352.769501 199.050873 Q353.091522 199.06488 354.911499 199.06488 Q357.179504 199.06488 357.459503 199.03688 Q360.119507 198.616867 361.939514 196.796875 Q362.94751 195.788879 363.591522 194.44487 Q364.235504 193.100876 364.795502 190.88887 Q365.355499 188.67688 365.355499 187.248871 L365.355499 187.248871 Z" fill="rgba(0,0,0,1)" fill-rule="evenodd" stroke="none"/><path d="M363.672978 173.88364 C363.672978 173.734316 363.724302 173.60364 363.826978 173.49164 C363.826978 173.49164 364.064978 173.32364 364.232978 173.32364 C364.363654 173.32364 364.475654 173.370316 364.568978 173.46364 C364.662302 173.538316 364.755654 173.71564 364.848978 173.99564 C365.035654 174.686316 365.418302 175.218316 365.996978 175.59164 C366.202302 175.722316 366.304978 175.890316 366.304978 176.09564 C366.304978 176.26364 366.276978 176.37564 366.220978 176.43164 C366.220978 176.43164 366.034302 176.57164 365.828978 176.68364 C365.026302 177.094316 364.326302 177.682316 363.728978 178.44764 C363.691654 178.484964 363.640302 178.54564 363.574978 178.62964 C363.574978 178.62964 363.462978 178.764964 363.434978 178.78364 C363.406978 178.802316 363.364978 178.820964 363.308978 178.83964 C363.308978 178.83964 363.187654 178.86764 363.112978 178.86764 C362.982302 178.86764 362.856302 178.816316 362.734978 178.71364 C362.734978 178.71364 362.552978 178.47564 362.552978 178.30764 C362.552978 177.952964 362.991654 177.402316 363.868978 176.65564 L359.080978 176.65564 L354.292978 176.62764 C354.050302 176.45964 353.928978 176.282316 353.928978 176.09564 C353.928978 175.964964 354.050302 175.778316 354.292978 175.53564 L364.344978 175.53564 C363.896978 174.826316 363.672978 174.27564 363.672978 173.88364 Z" fill="rgba(0,0,0,1)" fill-rule="nonzero" stroke="none"/><path d="M341.830872 215.716888 Q341.298859 215.716888 340.948853 215.422882 Q340.598877 215.128891 340.598877 214.624893 Q340.598877 214.344879 340.710876 213.980881 Q341.130859 212.468887 342.152863 211.446884 Q343.174866 210.424881 344.602875 210.060883 Q345.302856 209.920883 345.498871 209.920883 L345.834869 209.920883 Q346.758881 209.920883 346.92688 209.948883 Q349.250854 210.368881 350.636871 212.31488 Q352.022858 214.260895 352.022858 217.144882 Q352.022858 218.79689 351.40686 221.09288 Q349.950867 226.160889 347.430878 228.456894 Q345.162872 230.556885 342.418854 230.556885 Q340.934875 230.556885 339.954865 230.038895 Q338.974854 229.520889 338.218872 228.372894 Q337.602875 227.476883 337.40686 226.496887 Q337.350861 226.244888 337.350861 225.488892 Q337.350861 224.59288 337.51886 223.920883 Q338.162872 221.03688 340.262878 219.132889 Q342.16687 217.396881 344.014862 217.032883 Q344.546875 216.920883 345.190857 216.920883 Q346.030853 216.920883 346.590881 217.116882 Q348.438873 217.760895 348.914856 219.664886 L348.998871 219.356888 Q349.558868 217.032883 349.558868 215.520889 Q349.558868 212.300888 347.346863 211.320892 Q346.590881 211.012878 345.806854 211.012878 Q344.742859 211.012878 343.846863 211.516891 Q342.950867 212.020889 342.418854 212.804886 Q343.566864 213.000885 343.566864 213.924881 Q343.566864 214.680893 343.048859 215.198883 Q342.530853 215.716888 341.830872 215.716888 L341.830872 215.716888 Z M348.214874 221.372894 Q348.214874 218.432892 345.946869 217.984894 Q345.806854 217.956894 345.498871 217.956894 Q344.154877 217.956894 343.132874 218.628891 Q342.11087 219.300888 341.550873 220.364883 Q340.990875 221.316895 340.374878 223.752884 Q339.87088 225.76889 339.87088 226.692886 Q339.87088 229.35289 342.670868 229.35289 Q343.006866 229.35289 343.174866 229.32489 Q345.330872 228.960892 346.646851 226.804886 Q347.178864 225.88089 347.710876 224.172882 Q348.214874 222.576889 348.214874 221.372894 L348.214874 221.372894 Z" fill="rgba(0,0,0,1)" fill-rule="evenodd" stroke="none"/><path d="M356.375763 228.03688 Q356.375763 229.212891 357.131775 229.212891 Q357.327759 229.212891 357.467773 229.184891 Q358.867767 228.932892 360.015778 226.944885 Q360.295776 226.496887 360.519775 225.90889 Q360.575775 225.740891 360.65976 225.698883 Q360.743774 225.656891 361.079773 225.656891 Q361.639771 225.656891 361.639771 225.88089 Q361.639771 225.93689 361.527771 226.216888 Q361.219757 227.112885 360.533752 228.022888 Q359.847778 228.932892 359.147766 229.46489 Q358.111755 230.248886 356.93576 230.248886 Q355.927765 230.248886 355.213776 229.730881 Q354.499756 229.212891 354.247772 228.372894 Q354.191772 228.14888 354.191772 227.616882 L354.191772 227.112885 L355.171753 223.192886 Q356.151764 219.244888 356.179779 219.216888 Q356.179779 219.160889 354.75177 219.160889 L353.323761 219.160889 Q353.155762 218.992889 353.141754 218.93689 Q353.127777 218.88089 353.211761 218.460892 Q353.323761 218.068893 353.351776 218.040894 Q353.407776 217.900894 353.617767 217.886887 Q353.827759 217.872894 355.031769 217.872894 L356.515778 217.872894 L357.04776 215.632889 Q357.635773 213.364883 357.719757 213.196884 Q358.055756 212.412888 359.007751 212.412888 Q359.371765 212.440887 359.637756 212.664886 Q359.903778 212.888885 359.903778 213.252884 Q359.903778 213.588882 359.371765 215.632889 Q359.259766 216.108887 359.105774 216.682892 Q358.951752 217.256882 358.867767 217.53688 L358.811768 217.816895 Q358.811768 217.872894 360.211761 217.872894 L361.639771 217.872894 Q361.80777 218.040894 361.821777 218.110886 Q361.835754 218.180893 361.75177 218.628891 Q361.667755 218.96489 361.471771 219.160889 L358.475769 219.160889 L357.467773 223.220886 Q356.431763 227.392883 356.403778 227.616882 Q356.375763 227.756882 356.375763 228.03688 L356.375763 228.03688 Z" fill="rgba(0,0,0,1)" fill-rule="evenodd" stroke="none"/><rect x="329.250618" y="205.34088" width="40.38048" height="1.6" fill="rgba(0,0,0,1)"/></svg>