<svg xmlns="http://www.w3.org/2000/svg" viewBox="0 0 331.252542 67.40864" width="331.252542" height="67.40864"><path d="M26.6 45.964321 Q25.52 45.964321 23.02 45.92432 Q20.52 45.884319 19.119999 45.884319 Q13.96 45.884319 12.559999 45.964321 L11.96 45.964321 Q11.72 45.724319 11.7 45.624321 Q11.68 45.524323 11.8 44.884323 Q11.96 44.364323 12.2 44.124321 L13.32 44.124321 Q15.719999 44.124321 16.559999 44.004322 Q17.24 43.964321 17.559999 43.76432 Q17.6 43.724319 17.639999 43.724319 Q17.84 43.604321 18.040001 42.90432 Q18.24 42.204323 19.639999 36.644321 Q20.32 33.92432 20.76 32.204323 Q23.559999 21.204321 23.559999 20.964321 Q23.559999 20.764322 22.4 20.764322 L21.16 20.764322 Q18.48 20.764322 17.639999 21.004322 Q15.92 21.364321 15.04 22.404322 Q13.96 23.604322 12.68 27.284321 Q12.4 28.164322 12.28 28.324322 Q12.16 28.484322 11.72 28.484322 L11.6 28.484322 Q11.08 28.484322 10.96 28.364321 Q10.84 28.244322 10.84 28.164322 Q10.84 27.924322 12.04 24.324322 Q12.92 21.564322 13.52 19.924322 Q13.76 19.164322 14.04 18.884321 L32.760002 18.884321 Q38.080002 18.964321 38.119999 19.124321 L38.16 19.164322 Q38.16 19.244322 38.16 19.284321 Q38.16 19.524323 37.459999 23.844322 Q36.760002 28.164322 36.720001 28.204321 Q36.720001 28.324322 36.559998 28.404322 Q36.48 28.484322 35.959999 28.484322 Q35.720001 28.484322 35.580002 28.464321 Q35.439999 28.444321 35.400002 28.424322 Q35.360001 28.404322 35.279999 28.304321 Q35.199997 28.204321 35.16 28.164322 Q35.16 27.884321 35.279999 27.084322 Q35.639999 24.924322 35.639999 23.924322 Q35.639999 23.004322 35.400002 22.404322 Q35.16 21.804321 34.860001 21.484322 Q34.559998 21.164322 33.779999 21.004322 Q33 20.844322 32.439999 20.804321 Q31.879999 20.764322 30.6 20.724321 Q28.76 20.724321 28.26 20.784321 Q27.76 20.844322 27.559999 21.084322 Q27.52 21.124321 24.719999 32.26432 Q21.92 43.40432 21.92 43.56432 Q21.92 43.844322 22.439999 43.92432 Q23 44.08432 25.439999 44.124321 Q26.799999 44.124321 27.059999 44.164322 Q27.32 44.204323 27.4 44.40432 Q27.440001 44.524323 27.32 45.08432 Q27.279999 45.204323 27.26 45.344322 Q27.24 45.484322 27.219999 45.544323 Q27.199999 45.604321 27.16 45.704323 Q27.119999 45.804321 27.1 45.824322 Q27.08 45.844322 27.039999 45.884319 Q27 45.92432 26.940001 45.944321 Q26.879999 45.964321 26.799999 45.964321 Q26.719999 45.964321 26.6 45.964321 L26.6 45.964321 Z" fill="rgba(0,0,0,1)" fill-rule="evenodd" stroke="none"/><path d="M45.818802 29.752321 Q44.362801 29.752321 43.214802 29.10832 Q42.906803 30.340321 42.542801 31.824322 Q41.954803 34.120319 41.8428 34.498322 Q41.730801 34.87632 41.506802 35.100319 Q41.0588 35.492321 40.554802 35.492321 Q40.1628 35.492321 39.882801 35.254322 Q39.602802 35.016319 39.574802 34.652321 Q39.574802 34.372322 41.632801 26.19632 Q43.690804 18.020321 43.774803 17.852322 Q44.110802 17.068321 45.062801 17.068321 Q45.426804 17.096321 45.692802 17.30632 Q45.958801 17.516319 45.958801 17.880322 Q45.958801 18.21632 45.090801 21.63232 Q44.222801 25.048321 44.166801 25.468321 Q44.110802 25.776321 44.110802 26.44832 Q44.110802 28.71632 45.986801 28.71632 Q46.462803 28.71632 46.966801 28.548321 Q48.254803 28.072321 49.206802 26.56032 L49.346802 26.364321 L50.354801 22.360321 Q51.362801 18.384319 51.4748 18.13232 Q51.838802 17.37632 52.678802 17.37632 Q53.070801 17.37632 53.3508 17.586319 Q53.630802 17.79632 53.630802 18.18832 L51.5028 27.092321 Q51.4748 27.232321 51.4748 27.540321 Q51.4748 28.71632 52.258801 28.71632 Q52.510803 28.68832 52.818802 28.464321 Q53.406803 27.90432 53.966801 25.776321 Q54.134804 25.21632 54.246803 25.18832 Q54.302803 25.16032 54.526802 25.16032 L54.638802 25.16032 Q55.170799 25.16032 55.170799 25.384321 Q55.170799 25.496321 55.0868 25.832321 Q54.470802 28.18432 53.574802 29.08032 Q52.930801 29.724321 52.006802 29.724321 Q50.242802 29.724321 49.542801 28.352322 Q49.402802 28.072321 49.402802 28.016321 Q49.402802 27.960321 49.122803 28.24032 Q47.610802 29.752321 45.818802 29.752321 L45.818802 29.752321 Z" fill="rgba(0,0,0,1)" fill-rule="evenodd" stroke="none"/><path d="M57.874199 17.37632 Q57.902199 17.37632 59.904202 17.222321 Q61.9062 17.068321 61.9342 17.068321 Q62.270203 17.068321 62.270203 17.29232 Q62.270203 17.46032 60.982201 22.69632 L59.638199 28.016321 L59.722198 28.016321 L59.778202 27.988321 Q59.862202 27.960321 59.960201 27.91832 Q60.058201 27.87632 60.1422 27.84832 Q62.9422 26.756321 65.182198 24.110321 Q67.422203 21.464321 68.262199 18.412319 Q68.626198 17.068321 69.690201 17.068321 Q70.054199 17.068321 70.348198 17.30632 Q70.642197 17.544319 70.642197 17.936321 Q70.642197 18.16032 70.502197 18.720322 Q69.382202 22.416321 66.190201 25.356319 Q62.998199 28.29632 58.770199 29.304321 Q58.070202 29.50032 57.790199 29.50032 Q57.7062 29.50032 57.482201 29.458321 Q57.258202 29.416321 57.230202 29.416321 Q57.062199 29.304321 57.062199 29.13632 Q57.062199 29.08032 58.266201 24.180321 L59.498199 19.252319 Q59.554199 18.860321 59.3162 18.762321 Q59.078201 18.66432 58.5182 18.66432 Q58.322201 18.66432 58.210201 18.66432 L57.6222 18.66432 Q57.454201 18.496321 57.440201 18.440319 Q57.426201 18.384319 57.510201 17.908321 Q57.5942 17.516319 57.7062 17.46032 Q57.790199 17.37632 57.874199 17.37632 L57.874199 17.37632 Z" fill="rgba(0,0,0,1)" fill-rule="evenodd" stroke="none"/><path d="M73.040123 58.012321 Q72.116119 58.012321 72.06012 57.172321 Q72.06012 56.892323 73.474121 51.23632 Q74.888123 45.580322 74.972122 45.412323 Q75.42012 43.872322 76.512123 42.416321 Q78.472122 40.00832 80.964127 39.616322 Q81.020126 39.616322 81.188126 39.602322 Q81.356125 39.588322 81.468124 39.588322 Q82.084122 39.588322 82.42012 39.672321 Q83.904121 40.00832 84.800125 41.212318 Q85.696121 42.416321 85.696121 44.23632 Q85.696121 46.728321 83.988121 49.094322 Q82.280121 51.46032 79.816124 52.104321 Q79.256119 52.24432 78.86412 52.24432 L78.556122 52.24432 Q77.576126 52.24432 77.044121 51.908321 Q76.512123 51.572323 75.896126 50.816322 L75.140121 53.95232 Q74.440125 56.66832 74.328125 57.032322 Q74.216125 57.39632 73.992119 57.620323 Q73.544121 58.012321 73.040123 58.012321 L73.040123 58.012321 Z M83.288124 42.948318 Q83.288124 41.912323 82.812119 41.268322 Q82.336121 40.624321 81.412125 40.624321 Q80.432121 40.624321 79.452126 41.450321 Q78.472122 42.276321 77.884125 43.56432 Q77.492126 44.43232 76.820122 47.204323 L76.344124 49.108322 Q76.568123 50.088322 77.18412 50.662323 Q77.800125 51.23632 78.696121 51.23632 Q79.760124 51.23632 80.76812 50.228321 Q81.832123 49.248322 82.42012 47.232323 Q83.288124 43.984322 83.288124 42.948318 L83.288124 42.948318 Z" fill="rgba(0,0,0,1)" fill-rule="evenodd" stroke="none"/><path d="M99.24379 32.08432 Q99.24379 31.564322 99.803795 31.284321 L125.283791 31.284321 Q125.883789 31.564322 125.883789 32.08432 Q125.883789 32.524323 125.323792 32.844322 L112.60379 32.884323 L99.883789 32.884323 Q99.24379 32.684322 99.24379 32.08432 L99.24379 32.08432 Z M99.24379 39.844322 Q99.24379 39.24432 99.883789 39.044319 L125.323792 39.044319 Q125.363792 39.08432 125.503792 39.184322 Q125.643791 39.284321 125.703789 39.344322 Q125.763794 39.40432 125.823792 39.544319 Q125.883789 39.684322 125.883789 39.844322 Q125.883789 40.364323 125.283791 40.644321 L99.803795 40.644321 Q99.24379 40.364323 99.24379 39.844322 L99.24379 39.844322 Z" fill="rgba(0,0,0,1)" fill-rule="evenodd" stroke="none"/><path d="M142.186111 48.804321 Q142.906097 48.804321 143.386108 49.24432 Q143.866104 49.684322 143.866104 50.40432 Q143.866104 51.484322 143.066101 52.24432 Q142.786102 52.524323 142.866104 52.524323 Q143.306107 52.644321 145.266098 52.644321 Q146.786102 52.644321 147.666107 52.164322 Q148.586105 51.724319 149.386108 50.824322 Q150.186111 49.92432 150.506104 48.964321 Q151.666107 44.92432 151.666107 44.24432 Q150.226105 45.444321 148.46611 45.884319 Q147.986099 45.964321 147.46611 45.964321 Q144.866104 45.964321 143.366104 44.144321 Q141.866104 42.324322 141.866104 39.564323 Q141.866104 37.044319 143.026108 34.724319 Q144.866104 30.884321 148.306107 29.164322 Q150.146103 28.284321 151.786102 28.284321 Q153.786102 28.284321 155.266098 30.204323 Q155.3461 30.124321 155.426102 30.004322 Q155.986099 29.084322 157.10611 29.084322 Q157.626099 29.084322 158.026108 29.404322 Q158.426102 29.724321 158.426102 30.204323 Q158.426102 30.804321 156.146103 39.884323 Q153.866104 48.964321 153.746109 49.164322 Q152.986099 51.324322 150.60611 52.74432 Q148.226105 54.164322 145.266098 54.164322 Q140.666107 54.164322 139.826111 52.40432 Q139.626099 52.044319 139.626099 51.444321 Q139.626099 50.40432 140.3461 49.604321 Q141.066101 48.804321 142.186111 48.804321 L142.186111 48.804321 Z M154.586105 32.844322 Q154.266098 31.804321 153.96611 31.244322 Q153.666107 30.684322 153.026108 30.224321 Q152.386108 29.764322 151.46611 29.764322 Q151.386108 29.764322 151.2061 29.784321 Q151.026108 29.804321 150.986099 29.804321 Q149.306107 30.204323 148.066101 31.884321 Q146.946106 33.364323 145.946106 37.284321 Q145.266098 40.004322 145.266098 41.284321 Q145.266098 44.444321 147.746109 44.444321 Q150.026108 44.444321 152.146103 41.644321 L152.46611 41.24432 Q153.906097 35.644321 154.586105 32.844322 L154.586105 32.844322 Z" fill="rgba(0,0,0,1)" fill-rule="evenodd" stroke="none"/><path d="M166.628098 29.752321 Q165.172104 29.752321 164.024094 29.10832 Q163.716095 30.340321 163.352097 31.824322 Q162.764099 34.120319 162.6521 34.498322 Q162.5401 34.87632 162.316101 35.100319 Q161.868103 35.492321 161.36409 35.492321 Q160.972092 35.492321 160.692093 35.254322 Q160.412094 35.016319 160.384094 34.652321 Q160.384094 34.372322 162.442093 26.19632 Q164.500092 18.020321 164.584091 17.852322 Q164.920105 17.068321 165.872101 17.068321 Q166.236099 17.096321 166.50209 17.30632 Q166.768097 17.516319 166.768097 17.880322 Q166.768097 18.21632 165.900101 21.63232 Q165.032104 25.048321 164.976105 25.468321 Q164.920105 25.776321 164.920105 26.44832 Q164.920105 28.71632 166.796097 28.71632 Q167.272095 28.71632 167.776093 28.548321 Q169.064102 28.072321 170.016098 26.56032 L170.156097 26.364321 L171.164093 22.360321 Q172.172104 18.384319 172.284103 18.13232 Q172.648102 17.37632 173.488098 17.37632 Q173.880096 17.37632 174.160095 17.586319 Q174.440094 17.79632 174.440094 18.18832 L172.312103 27.092321 Q172.284103 27.232321 172.284103 27.540321 Q172.284103 28.71632 173.0681 28.71632 Q173.320099 28.68832 173.628098 28.464321 Q174.216095 27.90432 174.776093 25.776321 Q174.944092 25.21632 175.056091 25.18832 Q175.112091 25.16032 175.33609 25.16032 L175.44809 25.16032 Q175.980103 25.16032 175.980103 25.384321 Q175.980103 25.496321 175.896103 25.832321 Q175.28009 28.18432 174.384094 29.08032 Q173.740097 29.724321 172.816101 29.724321 Q171.052094 29.724321 170.352097 28.352322 Q170.212097 28.072321 170.212097 28.016321 Q170.212097 27.960321 169.932098 28.24032 Q168.420105 29.752321 166.628098 29.752321 L166.628098 29.752321 Z" fill="rgba(0,0,0,1)" fill-rule="evenodd" stroke="none"/><path d="M184.647491 17.096321 Q184.731491 17.096321 184.941498 17.082321 Q185.151489 17.068321 185.263489 17.068321 Q187.111496 17.068321 188.329498 18.090321 Q189.547501 19.11232 189.995499 20.93232 Q190.163498 21.74432 190.191498 22.808321 L190.191498 23.620319 Q191.563492 21.548321 192.291504 18.972321 Q192.403503 18.58032 192.473495 18.510321 Q192.543503 18.440319 192.907501 18.440319 Q193.495499 18.440319 193.495499 18.63632 Q193.495499 18.66432 193.383499 19.11232 Q192.571503 22.22032 190.527496 24.936321 L190.219498 25.32832 L190.247498 26.00032 Q190.331497 28.26832 190.751495 28.66032 Q190.835495 28.71632 191.003494 28.71632 Q191.395493 28.66032 191.731491 28.394321 Q192.06749 28.128321 192.207489 27.76432 Q192.263489 27.568321 192.347504 27.526321 Q192.431503 27.484322 192.767502 27.484322 Q193.327499 27.484322 193.327499 27.73632 Q193.327499 27.90432 193.1595 28.24032 Q192.851501 28.856321 192.263489 29.290321 Q191.675491 29.724321 190.947495 29.724321 L190.751495 29.724321 Q188.847504 29.724321 188.203491 27.708321 L188.119492 27.512321 Q186.635498 28.492321 186.467499 28.576321 Q184.395493 29.752321 182.295502 29.752321 Q180.307495 29.752321 179.089493 28.63232 Q177.87149 27.512321 177.591492 25.69232 Q177.563492 25.524321 177.563492 25.076321 Q177.563492 24.34832 177.647491 23.90032 Q178.06749 21.380322 180.083496 19.378321 Q182.099503 17.37632 184.647491 17.096321 L184.647491 17.096321 Z M179.999496 26.08432 Q179.999496 27.288321 180.643494 28.002321 Q181.287491 28.71632 182.435501 28.71632 Q183.163498 28.71632 184.059494 28.492321 Q185.627502 28.100321 187.111496 26.98032 Q187.307495 26.840321 187.489502 26.686321 Q187.671494 26.53232 187.783493 26.420321 L187.895493 26.308321 L187.867493 26.05632 Q187.867493 25.804321 187.8535 25.31432 Q187.839493 24.82432 187.839493 24.34832 Q187.811493 23.284321 187.797501 22.69632 Q187.783493 22.10832 187.685501 21.25432 Q187.587494 20.40032 187.419495 19.93832 Q187.251495 19.47632 186.957489 19.00032 Q186.663498 18.524321 186.201492 18.31432 Q185.739502 18.104321 185.123489 18.104321 Q183.191498 18.104321 181.735489 20.148319 Q181.035492 21.18432 180.559494 22.97632 Q179.999496 25.020321 179.999496 26.08432 L179.999496 26.08432 Z" fill="rgba(0,0,0,1)" fill-rule="evenodd" stroke="none"/><path d="M197.586716 48.804321 Q198.306702 48.804321 198.786713 49.24432 Q199.266708 49.684322 199.266708 50.40432 Q199.266708 51.484322 198.466705 52.24432 Q198.186707 52.524323 198.266708 52.524323 Q198.706711 52.644321 200.666702 52.644321 Q202.186707 52.644321 203.066711 52.164322 Q203.98671 51.724319 204.786713 50.824322 Q205.586716 49.92432 205.906708 48.964321 Q207.066711 44.92432 207.066711 44.24432 Q205.626709 45.444321 203.866714 45.884319 Q203.386703 45.964321 202.866714 45.964321 Q200.266708 45.964321 198.766708 44.144321 Q197.266708 42.324322 197.266708 39.564323 Q197.266708 37.044319 198.426712 34.724319 Q200.266708 30.884321 203.706711 29.164322 Q205.546707 28.284321 207.186707 28.284321 Q209.186707 28.284321 210.666702 30.204323 Q210.746704 30.124321 210.826706 30.004322 Q211.386703 29.084322 212.506714 29.084322 Q213.026703 29.084322 213.426712 29.404322 Q213.826706 29.724321 213.826706 30.204323 Q213.826706 30.804321 211.546707 39.884323 Q209.266708 48.964321 209.146713 49.164322 Q208.386703 51.324322 206.006714 52.74432 Q203.626709 54.164322 200.666702 54.164322 Q196.066711 54.164322 195.226715 52.40432 Q195.026703 52.044319 195.026703 51.444321 Q195.026703 50.40432 195.746704 49.604321 Q196.466705 48.804321 197.586716 48.804321 L197.586716 48.804321 Z M209.98671 32.844322 Q209.666702 31.804321 209.366714 31.244322 Q209.066711 30.684322 208.426712 30.224321 Q207.786713 29.764322 206.866714 29.764322 Q206.786713 29.764322 206.606705 29.784321 Q206.426712 29.804321 206.386703 29.804321 Q204.706711 30.204323 203.466705 31.884321 Q202.34671 33.364323 201.34671 37.284321 Q200.666702 40.004322 200.666702 41.284321 Q200.666702 44.444321 203.146713 44.444321 Q205.426712 44.444321 207.546707 41.644321 L207.866714 41.24432 Q209.306702 35.644321 209.98671 32.844322 L209.98671 32.844322 Z" fill="rgba(0,0,0,1)" fill-rule="evenodd" stroke="none"/><path d="M217.212708 17.37632 Q217.240707 17.37632 219.242706 17.222321 Q221.244705 17.068321 221.272705 17.068321 Q221.608704 17.068321 221.608704 17.29232 Q221.608704 17.46032 220.320709 22.69632 L218.9767 28.016321 L219.060699 28.016321 L219.116699 27.988321 Q219.200699 27.960321 219.298706 27.91832 Q219.396698 27.87632 219.480698 27.84832 Q222.280701 26.756321 224.520706 24.110321 Q226.760696 21.464321 227.600708 18.412319 Q227.964706 17.068321 229.028702 17.068321 Q229.3927 17.068321 229.686707 17.30632 Q229.980698 17.544319 229.980698 17.936321 Q229.980698 18.16032 229.840698 18.720322 Q228.720703 22.416321 225.528702 25.356319 Q222.3367 28.29632 218.108704 29.304321 Q217.408707 29.50032 217.128708 29.50032 Q217.044708 29.50032 216.820694 29.458321 Q216.596695 29.416321 216.568695 29.416321 Q216.400696 29.304321 216.400696 29.13632 Q216.400696 29.08032 217.604706 24.180321 L218.8367 19.252319 Q218.8927 18.860321 218.654709 18.762321 Q218.416702 18.66432 217.856705 18.66432 Q217.660706 18.66432 217.548706 18.66432 L216.960709 18.66432 Q216.792694 18.496321 216.778702 18.440319 Q216.764694 18.384319 216.848694 17.908321 Q216.932709 17.516319 217.044708 17.46032 Q217.128708 17.37632 217.212708 17.37632 L217.212708 17.37632 Z" fill="rgba(0,0,0,1)" fill-rule="evenodd" stroke="none"/><path d="M231.56662 34.87632 Q231.398621 34.708321 231.398621 34.652321 Q231.398621 34.568321 233.624619 25.69232 Q235.850616 16.81632 235.962616 16.42432 Q236.718628 14.07232 238.062622 12.392321 Q238.790619 11.440321 239.406616 11.020321 Q240.666626 9.95632 242.234619 9.732321 Q242.290619 9.732321 242.500626 9.718321 Q242.710617 9.704321 242.822632 9.704321 Q244.586624 9.704321 245.692627 10.75432 Q246.79863 11.804319 246.79863 13.484321 Q246.79863 14.85632 246.014618 16.158321 Q245.230621 17.46032 243.886627 18.356319 L244.250626 18.720322 Q245.678619 20.148319 245.678619 22.388321 Q245.678619 25.27232 243.690628 27.260321 Q241.702621 29.248322 238.986618 29.668322 Q238.706619 29.724321 237.950623 29.724321 Q235.458618 29.724321 234.394623 27.79232 L234.282623 27.624321 L232.490631 34.708321 Q232.434616 34.87632 231.930618 34.87632 L231.56662 34.87632 L231.56662 34.87632 Z M240.638626 17.37632 Q241.702621 17.37632 242.710617 17.71232 L242.878632 17.572319 Q244.362625 16.48032 244.782623 13.76432 Q244.838623 13.512321 244.838623 12.840321 Q244.838623 12.336321 244.810623 12.19632 Q244.418625 10.76832 242.682617 10.76832 Q242.09462 10.76832 241.674622 10.88032 Q240.218628 11.27232 238.986618 12.826321 Q237.754623 14.380321 237.026627 16.704319 Q236.886627 17.152321 235.962616 20.82032 Q235.03862 24.488319 235.01062 24.74032 Q234.98262 24.880322 234.98262 25.32832 Q234.98262 26.89632 235.808624 27.80632 Q236.634628 28.71632 238.034622 28.71632 Q240.554626 28.71632 241.98262 26.714321 Q243.410629 24.71232 243.550629 21.80032 L243.550629 21.63232 Q243.550629 20.00832 242.570618 19.02832 Q241.394623 19.420321 240.190628 19.420321 Q237.978622 19.420321 237.978622 18.55232 Q237.978622 18.356319 238.062622 18.16032 Q238.45462 17.37632 240.638626 17.37632 L240.638626 17.37632 Z" fill="rgba(0,0,0,1)" fill-rule="evenodd" stroke="none"/><path d="M264.670105 45.964321 Q263.590088 45.964321 261.090088 45.92432 Q258.590088 45.884319 257.190094 45.884319 Q252.030106 45.884319 250.630096 45.964321 L250.030106 45.964321 Q249.7901 45.724319 249.770096 45.624321 Q249.750092 45.524323 249.870102 44.884323 Q250.030106 44.364323 250.270096 44.124321 L251.390106 44.124321 Q253.7901 44.124321 254.630096 44.004322 Q255.310104 43.964321 255.630096 43.76432 Q255.670105 43.724319 255.710098 43.724319 Q255.910095 43.604321 256.110107 42.90432 Q256.310089 42.204323 257.710083 36.644321 Q258.390106 33.92432 258.830109 32.204323 Q261.630096 21.204321 261.630096 20.964321 Q261.630096 20.764322 260.470093 20.764322 L259.230103 20.764322 Q256.55011 20.764322 255.710098 21.004322 Q253.990097 21.364321 253.110092 22.404322 Q252.030106 23.604322 250.750092 27.284321 Q250.470093 28.164322 250.350098 28.324322 Q250.230103 28.484322 249.7901 28.484322 L249.670105 28.484322 Q249.150101 28.484322 249.030106 28.364321 Q248.910095 28.244322 248.910095 28.164322 Q248.910095 27.924322 250.110092 24.324322 Q250.990097 21.564322 251.590103 19.924322 Q251.830093 19.164322 252.110092 18.884321 L270.830109 18.884321 Q276.150085 18.964321 276.190094 19.124321 L276.230103 19.164322 Q276.230103 19.244322 276.230103 19.284321 Q276.230103 19.524323 275.53009 23.844322 Q274.830109 28.164322 274.7901 28.204321 Q274.7901 28.324322 274.630096 28.404322 Q274.55011 28.484322 274.03009 28.484322 Q273.7901 28.484322 273.650085 28.464321 Q273.510101 28.444321 273.470093 28.424322 Q273.430084 28.404322 273.350098 28.304321 Q273.270111 28.204321 273.230103 28.164322 Q273.230103 27.884321 273.350098 27.084322 Q273.710083 24.924322 273.710083 23.924322 Q273.710083 23.004322 273.470093 22.404322 Q273.230103 21.804321 272.930084 21.484322 Q272.630096 21.164322 271.850098 21.004322 Q271.070099 20.844322 270.510101 20.804321 Q269.950104 20.764322 268.670105 20.724321 Q266.830109 20.724321 266.330109 20.784321 Q265.830109 20.844322 265.630096 21.084322 Q265.590088 21.124321 262.7901 32.26432 Q259.990112 43.40432 259.990112 43.56432 Q259.990112 43.844322 260.510101 43.92432 Q261.070099 44.08432 263.510101 44.124321 Q264.870087 44.124321 265.130096 44.164322 Q265.390106 44.204323 265.470093 44.40432 Q265.510101 44.524323 265.390106 45.08432 Q265.350098 45.204323 265.330109 45.344322 Q265.310089 45.484322 265.2901 45.544323 Q265.270111 45.604321 265.230103 45.704323 Q265.190094 45.804321 265.170105 45.824322 Q265.150085 45.844322 265.110107 45.884319 Q265.070099 45.92432 265.010101 45.944321 Q264.950104 45.964321 264.870087 45.964321 Q264.7901 45.964321 264.670105 45.964321 L264.670105 45.964321 Z" fill="rgba(0,0,0,1)" fill-rule="evenodd" stroke="none"/><path d="M279.481323 39.616322 Q279.565308 39.616322 279.775299 39.602322 Q279.985321 39.588322 280.097321 39.588322 Q281.945312 39.588322 283.1633 40.610321 Q284.381317 41.63232 284.829315 43.45232 Q284.997314 44.26432 285.025299 45.32832 L285.025299 46.14032 Q286.397308 44.068321 287.125305 41.492321 Q287.237305 41.100319 287.307312 41.030319 Q287.377319 40.96032 287.741302 40.96032 Q288.329315 40.96032 288.329315 41.156319 Q288.329315 41.184319 288.217316 41.63232 Q287.405304 44.740322 285.361328 47.456322 L285.053314 47.84832 L285.081299 48.520321 Q285.165314 50.788322 285.585327 51.180321 Q285.669312 51.23632 285.837311 51.23632 Q286.229309 51.180321 286.565308 50.914322 Q286.901306 50.648323 287.041321 50.284321 Q287.097321 50.088322 287.181305 50.046322 Q287.26532 50.004322 287.601318 50.004322 Q288.161316 50.004322 288.161316 50.256321 Q288.161316 50.42432 287.993317 50.760323 Q287.685303 51.37632 287.097321 51.810322 Q286.509308 52.24432 285.781311 52.24432 L285.585327 52.24432 Q283.681305 52.24432 283.037323 50.228321 L282.953308 50.032322 Q281.469299 51.012321 281.3013 51.096321 Q279.229309 52.27232 277.129303 52.27232 Q275.141327 52.27232 273.923309 51.152321 Q272.705322 50.032322 272.425323 48.212322 Q272.397308 48.044319 272.397308 47.596321 Q272.397308 46.86832 272.481323 46.420322 Q272.901306 43.900322 274.917297 41.898323 Q276.933319 39.89632 279.481323 39.616322 L279.481323 39.616322 Z M274.833313 48.604321 Q274.833313 49.808319 275.477325 50.52232 Q276.121307 51.23632 277.269318 51.23632 Q277.997314 51.23632 278.893311 51.012321 Q280.461304 50.620319 281.945312 49.50032 Q282.141327 49.360321 282.323303 49.206322 Q282.50531 49.052322 282.61731 48.940323 L282.729309 48.82832 L282.701324 48.576321 Q282.701324 48.324322 282.687317 47.83432 Q282.673309 47.344322 282.673309 46.86832 Q282.645325 45.804321 282.631317 45.21632 Q282.61731 44.628319 282.519318 43.774323 Q282.421326 42.920319 282.253326 42.458321 Q282.085327 41.996323 281.791321 41.520321 Q281.497314 41.044319 281.035309 40.83432 Q280.573303 40.624321 279.957306 40.624321 Q278.025299 40.624321 276.569305 42.66832 Q275.869324 43.704323 275.393311 45.496323 Q274.833313 47.540321 274.833313 48.604321 L274.833313 48.604321 Z" fill="rgba(0,0,0,1)" fill-rule="evenodd" stroke="none"/><path d="M290.272522 57.39632 Q290.104523 57.228321 290.104523 57.172321 Q290.104523 57.088322 292.330505 48.212322 Q294.556519 39.336319 294.668518 38.944321 Q295.4245 36.592319 296.768524 34.912323 Q297.496521 33.96032 298.112518 33.540321 Q299.372498 32.476318 300.940521 32.252319 Q300.996521 32.252319 301.206512 32.238319 Q301.416504 32.224319 301.528503 32.224319 Q303.292511 32.224319 304.398499 33.274323 Q305.504517 34.324318 305.504517 36.004322 Q305.504517 37.37632 304.72052 38.678322 Q303.936523 39.98032 302.592499 40.87632 L302.956512 41.240322 Q304.384521 42.66832 304.384521 44.908321 Q304.384521 47.79232 302.396515 49.780319 Q300.408508 51.768322 297.692505 52.18832 Q297.412506 52.24432 296.656525 52.24432 Q294.16452 52.24432 293.100525 50.312321 L292.988525 50.144321 L291.196503 57.228321 Q291.140503 57.39632 290.636505 57.39632 L290.272522 57.39632 L290.272522 57.39632 Z M299.344513 39.89632 Q300.408508 39.89632 301.416504 40.232323 L301.584503 40.092319 Q303.068512 39.00032 303.488525 36.284321 Q303.544525 36.032322 303.544525 35.360321 Q303.544525 34.856323 303.51651 34.71632 Q303.124512 33.288322 301.388519 33.288322 Q300.800507 33.288322 300.380524 33.400322 Q298.9245 33.79232 297.692505 35.346321 Q296.46051 36.900322 295.732513 39.224319 Q295.592499 39.672321 294.668518 43.340321 Q293.744507 47.00832 293.716522 47.260323 Q293.688507 47.400322 293.688507 47.84832 Q293.688507 49.416321 294.514496 50.326321 Q295.340515 51.23632 296.740509 51.23632 Q299.260498 51.23632 300.688507 49.234322 Q302.116516 47.232323 302.2565 44.32032 L302.2565 44.152321 Q302.2565 42.52832 301.27652 41.548321 Q300.100525 41.940323 298.896515 41.940323 Q296.684509 41.940323 296.684509 41.072319 Q296.684509 40.87632 296.768524 40.680321 Q297.160522 39.89632 299.344513 39.89632 L299.344513 39.89632 Z" fill="rgba(0,0,0,1)" fill-rule="evenodd" stroke="none"/><path d="M308.399963 58.012321 Q307.475983 58.012321 307.419983 57.172321 Q307.419983 56.892323 308.833984 51.23632 Q310.247986 45.580322 310.33197 45.412323 Q310.779968 43.872322 311.871979 42.416321 Q313.83197 40.00832 316.323975 39.616322 Q316.379974 39.616322 316.547974 39.602322 Q316.715973 39.588322 316.827972 39.588322 Q317.44397 39.588322 317.779968 39.672321 Q319.263977 40.00832 320.159973 41.212318 Q321.055969 42.416321 321.055969 44.23632 Q321.055969 46.728321 319.347961 49.094322 Q317.639984 51.46032 315.175964 52.104321 Q314.615967 52.24432 314.223969 52.24432 L313.915985 52.24432 Q312.935974 52.24432 312.403961 51.908321 Q311.871979 51.572323 311.255981 50.816322 L310.499969 53.95232 Q309.799957 56.66832 309.687958 57.032322 Q309.575958 57.39632 309.351959 57.620323 Q308.903961 58.012321 308.399963 58.012321 L308.399963 58.012321 Z M318.64798 42.948318 Q318.64798 41.912323 318.171967 41.268322 Q317.695984 40.624321 316.771973 40.624321 Q315.791962 40.624321 314.811981 41.450321 Q313.83197 42.276321 313.243958 43.56432 Q312.851959 44.43232 312.179962 47.204323 L311.703979 49.108322 Q311.927979 50.088322 312.543976 50.662323 Q313.159973 51.23632 314.055969 51.23632 Q315.119965 51.23632 316.12796 50.228321 Q317.191956 49.248322 317.779968 47.232323 Q318.64798 43.984322 318.64798 42.948318 L318.64798 42.948318 Z" fill="rgba(0,0,0,1)" fill-rule="evenodd" stroke="none"/></svg>