<svg xmlns="http://www.w3.org/2000/svg" viewBox="0 0 190.66988 92.0008" width="190.66988" height="92.0008"><path d="M26.6 46.200001 Q26.6 46.48 26.32 46.760002 L15.04 46.760002 L15.04 47.360001 Q15.04 50.32 15.84 51.84 Q17.279999 54.799999 20.799999 54.799999 Q22.52 54.799999 23.68 53.52 Q24.48 52.720001 24.92 51.439999 Q25.040001 51 25.16 50.880001 Q25.279999 50.760002 25.799999 50.760002 Q26.6 50.760002 26.6 51.16 Q26.6 51.32 26.48 51.68 Q25.719999 53.759998 24.059999 55.099998 Q22.4 56.439999 20 56.439999 Q19.24 56.439999 18.24 56.240002 Q15.96 55.799999 14.16 54.16 Q12.36 52.52 11.6 50.200001 Q11.12 48.760002 11.12 47.279999 Q11.12 43.599998 13.28 41.060001 Q15.440001 38.52 18.599998 38.120003 Q18.76 38.080002 19.16 38.080002 Q22.799999 38.080002 24.700001 40.220001 Q26.6 42.360001 26.6 46.200001 L26.6 46.200001 Z M23.32 45 Q22.959999 40.639999 20.360001 39.720001 Q20.08 39.599998 19.52 39.559998 Q17.440001 39.559998 16.119999 41.48 Q15.32 42.760002 15.08 45.040001 L15.08 45.32 L23.32 45.32 L23.32 45 L23.32 45 Z" fill="rgba(0,0,0,1)" fill-rule="evenodd" stroke="none"/><path d="M35.818001 56 Q35.217999 55.880001 31.858 55.880001 Q28.898001 55.880001 28.458 56 L28.218 56 L28.218 54.16 L28.778 54.16 Q31.618 53.959999 32.938 52.639999 Q33.098 52.48 34.978001 50 L36.818001 47.599998 L34.498001 44.48 Q32.138 41.240002 32.057999 41.16 Q31.698 40.799999 30.978001 40.68 Q30.737999 40.68 29.538 40.599998 L28.417999 40.599998 L28.417999 38.760002 L28.698 38.760002 Q30.138 38.84 32.818001 38.84 L34.577999 38.84 Q36.697998 38.84 36.938 38.760002 L37.257999 38.760002 L37.257999 40.599998 Q35.818001 40.799999 35.818001 41.240002 Q35.818001 41.360001 37.077999 43.119999 Q38.337997 44.880001 38.658001 45.200001 L39.658001 43.84 Q40.737999 42.48 40.778 42.32 Q40.938 42.040001 40.938 41.68 Q40.938 41.040001 40.458 40.760002 Q40.377998 40.720001 40.217999 40.639999 L40.057999 40.599998 L39.858002 40.599998 L39.858002 38.760002 L40.138 38.760002 Q40.658001 38.880001 44.098 38.880001 Q47.138 38.880001 47.498001 38.760002 L47.737999 38.760002 L47.737999 40.599998 L47.458 40.599998 Q45.498001 40.599998 44.218002 41.279999 Q43.618 41.560001 43.178001 42 Q42.737999 42.440002 41.778 43.68 Q41.498001 44.080002 40.917999 44.84 Q40.337997 45.599998 40.257999 45.720001 L39.618 46.560001 L42.098 49.959999 Q44.697998 53.48 44.778 53.560001 Q45.377998 54.16 47.737999 54.16 L48.417999 54.16 L48.417999 56 L48.178001 56 Q47.778 55.880001 44.337997 55.880001 Q40.658001 55.880001 39.938 56 L39.577999 56 L39.577999 54.16 L39.697998 54.16 Q40.138 54.16 40.577999 53.939999 Q41.017998 53.720001 41.017998 53.48 Q41.017998 53.439999 37.778 49 Q37.737999 49.040001 36.517998 50.68 Q35.298 52.32 35.178001 52.48 Q35.017998 52.759998 35.017998 53.080002 Q35.017998 53.52 35.318001 53.84 Q35.618 54.16 36.017998 54.16 Q36.098 54.16 36.098 55.080002 L36.098 56 L35.818001 56 L35.818001 56 Z" fill="rgba(0,0,0,1)" fill-rule="evenodd" stroke="none"/><path d="M49.769199 38.760002 Q49.929199 38.760002 52.889198 38.540001 Q55.849197 38.32 55.929199 38.32 L56.049198 38.32 L56.049198 39.360001 L56.089199 40.400002 L56.409199 40.119999 Q58.849197 38.360001 61.929199 38.360001 Q62.809196 38.360001 63.209198 38.440002 Q66.009201 39 67.889198 41.440002 Q69.769196 43.880001 69.769196 47.360001 Q69.769196 48.119999 69.689194 48.760002 Q69.2892 51.360001 67.749199 53.240002 Q66.209198 55.119999 63.769199 56.040001 Q62.569199 56.439999 61.2892 56.439999 Q58.569199 56.439999 56.489197 54.68 L56.169197 54.400002 L56.169197 57.799999 Q56.169197 61.279999 56.209198 61.360001 Q56.529198 61.919998 58.209198 61.919998 L58.6492 61.919998 L59.2892 61.919998 L59.2892 63.759998 L58.9692 63.759998 Q58.449196 63.639999 54.489197 63.639999 Q50.529198 63.639999 50.009197 63.759998 L49.689198 63.759998 L49.689198 61.919998 L50.329197 61.919998 L50.769199 61.919998 Q52.4492 61.919998 52.769199 61.360001 L52.769199 61.040001 Q52.769199 60.759998 52.769199 60.259998 Q52.769199 59.759998 52.7892 59.080002 Q52.809196 58.400002 52.809196 57.52 Q52.809196 56.639999 52.809196 55.740002 Q52.809196 54.84 52.809196 53.779999 Q52.809196 52.720001 52.809196 51.760002 Q52.809196 50.400002 52.809196 48.919998 Q52.809196 47.440002 52.809196 46.279999 Q52.809196 45.119999 52.7892 44.139999 Q52.769199 43.16 52.769199 42.580002 Q52.769199 42 52.769199 41.959999 Q52.649197 41.200001 52.189198 40.940002 Q51.729198 40.68 50.409199 40.599998 L49.689198 40.599998 L49.689198 39.68 Q49.689198 38.760002 49.769199 38.760002 L49.769199 38.760002 Z M61.089199 39.919998 Q58.249199 39.919998 56.169197 42.52 L56.169197 52.080002 Q57.809196 54.959999 60.649197 54.959999 Q62.329197 54.959999 63.689198 53.48 Q65.849197 51.240002 65.849197 47.279999 Q65.849197 44.52 64.6092 42.400002 Q63.369198 40.279999 61.649197 39.959999 Q61.489197 39.919998 61.089199 39.919998 L61.089199 39.919998 Z" fill="rgba(0,0,0,1)" fill-rule="evenodd" stroke="none"/><path d="M93.551605 81.599998 Q93.551605 81.720001 93.3116 81.959999 L92.191605 81.959999 Q88.111603 78.479996 85.071602 73.459999 Q82.031601 68.440002 80.391602 62.439999 Q78.3116 54.959999 78.3116 46 Q78.3116 37.080002 80.391602 29.52 Q83.751602 17.240002 92.191605 10 L93.3116 10 Q93.551605 10.240002 93.551605 10.360001 Q93.551605 10.52 93.031601 11.080002 Q91.831604 12.400002 90.551605 14 Q81.9916 25.52 81.9916 45.959999 Q81.9916 69 93.031601 80.879997 Q93.551605 81.440002 93.551605 81.599998 L93.551605 81.599998 Z" fill="rgba(0,0,0,1)" fill-rule="evenodd" stroke="none"/><path d="M101.760483 30.371681 Q101.592484 30.203682 101.592484 30.063683 Q101.704483 29.307682 102.46048 28.131681 Q103.776482 26.143681 105.764481 25.835682 Q106.156479 25.779682 106.352486 25.779682 Q107.332481 25.779682 108.158485 26.28368 Q108.984482 26.787682 109.34848 27.543682 Q109.712479 27.06768 109.796478 26.955681 Q110.832481 25.779682 112.176483 25.779682 Q113.324486 25.779682 114.038483 26.437681 Q114.75248 27.09568 114.75248 28.04768 Q114.75248 28.91568 114.262482 29.503681 Q113.772484 30.091682 112.96048 30.091682 Q112.428482 30.091682 112.092484 29.78368 Q111.756485 29.475681 111.756485 28.971682 Q111.756485 27.683681 113.156479 27.207682 Q113.156479 27.17968 112.84848 27.011681 Q112.568481 26.843681 112.036484 26.843681 Q111.672485 26.843681 111.504486 26.899681 Q110.440483 27.347681 109.936485 28.747681 Q109.852486 28.971682 109.124481 31.869682 Q108.396484 34.767681 108.340485 35.131683 Q108.256485 35.551682 108.256485 35.97168 Q108.256485 36.643681 108.648483 37.035683 Q109.040482 37.427681 109.684479 37.427681 Q110.860481 37.427681 111.812485 36.433681 Q112.764481 35.439682 113.100479 34.23568 Q113.184479 33.955681 113.268478 33.913681 Q113.352486 33.871681 113.716484 33.871681 Q114.248482 33.871681 114.248482 34.09568 Q114.248482 34.12368 114.192482 34.403683 Q113.716484 36.139683 112.232483 37.427681 Q110.916481 38.46368 109.46048 38.46368 Q107.500481 38.46368 106.492485 36.69968 Q105.680481 37.959682 104.420479 38.379681 Q104.16848 38.43568 103.692482 38.43568 Q102.068481 38.43568 101.396484 37.287682 Q101.116486 36.81168 101.116486 36.167683 Q101.116486 35.327682 101.620483 34.739681 Q102.124481 34.15168 102.908485 34.15168 Q104.11248 34.15168 104.11248 35.327682 Q104.11248 36.363682 103.132484 36.839684 Q103.076485 36.867683 102.992485 36.909683 Q102.908485 36.951683 102.852486 36.979683 Q102.796486 37.007683 102.768478 37.007683 L102.684479 37.035683 Q102.684479 37.119682 103.104485 37.287682 Q103.440483 37.427681 103.832481 37.427681 Q104.840485 37.427681 105.568481 36.167683 Q105.87648 35.663681 106.660484 32.527679 Q106.828484 31.883682 107.024483 31.099682 Q107.220482 30.315681 107.318481 29.895681 Q107.416481 29.475681 107.444481 29.391682 Q107.58448 28.635681 107.58448 28.299683 Q107.58448 27.627682 107.220482 27.235682 Q106.856483 26.843681 106.212479 26.843681 Q104.952484 26.843681 104.028481 27.809681 Q103.104485 28.775681 102.740479 30.035683 Q102.684479 30.287682 102.614479 30.329681 Q102.544479 30.371681 102.152481 30.371681 L101.760483 30.371681 L101.760483 30.371681 Z" fill="rgba(0,0,0,1)" fill-rule="evenodd" stroke="none"/><path d="M117.707321 31.155682 Q117.707321 30.791681 118.099319 30.59568 L126.471321 30.59568 L126.471321 26.395681 L126.499321 22.195683 Q126.77932 21.83168 127.031319 21.83168 Q127.395325 21.83168 127.591324 22.251682 L127.591324 30.59568 L135.935318 30.59568 Q136.355316 30.819681 136.355316 31.155682 Q136.355316 31.491682 135.935318 31.715681 L127.591324 31.715681 L127.591324 40.059681 Q127.395325 40.451683 127.031319 40.451683 Q126.66732 40.451683 126.471321 40.059681 L126.471321 31.715681 L118.099319 31.715681 Q117.707321 31.519682 117.707321 31.155682 L117.707321 31.155682 Z" fill="rgba(0,0,0,1)" fill-rule="evenodd" stroke="none"/><path d="M150.853165 26.087681 Q151.245163 26.087681 151.525162 26.29768 Q151.805161 26.507681 151.805161 26.871681 Q151.805161 27.235682 150.433167 32.751682 Q149.061157 38.267681 148.865158 38.799683 Q148.41716 40.17168 147.423157 41.333683 Q146.429153 42.495682 145.113159 43.167683 Q143.601166 43.895683 142.285156 43.895683 Q140.157166 43.895683 139.401154 42.551682 Q139.121155 42.159683 139.121155 41.431683 Q139.121155 40.479683 139.653168 39.947681 Q140.241165 39.41568 140.885162 39.41568 Q142.117157 39.41568 142.117157 40.591682 Q142.117157 41.627682 141.137161 42.103683 Q141.081161 42.131683 140.997162 42.173683 Q140.913162 42.215683 140.857162 42.243683 Q140.801163 42.271683 140.773163 42.271683 L140.689163 42.299683 Q140.773163 42.467682 141.277161 42.663681 Q141.725159 42.83168 142.173157 42.83168 L142.397156 42.83168 Q142.873154 42.83168 143.125153 42.775681 Q144.189163 42.467682 145.141159 41.347683 Q146.093155 40.22768 146.597168 38.659683 Q146.905167 37.735683 146.905167 37.56768 Q146.905167 37.53968 146.849167 37.58168 Q146.793167 37.62368 146.681152 37.70768 Q145.645157 38.46368 144.385162 38.46368 Q142.957153 38.46368 142.033157 37.791683 Q141.109161 37.119682 140.829163 35.85968 Q140.801163 35.663681 140.801163 34.99168 Q140.801163 34.319683 140.857162 33.955681 Q141.053162 32.751682 142.145157 29.839682 Q142.761154 28.187681 142.761154 27.543682 Q142.761154 27.15168 142.691162 26.997681 Q142.621155 26.843681 142.369156 26.843681 L142.229156 26.843681 Q141.585159 26.843681 140.997162 27.431683 Q140.101166 28.327682 139.625153 30.119682 Q139.625153 30.147682 139.597153 30.217682 Q139.569153 30.287682 139.555161 30.301682 Q139.541153 30.315681 139.513153 30.343681 Q139.485153 30.371681 139.415161 30.371681 Q139.345154 30.371681 139.289154 30.371681 Q139.233154 30.371681 139.065155 30.371681 L138.673157 30.371681 Q138.449158 30.147682 138.589157 29.72768 Q139.177155 27.767681 140.353165 26.675682 Q141.305161 25.779682 142.341156 25.779682 Q143.517166 25.779682 144.217163 26.423681 Q144.91716 27.06768 144.91716 28.215681 Q144.86116 28.747681 144.83316 28.80368 Q144.83316 28.971682 144.413162 30.007681 Q143.265167 33.115681 143.041153 34.571682 Q143.013153 34.795681 143.013153 35.215683 Q143.013153 36.279682 143.349167 36.839684 Q143.685165 37.399681 144.581161 37.399681 Q145.225159 37.399681 145.799164 37.063683 Q146.373154 36.72768 146.66716 36.405682 Q146.961166 36.083683 147.409164 35.523682 Q147.409164 35.495682 147.927155 33.409683 Q148.44516 31.323681 149.005157 29.167683 Q149.565155 27.011681 149.649155 26.843681 Q150.013153 26.087681 150.853165 26.087681 L150.853165 26.087681 Z" fill="rgba(0,0,0,1)" fill-rule="evenodd" stroke="none"/><path d="M106.648399 69.800003 Q106.172394 69.716003 102.196396 69.716003 Q98.276398 69.716003 97.8004 69.800003 L97.464394 69.800003 L97.464394 68.512001 L98.192398 68.512001 Q99.816399 68.512001 100.292397 68.428001 Q100.516396 68.400002 100.964394 68.092003 L100.964394 53.616005 Q100.908394 53.616005 100.740395 53.700005 Q99.4524 54.204002 97.8564 54.232002 L97.324394 54.232002 L97.324394 52.944 L97.8564 52.944 Q100.208397 52.860001 101.776398 51.880005 Q102.280396 51.600002 102.644394 51.236 Q102.700394 51.152 102.9804 51.152 Q103.260399 51.152 103.456398 51.32 L103.456398 59.692001 L103.484398 68.092003 Q103.904396 68.512001 105.304398 68.512001 L106.228394 68.512001 L106.956398 68.512001 L106.956398 69.800003 L106.648399 69.800003 L106.648399 69.800003 Z" fill="rgba(0,0,0,1)" fill-rule="evenodd" stroke="none"/><path d="M110.568398 62.800003 Q110.568398 62.436005 110.960396 62.240002 L119.332397 62.240002 L119.332397 58.040001 L119.360397 53.840004 Q119.640396 53.476002 119.892395 53.476002 Q120.256393 53.476002 120.4524 53.896004 L120.4524 62.240002 L128.796402 62.240002 Q129.2164 62.464005 129.2164 62.800003 Q129.2164 63.136002 128.796402 63.360004 L120.4524 63.360004 L120.4524 71.704002 Q120.256393 72.096001 119.892395 72.096001 Q119.528397 72.096001 119.332397 71.704002 L119.332397 63.360004 L110.960396 63.360004 Q110.568398 63.164001 110.568398 62.800003 L110.568398 62.800003 Z" fill="rgba(0,0,0,1)" fill-rule="evenodd" stroke="none"/><path d="M132.402237 62.016003 Q132.234238 61.848003 132.234238 61.708004 Q132.346237 60.952003 133.102249 59.776001 Q134.418243 57.788002 136.40625 57.480003 Q136.798248 57.424004 136.994247 57.424004 Q137.974243 57.424004 138.800247 57.928001 Q139.626251 58.432003 139.99025 59.188004 Q140.354248 58.712002 140.438248 58.600002 Q141.474243 57.424004 142.818237 57.424004 Q143.966248 57.424004 144.680237 58.082001 Q145.394241 58.740002 145.394241 59.692001 Q145.394241 60.560001 144.904251 61.148003 Q144.414246 61.736004 143.602249 61.736004 Q143.070251 61.736004 142.734238 61.428001 Q142.398239 61.120003 142.398239 60.616005 Q142.398239 59.328003 143.798248 58.852005 Q143.798248 58.824001 143.49025 58.656002 Q143.210251 58.488003 142.678238 58.488003 Q142.31424 58.488003 142.14624 58.544003 Q141.082245 58.992004 140.578247 60.392002 Q140.494247 60.616005 139.766251 63.514004 Q139.038239 66.412003 138.982239 66.776001 Q138.898239 67.195999 138.898239 67.616005 Q138.898239 68.288002 139.290237 68.68 Q139.682251 69.072006 140.326248 69.072006 Q141.502243 69.072006 142.454239 68.078003 Q143.40625 67.084 143.742249 65.880005 Q143.826248 65.600006 143.910248 65.558006 Q143.994247 65.516006 144.358246 65.516006 Q144.890244 65.516006 144.890244 65.740005 Q144.890244 65.768005 144.834244 66.048004 Q144.358246 67.784004 142.874237 69.072006 Q141.558243 70.108002 140.102249 70.108002 Q138.142242 70.108002 137.134247 68.344002 Q136.32225 69.604004 135.062241 70.024002 Q134.810242 70.080002 134.334244 70.080002 Q132.710251 70.080002 132.038239 68.932007 Q131.75824 68.456001 131.75824 67.812004 Q131.75824 66.972 132.262238 66.384003 Q132.766251 65.796005 133.550247 65.796005 Q134.754242 65.796005 134.754242 66.972 Q134.754242 68.008003 133.774246 68.484001 Q133.718246 68.512001 133.634247 68.554001 Q133.550247 68.596001 133.494247 68.624001 Q133.438248 68.652 133.410248 68.652 L133.326248 68.68 Q133.326248 68.764 133.746246 68.932007 Q134.082245 69.072006 134.474243 69.072006 Q135.482239 69.072006 136.210251 67.812004 Q136.51825 67.308006 137.302246 64.172005 Q137.470245 63.528004 137.666245 62.744003 Q137.862244 61.960003 137.960251 61.540001 Q138.058243 61.120003 138.086243 61.036003 Q138.226242 60.280003 138.226242 59.944004 Q138.226242 59.272003 137.862244 58.880005 Q137.498245 58.488003 136.854248 58.488003 Q135.594238 58.488003 134.670242 59.454002 Q133.746246 60.420002 133.382248 61.680004 Q133.326248 61.932003 133.256241 61.974003 Q133.186249 62.016003 132.79425 62.016003 L132.402237 62.016003 L132.402237 62.016003 Z" fill="rgba(0,0,0,1)" fill-rule="evenodd" stroke="none"/><path d="M148.981079 53.211998 Q148.421082 53.211998 148.101089 52.852001 Q147.781082 52.492001 147.781082 51.972 Q147.781082 50.532001 148.871078 49.501999 Q149.961075 48.472 151.481079 48.472 Q153.20108 48.472 154.331085 49.402 Q155.461075 50.332001 155.721085 51.832001 Q155.761078 52.192001 155.761078 52.492001 Q155.761078 53.652 155.061081 54.672001 Q154.501083 55.512001 152.801086 56.972 Q152.081085 57.591999 150.801086 58.812 L149.621078 59.931999 L151.141083 59.952 Q154.281082 59.952 154.481079 59.852001 Q154.561081 59.832001 154.681076 59.431999 Q154.761078 59.211998 154.961075 58.071999 L154.961075 58.012001 L155.761078 58.012001 L155.761078 58.071999 L155.20108 61.731998 L155.20108 61.792 L147.781082 61.792 L147.781082 61.411999 Q147.781082 61.012001 147.821075 60.952 Q147.84108 60.911999 149.501083 59.051998 Q151.681076 56.632 152.301086 55.852001 Q153.641083 54.032001 153.641083 52.512001 Q153.641083 51.192001 152.95108 50.302002 Q152.261078 49.411999 151.021088 49.411999 Q149.861084 49.411999 149.141083 50.452 Q149.101089 50.532001 149.021088 50.672001 Q148.961075 50.771999 148.961075 50.792 Q148.961075 50.812 149.061081 50.812 Q149.561081 50.812 149.871078 51.172001 Q150.181076 51.531998 150.181076 52.012001 Q150.181076 52.512001 149.851089 52.862 Q149.521088 53.211998 148.981079 53.211998 L148.981079 53.211998 Z" fill="rgba(0,0,0,1)" fill-rule="evenodd" stroke="none"/><rect x="95.0004" y="45.2" width="61.78068" height="1.6" fill="rgba(0,0,0,1)"/><path d="M158.181076 10.48 Q158.181076 10.16 158.34108 10.080002 Q158.501083 10 159.021088 10 L159.541077 10 Q163.621078 13.48 166.661087 18.5 Q169.70108 23.52 171.34108 29.52 Q173.421082 37 173.421082 46 Q173.421082 54.880001 171.34108 62.439999 Q167.981079 74.720001 159.541077 81.959999 L159.021088 81.959999 Q158.461075 81.959999 158.321075 81.879997 Q158.181076 81.800003 158.181076 81.479996 Q158.221085 81.440002 158.70108 80.879997 Q169.741089 69.080002 169.741089 45.959999 Q169.741089 25.6 161.181076 14 Q159.901077 12.360001 158.70108 11.080002 Q158.221085 10.52 158.181076 10.48 L158.181076 10.48 Z" fill="rgba(0,0,0,1)" fill-rule="evenodd" stroke="none"/></svg>