<svg xmlns="http://www.w3.org/2000/svg" viewBox="0 0 329.624978 231.44" width="329.624978" height="231.44"><path d="M20.439999 46.163998 Q19.68 46.163998 18.08 46.143997 Q16.48 46.123997 15.68 46.123997 Q12.559999 46.123997 11.68 46.203999 Q11.32 46.203999 11.2 46.084 Q10.96 45.924 11.16 45.124001 Q11.32 44.563999 11.44 44.483997 Q11.559999 44.403999 12.2 44.363998 Q15.639999 44.243999 17.6 42.284 Q18 41.883999 22.24 37.223999 Q26.48 32.563999 26.440001 32.523998 Q22.08 21.403999 21.880001 21.203999 Q21.52 20.764 19.360001 20.723999 L18.24 20.723999 Q18 20.483999 17.98 20.383999 Q17.959999 20.283998 18.08 19.643999 Q18.24 19.123999 18.48 18.883999 L19.040001 18.883999 Q20.4 18.963999 23.880001 18.963999 Q24.759998 18.963999 26.440001 18.943998 Q28.119999 18.924 28.92 18.924 Q29.32 18.924 29.439999 18.983999 Q29.559999 19.043999 29.559999 19.283998 Q29.559999 20.243999 29.279999 20.523998 Q29.199999 20.723999 28.6 20.723999 Q27.08 20.883999 26.52 21.363998 L26.440001 21.403999 Q28.24 25.803999 29.52 29.164 L31.639999 26.803999 Q33.519997 24.764 34.599998 23.523998 Q35.84 22.203999 35.84 21.764 Q35.84 21.084 34.879997 20.803999 Q34.68 20.803999 34.360001 20.723999 Q34 20.723999 33.84 20.563999 Q33.68 20.403999 33.84 19.643999 Q34 19.123999 34.239998 18.883999 L34.720001 18.883999 Q35.599998 19.004 39.519997 19.004 Q43 19.004 43.48 18.883999 L43.799999 18.883999 Q44.040001 19.123999 44.059998 19.223999 Q44.079998 19.323999 43.959999 19.963999 Q43.799999 20.523998 43.599998 20.723999 L42.959999 20.723999 Q39.879997 20.844 37.919998 22.443998 Q37.559998 22.803999 37.48 22.844 Q37.400002 22.963999 37.279999 23.043999 Q37.119999 23.203999 33.68 27.004 L30.199999 30.843998 Q30.199999 30.883999 31.459999 34.063999 Q32.720001 37.243999 34.040001 40.523998 Q35.360001 43.803997 35.519997 43.963997 Q35.919998 44.323997 37.959999 44.363998 Q39.360001 44.363998 39.360001 44.683998 Q39.360001 45.124001 39.080002 45.963997 Q38.959999 46.163998 38.439999 46.163998 Q37.84 46.163998 36.32 46.143997 Q34.799999 46.123997 33.559998 46.123997 Q32.360001 46.123997 30.719999 46.143997 Q29.08 46.163998 28.440001 46.163998 Q27.92 46.163998 27.799999 45.963997 Q27.719999 45.843998 27.84 45.203999 Q28 44.604 28.119999 44.503998 Q28.24 44.403999 28.719999 44.363998 Q29.439999 44.323997 30.24 44.043999 Q30.92 43.723999 30.92 43.643997 L27.16 34.243999 Q27.119999 34.243999 23.380001 38.383999 Q19.639999 42.523998 19.599998 42.604 Q19.279999 42.924 19.279999 43.323997 Q19.279999 44.084 20.439999 44.323997 Q20.48 44.323997 20.68 44.343998 Q20.880001 44.363998 20.92 44.363998 Q21.4 44.363998 21.4 44.764 Q21.4 45.043999 21.279999 45.444 Q21.16 45.963997 21.040001 46.063999 Q20.92 46.163998 20.439999 46.163998 L20.439999 46.163998 Z" fill="rgba(0,0,0,1)" fill-rule="evenodd" stroke="none"/><path d="M80.366486 45.043999 Q80.366486 45.363998 80.126488 45.604 Q79.88649 45.843998 79.526489 45.843998 Q79.326492 45.843998 78.646484 45.203999 Q77.966492 44.563999 74.88649 41.483997 L70.726486 37.323997 L66.526489 41.523998 Q62.286488 45.683998 62.166489 45.764 Q62.006489 45.843998 61.88649 45.843998 Q61.56649 45.843998 61.306488 45.604 Q61.04649 45.363998 61.04649 45.043999 Q61.04649 44.963997 61.126488 44.723999 Q61.24649 44.483997 65.366486 40.363998 L69.526489 36.203999 L65.366486 32.043999 Q61.24649 27.924 61.126488 27.683998 Q61.04649 27.523998 61.04649 27.403999 Q61.04649 27.084 61.286488 26.823999 Q61.526489 26.563999 61.846489 26.563999 Q61.926487 26.563999 62.166489 26.643999 Q62.286488 26.723999 66.526489 30.883999 L70.726486 35.084 L74.88649 30.924 Q77.966492 27.844 78.646484 27.203999 Q79.326492 26.563999 79.526489 26.563999 Q79.88649 26.563999 80.126488 26.803999 Q80.366486 27.043999 80.366486 27.363998 Q80.366486 27.523998 80.286484 27.683998 Q80.20649 27.844 76.046486 32.003998 L71.88649 36.203999 L76.046486 40.403999 Q80.20649 44.563999 80.286484 44.723999 Q80.366486 44.883999 80.366486 45.043999 L80.366486 45.043999 Z" fill="rgba(0,0,0,1)" fill-rule="evenodd" stroke="none"/><path d="M106.966583 43.924 Q106.966583 44.363998 109.686577 44.363998 Q110.366577 44.363998 110.546577 44.424 Q110.726578 44.483997 110.726578 44.764 Q110.726578 45.604 110.48658 45.963997 Q110.366577 46.163998 109.80658 46.163998 Q109.086578 46.163998 107.406578 46.143997 Q105.726578 46.123997 104.446579 46.123997 Q103.16658 46.123997 101.526581 46.143997 Q99.886581 46.163998 99.246582 46.163998 Q98.566582 46.163998 98.566582 45.883999 Q98.566582 45.723999 98.686577 45.183998 Q98.80658 44.643997 98.846581 44.604 Q98.926582 44.363998 100.326584 44.363998 Q101.886581 44.323997 102.386581 44.203999 Q102.886581 44.084 103.086578 43.683998 Q103.206581 43.483997 104.246582 39.363998 L105.246582 35.243999 Q103.606583 30.563999 100.326584 21.283998 Q99.966583 20.924 99.586578 20.844 Q99.206581 20.764 97.80658 20.723999 Q96.526581 20.723999 96.406578 20.443998 Q96.366577 20.323999 96.48658 19.764 Q96.646584 19.043999 96.846581 18.924 Q96.926582 18.883999 97.406578 18.883999 Q99.326584 19.004 101.766579 19.004 Q106.646576 19.004 107.406578 18.883999 L107.80658 18.883999 Q108.046577 19.123999 108.066582 19.223999 Q108.086578 19.323999 107.966583 19.963999 Q107.80658 20.483999 107.566582 20.723999 L107.086578 20.723999 Q104.846581 20.723999 104.846581 21.243999 Q104.846581 21.443998 106.846581 27.143999 Q108.846581 32.843998 108.886581 32.883999 L109.006577 32.764 Q109.16658 32.604 109.48658 32.223999 Q109.80658 31.843998 110.326584 31.264 Q110.846581 30.683998 111.606583 29.783998 Q112.366577 28.883999 113.326584 27.763998 Q117.606583 22.764 117.886581 22.363998 Q118.246582 21.844 118.246582 21.483999 Q118.246582 20.844 116.966583 20.723999 Q116.286575 20.723999 116.286575 20.323999 Q116.286575 20.243999 116.366577 19.764 Q116.48658 19.164 116.586578 19.023998 Q116.686584 18.883999 117.126579 18.883999 Q117.686577 18.883999 119.086578 18.943998 Q120.48658 19.004 121.446579 19.004 Q123.48658 19.004 124.526581 18.924 Q125.206581 18.883999 125.426582 18.924 Q125.646576 18.963999 125.646576 19.203999 Q125.646576 19.363998 125.526581 19.903999 Q125.406578 20.443998 125.366577 20.483999 Q125.286575 20.723999 124.526581 20.723999 Q121.646576 20.924 119.846581 22.723999 Q119.48658 23.084 114.246582 29.243999 L109.086578 35.283997 L108.046577 39.444 Q106.966583 43.723999 106.966583 43.924 L106.966583 43.924 Z" fill="rgba(0,0,0,1)" fill-rule="evenodd" stroke="none"/><path d="M147.277778 37.004 L262.917778 37.004 L262.567998 37.272218 L262.228161 37.547367 L261.898273 37.829442 L261.57834 38.118437 L261.268369 38.414347 L260.968364 38.717164 L260.678331 39.026884 L260.398278 39.3435 L260.128208 39.667007 L259.868129 39.997398 L259.618046 40.334669 L259.377965 40.678812 L259.147892 41.029823 L258.927832 41.387695 L258.717792 41.752423 L258.517778 42.124 L258.3952 42.363858 L258.277965 42.60343 L258.166075 42.842708 L258.059528 43.081687 L257.958325 43.320362 L257.862465 43.558727 L257.77195 43.796774 L257.686778 44.0345 L257.60695 44.271897 L257.532465 44.508961 L257.463325 44.745685 L257.399528 44.982062 L257.341075 45.218089 L257.287965 45.453758 L257.2402 45.689063 L257.197778 45.924 L257.197685 45.933795 L257.197411 45.943672 L257.19696 45.953619 L257.19634 45.963625 L257.195556 45.973678 L257.194614 45.983766 L257.193519 45.993877 L257.192278 46.004 L257.190896 46.014123 L257.189379 46.024234 L257.187734 46.034322 L257.185965 46.044375 L257.18408 46.054381 L257.182082 46.064328 L257.17998 46.074205 L257.177778 46.084 L257.175576 46.093609 L257.173473 46.102937 L257.171476 46.111984 L257.16959 46.12075 L257.167822 46.129234 L257.166176 46.137437 L257.16466 46.145359 L257.163278 46.153 L257.162037 46.160359 L257.160942 46.167437 L257.159999 46.174234 L257.159215 46.18075 L257.158595 46.186984 L257.158145 46.192937 L257.157871 46.198609 L257.157778 46.204 L257.160917 46.257062 L257.170332 46.306742 L257.186017 46.353036 L257.207965 46.395937 L257.236171 46.43544 L257.270629 46.471539 L257.311333 46.504228 L257.358278 46.5335 L257.411456 46.559351 L257.470864 46.581773 L257.536494 46.600763 L257.60834 46.616312 L257.686398 46.628417 L257.770661 46.63707 L257.861123 46.642267 L257.957778 46.644 L258.016464 46.643624 L258.07252 46.642492 L258.125939 46.640599 L258.176715 46.637937 L258.224843 46.634503 L258.270317 46.630289 L258.31313 46.62529 L258.353278 46.6195 L258.390753 46.612913 L258.425551 46.605523 L258.457665 46.597325 L258.48709 46.588312 L258.51382 46.578479 L258.537848 46.56782 L258.559169 46.556329 L258.577778 46.544 L258.594838 46.530265 L258.611512 46.514555 L258.627788 46.496864 L258.643653 46.477187 L258.659096 46.455519 L258.674106 46.431852 L258.68867 46.406181 L258.702778 46.3785 L258.716416 46.348804 L258.729575 46.317086 L258.742241 46.283341 L258.754403 46.247562 L258.766049 46.209745 L258.777168 46.169883 L258.787748 46.12797 L258.797778 46.084 L258.813574 45.984063 L258.830957 45.883758 L258.849923 45.783089 L258.870465 45.682062 L258.892578 45.580685 L258.916254 45.478961 L258.94149 45.376897 L258.968278 45.2745 L258.996613 45.171774 L259.026489 45.068727 L259.0579 44.965362 L259.09084 44.861687 L259.125304 44.757708 L259.161286 44.65343 L259.198779 44.548858 L259.237778 44.444 L259.352529 44.111046 L259.476286 43.78268 L259.609054 43.458896 L259.75084 43.139687 L259.90165 42.82505 L260.061489 42.514977 L260.230363 42.209462 L260.408278 41.9085 L260.59524 41.612085 L260.791254 41.320211 L260.996328 41.032872 L261.210465 40.750062 L261.433673 40.471776 L261.665957 40.198008 L261.907324 39.928751 L262.157778 39.664 L262.191328 39.636808 L262.287989 39.559336 L262.441779 39.437743 L262.646715 39.278187 L262.896816 39.086827 L263.186098 38.86982 L263.50858 38.633325 L263.858278 38.3835 L264.22921 38.126503 L264.615395 37.868492 L265.010849 37.615626 L265.40959 37.374062 L265.805636 37.14996 L266.193004 36.949477 L266.565712 36.778771 L266.917778 36.644 L266.961372 36.628204 L267.002153 36.61082 L267.040122 36.591854 L267.075278 36.571312 L267.107622 36.5492 L267.137153 36.525523 L267.163872 36.500288 L267.187778 36.4735 L267.208872 36.445165 L267.227153 36.415289 L267.242622 36.383878 L267.255278 36.350937 L267.265122 36.316474 L267.272153 36.280492 L267.276372 36.242999 L267.277778 36.204 L267.276372 36.199937 L267.272153 36.188375 L267.265122 36.17025 L267.255278 36.1465 L267.242622 36.118062 L267.227153 36.085875 L267.208872 36.050875 L267.187778 36.014 L267.163872 35.976187 L267.137153 35.938375 L267.107622 35.9015 L267.075278 35.8665 L267.040122 35.834312 L267.002153 35.805875 L266.961372 35.782125 L266.917778 35.764 L266.580654 35.64461 L266.248786 35.515945 L265.922179 35.378011 L265.60084 35.230812 L265.284775 35.074356 L264.973989 34.908648 L264.668488 34.733694 L264.368278 34.5495 L264.073365 34.356071 L263.783754 34.153414 L263.499453 33.941534 L263.220465 33.720437 L262.946798 33.49013 L262.678457 33.250617 L262.415449 33.001905 L262.157778 32.744 L262.131445 32.709962 L262.056426 32.611945 L261.938693 32.456097 L261.784215 32.248562 L261.598964 31.995489 L261.388911 31.703023 L261.160025 31.377312 L260.918278 31.0245 L260.66964 30.650735 L260.420082 30.262164 L260.175576 29.864933 L259.94209 29.465187 L259.725597 29.069075 L259.532067 28.682742 L259.36747 28.312335 L259.237778 27.964 L259.203041 27.859327 L259.169325 27.755305 L259.136616 27.651927 L259.104903 27.549187 L259.074174 27.447081 L259.044418 27.345602 L259.015623 27.244743 L258.987778 27.1445 L258.96087 27.044866 L258.934887 26.945836 L258.909819 26.847403 L258.885653 26.749562 L258.862377 26.652308 L258.839981 26.555633 L258.818452 26.459532 L258.797778 26.364 L258.787748 26.314967 L258.777168 26.268359 L258.766049 26.224166 L258.754403 26.182375 L258.742241 26.142975 L258.729575 26.105953 L258.716416 26.071299 L258.702778 26.039 L258.68867 26.009045 L258.674106 25.981422 L258.659096 25.956119 L258.643653 25.933125 L258.627788 25.912428 L258.611512 25.894016 L258.594838 25.877877 L258.577778 25.864 L258.559169 25.851671 L258.537848 25.84018 L258.51382 25.829521 L258.48709 25.819687 L258.457665 25.810675 L258.425551 25.802477 L258.390753 25.795087 L258.353278 25.7885 L258.31313 25.78271 L258.270317 25.777711 L258.224843 25.773497 L258.176715 25.770062 L258.125939 25.767401 L258.07252 25.765508 L258.016464 25.764376 L257.957778 25.764 L257.856059 25.765733 L257.760903 25.77093 L257.672309 25.779583 L257.590278 25.791687 L257.514809 25.807237 L257.445903 25.826227 L257.383559 25.848649 L257.327778 25.8745 L257.278559 25.903772 L257.235903 25.936461 L257.199809 25.97256 L257.170278 26.012062 L257.147309 26.054964 L257.130903 26.101258 L257.121059 26.150938 L257.117778 26.204 L257.118715 26.221954 L257.121528 26.24582 L257.126215 26.275604 L257.132778 26.311312 L257.141215 26.35295 L257.151528 26.400523 L257.163715 26.454038 L257.177778 26.5135 L257.193715 26.578915 L257.211528 26.650289 L257.231215 26.727628 L257.252778 26.810937 L257.276215 26.900224 L257.301528 26.995492 L257.328715 27.096749 L257.357778 27.204 L257.525029 27.821764 L257.716286 28.425547 L257.931554 29.015338 L258.17084 29.591125 L258.43415 30.152896 L258.721489 30.700641 L259.032863 31.234346 L259.368278 31.754 L259.72774 32.259592 L260.111254 32.751109 L260.518828 33.228541 L260.950465 33.691875 L261.406173 34.1411 L261.885957 34.576203 L262.389824 34.997174 L262.917778 35.404 L147.277778 35.404" fill="rgba(0,0,0,1)" fill-rule="nonzero" stroke="none"/><path d="M147.277778 37.004 L263.277778 37.004 L263.277778 35.404 L147.277778 35.404" fill="rgba(0,0,0,1)" fill-rule="nonzero" stroke="none"/><path d="M312.64798 34.924 Q313.487976 34.924 313.487976 35.363998 Q313.487976 35.523998 311.847992 40.764 Q310.207977 46.003998 310.007996 46.123997 Q309.88797 46.203999 300.367981 46.203999 Q290.88797 46.203999 290.807983 46.123997 Q290.64798 46.003998 290.767975 45.403999 Q290.807983 45.284 290.827972 45.143997 Q290.847992 45.003998 290.88797 44.924 Q290.927979 44.843998 290.927979 44.803997 Q290.927979 44.764 301.527985 32.823997 Q312.127991 20.883999 312.207977 20.803999 L311.767975 20.723999 Q311.367981 20.723999 308.847992 20.723999 Q305.247986 20.764 304.927979 20.803999 Q301.88797 21.203999 300.167969 22.844 Q298.447968 24.483999 297.487976 27.443998 Q297.447968 27.563999 297.40799 27.683998 Q297.367981 27.803999 297.327972 27.903999 Q297.287994 28.004 297.267975 28.084 Q297.247986 28.164 297.247986 28.203999 L297.207977 28.283998 Q297.087982 28.483999 296.447968 28.483999 Q295.767975 28.483999 295.64798 28.084 L296.927979 23.764 Q297.247986 22.723999 297.587982 21.603998 Q297.927979 20.483999 298.107971 19.883999 Q298.287994 19.283998 298.287994 19.243999 Q298.40799 19.004 298.487976 18.963999 Q298.607971 18.883999 307.847992 18.883999 L317.087982 18.883999 Q317.287994 19.084 317.287994 19.203999 Q317.287994 19.283998 317.047974 20.243999 Q295.927979 44.043999 295.88797 44.124001 L295.767975 44.243999 L299.327972 44.243999 Q303.127991 44.203999 303.447968 44.163998 Q306.367981 43.803997 308.067993 42.444 Q309.767975 41.084 310.88797 38.163998 Q311.167969 37.523998 311.527985 36.323997 Q311.847992 35.323997 311.987976 35.124001 Q312.127991 34.924 312.487976 34.924 L312.64798 34.924 L312.64798 34.924 Z" fill="rgba(0,0,0,1)" fill-rule="evenodd" stroke="none"/><path d="M73.838889 73.72 L73.838889 141.36 L74.107107 141.01022 L74.382256 140.670383 L74.664331 140.340495 L74.953326 140.020563 L75.249236 139.710591 L75.552053 139.410586 L75.861773 139.120554 L76.178389 138.8405 L76.501896 138.570431 L76.832287 138.310352 L77.169558 138.060269 L77.513701 137.820188 L77.864712 137.590114 L78.222584 137.370055 L78.587312 137.160015 L78.958889 136.96 L79.198747 136.837422 L79.438319 136.720188 L79.677597 136.608297 L79.916576 136.50175 L80.155251 136.400547 L80.393615 136.304688 L80.631663 136.214172 L80.869389 136.129 L81.106786 136.049172 L81.34385 135.974688 L81.580573 135.905547 L81.816951 135.84175 L82.052978 135.783297 L82.288647 135.730188 L82.523952 135.682422 L82.758889 135.64 L82.768684 135.639907 L82.778561 135.639633 L82.788508 135.639183 L82.798514 135.638563 L82.808567 135.637778 L82.818655 135.636836 L82.828766 135.635741 L82.838889 135.6345 L82.849012 135.633118 L82.859123 135.631602 L82.869211 135.629956 L82.879264 135.628188 L82.88927 135.626302 L82.899217 135.624305 L82.909094 135.622202 L82.918889 135.62 L82.928498 135.617798 L82.937826 135.615695 L82.946873 135.613698 L82.955639 135.611813 L82.964123 135.610044 L82.972326 135.608398 L82.980248 135.606882 L82.987889 135.6055 L82.995248 135.604259 L83.002326 135.603164 L83.009123 135.602222 L83.015639 135.601438 L83.021873 135.600817 L83.027826 135.600367 L83.033498 135.600093 L83.038889 135.6 L83.09195 135.60314 L83.141631 135.612555 L83.187925 135.628239 L83.230826 135.650188 L83.270329 135.678394 L83.306428 135.712852 L83.339116 135.753556 L83.368389 135.8005 L83.394239 135.853679 L83.416662 135.913086 L83.435652 135.978716 L83.451201 136.050563 L83.463306 136.12862 L83.471959 136.212883 L83.477155 136.303345 L83.478889 136.4 L83.478513 136.458687 L83.477381 136.514742 L83.475488 136.568161 L83.472826 136.618938 L83.469392 136.667065 L83.465178 136.712539 L83.460179 136.755353 L83.454389 136.7955 L83.447802 136.832976 L83.440412 136.867773 L83.432214 136.899888 L83.423201 136.929313 L83.413368 136.956042 L83.402709 136.98007 L83.391218 137.001392 L83.378889 137.02 L83.365154 137.037061 L83.349444 137.053734 L83.331753 137.07001 L83.312076 137.085875 L83.290407 137.101318 L83.26674 137.116328 L83.24107 137.130893 L83.213389 137.145 L83.183693 137.158639 L83.151975 137.171797 L83.11823 137.184463 L83.082451 137.196625 L83.044634 137.208271 L83.004772 137.219391 L82.962859 137.229971 L82.918889 137.24 L82.818952 137.255796 L82.718647 137.27318 L82.617978 137.292146 L82.516951 137.312688 L82.415573 137.3348 L82.31385 137.358477 L82.211786 137.383712 L82.109389 137.4105 L82.006663 137.438835 L81.903615 137.468711 L81.800251 137.500122 L81.696576 137.533063 L81.592597 137.567526 L81.488319 137.603508 L81.383747 137.641001 L81.278889 137.68 L80.945935 137.794751 L80.617569 137.918508 L80.293784 138.051276 L79.974576 138.193063 L79.659939 138.343872 L79.349865 138.503711 L79.044351 138.672585 L78.743389 138.8505 L78.446974 139.037462 L78.1551 139.233477 L77.867761 139.43855 L77.584951 139.652688 L77.306665 139.875896 L77.032897 140.10818 L76.76364 140.349546 L76.498889 140.6 L76.471697 140.63355 L76.394225 140.730211 L76.272632 140.884001 L76.113076 141.088938 L75.921716 141.339038 L75.704709 141.62832 L75.468214 141.950802 L75.218389 142.3005 L74.961392 142.671433 L74.703381 143.057617 L74.450515 143.453071 L74.208951 143.851813 L73.984849 144.247858 L73.784365 144.635227 L73.613659 145.007935 L73.478889 145.36 L73.463093 145.403594 L73.445709 145.444375 L73.426743 145.482344 L73.406201 145.5175 L73.384089 145.549844 L73.360412 145.579375 L73.335177 145.606094 L73.308389 145.63 L73.280054 145.651094 L73.250178 145.669375 L73.218767 145.684844 L73.185826 145.6975 L73.151363 145.707344 L73.115381 145.714375 L73.077888 145.718594 L73.038889 145.72 L73.034826 145.718594 L73.023264 145.714375 L73.005139 145.707344 L72.981389 145.6975 L72.952951 145.684844 L72.920764 145.669375 L72.885764 145.651094 L72.848889 145.63 L72.811076 145.606094 L72.773264 145.579375 L72.736389 145.549844 L72.701389 145.5175 L72.669201 145.482344 L72.640764 145.444375 L72.617014 145.403594 L72.598889 145.36 L72.479499 145.022876 L72.350834 144.691008 L72.2129 144.364401 L72.065701 144.043063 L71.909245 143.726997 L71.743537 143.416211 L71.568583 143.11071 L71.384389 142.8105 L71.19096 142.515587 L70.988303 142.225977 L70.776423 141.941675 L70.555326 141.662688 L70.325019 141.389021 L70.085506 141.12068 L69.836794 140.857671 L69.578889 140.6 L69.544851 140.573667 L69.446834 140.498648 L69.290986 140.380915 L69.083451 140.226438 L68.830378 140.041187 L68.537912 139.831133 L68.2122 139.602247 L67.859389 139.3605 L67.485624 139.111862 L67.097053 138.862305 L66.699822 138.617798 L66.300076 138.384313 L65.903964 138.167819 L65.517631 137.974289 L65.147224 137.809692 L64.798889 137.68 L64.694216 137.645264 L64.590194 137.611547 L64.486816 137.578838 L64.384076 137.547125 L64.28197 137.516396 L64.18049 137.486641 L64.079632 137.457846 L63.979389 137.43 L63.879755 137.403092 L63.780725 137.377109 L63.682292 137.352041 L63.584451 137.327875 L63.487197 137.3046 L63.390522 137.282203 L63.294421 137.260674 L63.198889 137.24 L63.149856 137.229971 L63.103248 137.219391 L63.059055 137.208271 L63.017264 137.196625 L62.977863 137.184463 L62.940842 137.171797 L62.906188 137.158639 L62.873889 137.145 L62.843934 137.130893 L62.816311 137.116328 L62.791008 137.101318 L62.768014 137.085875 L62.747317 137.07001 L62.728905 137.053734 L62.712766 137.037061 L62.698889 137.02 L62.68656 137.001392 L62.675069 136.98007 L62.664409 136.956042 L62.654576 136.929313 L62.645564 136.899888 L62.637365 136.867773 L62.629976 136.832976 L62.623389 136.7955 L62.617599 136.755353 L62.6126 136.712539 L62.608386 136.667065 L62.604951 136.618938 L62.60229 136.568161 L62.600397 136.514742 L62.599265 136.458687 L62.598889 136.4 L62.600622 136.298281 L62.605819 136.203125 L62.614472 136.114531 L62.626576 136.0325 L62.642126 135.957031 L62.661115 135.888125 L62.683538 135.825781 L62.709389 135.77 L62.738661 135.720781 L62.77135 135.678125 L62.807448 135.642031 L62.846951 135.6125 L62.889853 135.589531 L62.936147 135.573125 L62.985827 135.563281 L63.038889 135.56 L63.056843 135.560937 L63.080709 135.56375 L63.110493 135.568437 L63.146201 135.575 L63.187839 135.583437 L63.235412 135.59375 L63.288927 135.605937 L63.348389 135.62 L63.413804 135.635938 L63.485178 135.65375 L63.562517 135.673438 L63.645826 135.695 L63.735113 135.718438 L63.830381 135.74375 L63.931638 135.770938 L64.038889 135.8 L64.656653 135.967251 L65.260436 136.158508 L65.850227 136.373776 L66.426014 136.613063 L66.987785 136.876372 L67.53553 137.163711 L68.069235 137.475085 L68.588889 137.8105 L69.094481 138.169962 L69.585998 138.553477 L70.06343 138.96105 L70.526764 139.392688 L70.975988 139.848396 L71.411092 140.32818 L71.832063 140.832046 L72.238889 141.36 L72.238889 73.72" fill="rgba(0,0,0,1)" fill-rule="nonzero" stroke="none"/><path d="M73.838889 73.72 L73.838889 141.72 L72.238889 141.72 L72.238889 73.72" fill="rgba(0,0,0,1)" fill-rule="nonzero" stroke="none"/><path d="M308.651378 73.72 L308.651378 141.36 L308.919596 141.01022 L309.194745 140.670383 L309.47682 140.340495 L309.765815 140.020563 L310.061724 139.710591 L310.364542 139.410586 L310.674262 139.120554 L310.990878 138.8405 L311.314385 138.570431 L311.644776 138.310352 L311.982047 138.060269 L312.32619 137.820188 L312.677201 137.590114 L313.035073 137.370055 L313.399801 137.160015 L313.771378 136.96 L314.011236 136.837422 L314.250807 136.720188 L314.490086 136.608297 L314.729065 136.50175 L314.96774 136.400547 L315.206104 136.304688 L315.444152 136.214172 L315.681878 136.129 L315.919275 136.049172 L316.156339 135.974688 L316.393062 135.905547 L316.62944 135.84175 L316.865467 135.783297 L317.101136 135.730188 L317.336441 135.682422 L317.571378 135.64 L317.581173 135.639907 L317.59105 135.639633 L317.600997 135.639183 L317.611003 135.638563 L317.621056 135.637778 L317.631143 135.636836 L317.641255 135.635741 L317.651378 135.6345 L317.661501 135.633118 L317.671612 135.631602 L317.6817 135.629956 L317.691753 135.628188 L317.701759 135.626302 L317.711706 135.624305 L317.721583 135.622202 L317.731378 135.62 L317.740987 135.617798 L317.750315 135.615695 L317.759362 135.613698 L317.768128 135.611813 L317.776612 135.610044 L317.784815 135.608398 L317.792737 135.606882 L317.800378 135.6055 L317.807737 135.604259 L317.814815 135.603164 L317.821612 135.602222 L317.828128 135.601438 L317.834362 135.600817 L317.840315 135.600367 L317.845987 135.600093 L317.851378 135.6 L317.904439 135.60314 L317.95412 135.612555 L318.000414 135.628239 L318.043315 135.650188 L318.082818 135.678394 L318.118917 135.712852 L318.151605 135.753556 L318.180878 135.8005 L318.206728 135.853679 L318.229151 135.913086 L318.24814 135.978716 L318.26369 136.050563 L318.275795 136.12862 L318.284448 136.212883 L318.289644 136.303345 L318.291378 136.4 L318.291002 136.458687 L318.28987 136.514742 L318.287976 136.568161 L318.285315 136.618938 L318.281881 136.667065 L318.277667 136.712539 L318.272668 136.755353 L318.266878 136.7955 L318.260291 136.832976 L318.252901 136.867773 L318.244703 136.899888 L318.23569 136.929313 L318.225857 136.956042 L318.215198 136.98007 L318.203707 137.001392 L318.191378 137.02 L318.177642 137.037061 L318.161932 137.053734 L318.144242 137.07001 L318.124565 137.085875 L318.102896 137.101318 L318.079229 137.116328 L318.053558 137.130893 L318.025878 137.145 L317.996181 137.158639 L317.964464 137.171797 L317.930719 137.184463 L317.89494 137.196625 L317.857123 137.208271 L317.817261 137.219391 L317.775348 137.229971 L317.731378 137.24 L317.631441 137.255796 L317.531136 137.27318 L317.430467 137.292146 L317.32944 137.312688 L317.228062 137.3348 L317.126339 137.358477 L317.024275 137.383712 L316.921878 137.4105 L316.819152 137.438835 L316.716104 137.468711 L316.61274 137.500122 L316.509065 137.533063 L316.405086 137.567526 L316.300807 137.603508 L316.196236 137.641001 L316.091378 137.68 L315.758424 137.794751 L315.430057 137.918508 L315.106273 138.051276 L314.787065 138.193063 L314.472428 138.343872 L314.162354 138.503711 L313.85684 138.672585 L313.555878 138.8505 L313.259463 139.037462 L312.967589 139.233477 L312.68025 139.43855 L312.39744 139.652688 L312.119154 139.875896 L311.845386 140.10818 L311.576129 140.349546 L311.311378 140.6 L311.284185 140.63355 L311.206714 140.730211 L311.085121 140.884001 L310.925565 141.088938 L310.734205 141.339038 L310.517198 141.62832 L310.280703 141.950802 L310.030878 142.3005 L309.773881 142.671433 L309.51587 143.057617 L309.263004 143.453071 L309.02144 143.851813 L308.797338 144.247858 L308.596854 144.635227 L308.426148 145.007935 L308.291378 145.36 L308.275582 145.403594 L308.258198 145.444375 L308.239232 145.482344 L308.21869 145.5175 L308.196578 145.549844 L308.172901 145.579375 L308.147666 145.606094 L308.120878 145.63 L308.092543 145.651094 L308.062667 145.669375 L308.031256 145.684844 L307.998315 145.6975 L307.963851 145.707344 L307.92787 145.714375 L307.890377 145.718594 L307.851378 145.72 L307.847315 145.718594 L307.835753 145.714375 L307.817628 145.707344 L307.793878 145.6975 L307.76544 145.684844 L307.733253 145.669375 L307.698253 145.651094 L307.661378 145.63 L307.623565 145.606094 L307.585753 145.579375 L307.548878 145.549844 L307.513878 145.5175 L307.48169 145.482344 L307.453253 145.444375 L307.429503 145.403594 L307.411378 145.36 L307.291988 145.022876 L307.163323 144.691008 L307.025389 144.364401 L306.87819 144.043063 L306.721734 143.726997 L306.556026 143.416211 L306.381072 143.11071 L306.196878 142.8105 L306.003449 142.515587 L305.800792 142.225977 L305.588912 141.941675 L305.367815 141.662688 L305.137508 141.389021 L304.897995 141.12068 L304.649283 140.857671 L304.391378 140.6 L304.35734 140.573667 L304.259323 140.498648 L304.103474 140.380915 L303.89594 140.226438 L303.642867 140.041187 L303.350401 139.831133 L303.024689 139.602247 L302.671878 139.3605 L302.298113 139.111862 L301.909542 138.862305 L301.51231 138.617798 L301.112565 138.384313 L300.716453 138.167819 L300.33012 137.974289 L299.959713 137.809692 L299.611378 137.68 L299.506705 137.645264 L299.402682 137.611547 L299.299305 137.578838 L299.196565 137.547125 L299.094459 137.516396 L298.992979 137.486641 L298.892121 137.457846 L298.791878 137.43 L298.692244 137.403092 L298.593214 137.377109 L298.494781 137.352041 L298.39694 137.327875 L298.299685 137.3046 L298.203011 137.282203 L298.10691 137.260674 L298.011378 137.24 L297.962345 137.229971 L297.915737 137.219391 L297.871544 137.208271 L297.829753 137.196625 L297.790352 137.184463 L297.753331 137.171797 L297.718677 137.158639 L297.686378 137.145 L297.656423 137.130893 L297.6288 137.116328 L297.603497 137.101318 L297.580503 137.085875 L297.559806 137.07001 L297.541393 137.053734 L297.525255 137.037061 L297.511378 137.02 L297.499049 137.001392 L297.487557 136.98007 L297.476898 136.956042 L297.467065 136.929313 L297.458053 136.899888 L297.449854 136.867773 L297.442465 136.832976 L297.435878 136.7955 L297.430088 136.755353 L297.425089 136.712539 L297.420875 136.667065 L297.41744 136.618938 L297.414779 136.568161 L297.412886 136.514742 L297.411754 136.458687 L297.411378 136.4 L297.413111 136.298281 L297.418307 136.203125 L297.426961 136.114531 L297.439065 136.0325 L297.454615 135.957031 L297.473604 135.888125 L297.496027 135.825781 L297.521878 135.77 L297.55115 135.720781 L297.583839 135.678125 L297.619937 135.642031 L297.65944 135.6125 L297.702342 135.589531 L297.748636 135.573125 L297.798316 135.563281 L297.851378 135.56 L297.869332 135.560937 L297.893198 135.56375 L297.922982 135.568437 L297.95869 135.575 L298.000328 135.583437 L298.047901 135.59375 L298.101416 135.605937 L298.160878 135.62 L298.226293 135.635938 L298.297667 135.65375 L298.375006 135.673438 L298.458315 135.695 L298.547601 135.718438 L298.64287 135.74375 L298.744127 135.770938 L298.851378 135.8 L299.469141 135.967251 L300.072925 136.158508 L300.662716 136.373776 L301.238503 136.613063 L301.800274 136.876372 L302.348018 137.163711 L302.881723 137.475085 L303.401378 137.8105 L303.90697 138.169962 L304.398487 138.553477 L304.875919 138.96105 L305.339253 139.392688 L305.788477 139.848396 L306.223581 140.32818 L306.644552 140.832046 L307.051378 141.36 L307.051378 73.72" fill="rgba(0,0,0,1)" fill-rule="nonzero" stroke="none"/><path d="M308.651378 73.72 L308.651378 141.72 L307.051378 141.72 L307.051378 73.72" fill="rgba(0,0,0,1)" fill-rule="nonzero" stroke="none"/><path d="M63.67889 193.923996 Q62.99889 193.923996 61.51889 193.884003 Q60.038887 193.843994 59.278889 193.843994 Q56.438889 193.843994 55.638889 193.923996 L55.31889 193.923996 Q55.078888 193.68399 55.058887 193.584 Q55.038891 193.483994 55.15889 192.843994 Q55.31889 192.32399 55.398888 192.203995 L55.558887 192.084 L56.118889 192.084 Q58.918888 191.963989 60.198891 190.084 Q60.438889 189.843994 67.458893 177.863998 Q74.478889 165.884003 74.558891 165.763992 Q74.758888 165.403992 74.938889 165.343994 Q75.118889 165.283997 75.83889 165.283997 L76.51889 165.283997 Q76.758888 165.643997 76.758888 165.68399 L77.878891 178.604004 Q78.998886 191.524002 79.078888 191.643997 Q79.278885 192.084 81.678886 192.084 Q82.51889 192.084 82.638885 192.363998 Q82.678886 192.524002 82.558891 193.043991 Q82.438889 193.643997 82.33889 193.783997 Q82.238892 193.923996 81.798889 193.923996 Q81.078888 193.923996 79.418884 193.884003 Q77.758888 193.843994 76.758888 193.843994 Q72.998886 193.843994 71.83889 193.923996 L71.358887 193.923996 Q71.118889 193.68399 71.098892 193.584 Q71.078888 193.483994 71.198891 192.843994 Q71.358887 192.32399 71.438889 192.203995 L71.598892 192.084 L72.398888 192.084 Q74.558891 192.003998 74.958893 191.403992 L74.478889 185.403992 L64.958893 185.403992 L63.598888 187.723999 Q62.15889 190.123993 62.118889 190.32399 Q61.958889 190.643997 61.958889 190.923996 Q61.958889 191.923996 63.798889 192.084 Q64.558891 192.084 64.558891 192.483994 Q64.558891 192.68399 64.438889 193.043991 Q64.318886 193.603989 64.198891 193.763992 Q64.078888 193.923996 63.67889 193.923996 L63.67889 193.923996 Z M74.278885 183.524002 Q73.438889 171.643997 73.238892 171.444 L72.15889 173.164001 Q71.51889 174.243988 69.638885 177.444 L66.038887 183.524002 L70.15889 183.563995 Q74.278885 183.563995 74.278885 183.524002 L74.278885 183.524002 Z" fill="rgba(0,0,0,1)" fill-rule="evenodd" stroke="none"/><path d="M147.277778 184.724 L262.917778 184.724 L262.567998 184.992218 L262.228161 185.267367 L261.898273 185.549442 L261.57834 185.838437 L261.268369 186.134347 L260.968364 186.437164 L260.678331 186.746884 L260.398278 187.0635 L260.128208 187.387007 L259.868129 187.717398 L259.618046 188.054669 L259.377965 188.398812 L259.147892 188.749823 L258.927832 189.107695 L258.717792 189.472423 L258.517778 189.844 L258.3952 190.083858 L258.277965 190.32343 L258.166075 190.562708 L258.059528 190.801687 L257.958325 191.040362 L257.862465 191.278727 L257.77195 191.516774 L257.686778 191.7545 L257.60695 191.991897 L257.532465 192.228961 L257.463325 192.465685 L257.399528 192.702062 L257.341075 192.938089 L257.287965 193.173758 L257.2402 193.409063 L257.197778 193.644 L257.197685 193.653795 L257.197411 193.663672 L257.19696 193.673619 L257.19634 193.683625 L257.195556 193.693678 L257.194614 193.703766 L257.193519 193.713877 L257.192278 193.724 L257.190896 193.734123 L257.189379 193.744234 L257.187734 193.754322 L257.185965 193.764375 L257.18408 193.774381 L257.182082 193.784328 L257.17998 193.794205 L257.177778 193.804 L257.175576 193.813609 L257.173473 193.822937 L257.171476 193.831984 L257.16959 193.84075 L257.167822 193.849234 L257.166176 193.857437 L257.16466 193.865359 L257.163278 193.873 L257.162037 193.880359 L257.160942 193.887437 L257.159999 193.894234 L257.159215 193.90075 L257.158595 193.906984 L257.158145 193.912937 L257.157871 193.918609 L257.157778 193.924 L257.160917 193.977062 L257.170332 194.026742 L257.186017 194.073036 L257.207965 194.115937 L257.236171 194.15544 L257.270629 194.191539 L257.311333 194.224228 L257.358278 194.2535 L257.411456 194.279351 L257.470864 194.301773 L257.536494 194.320763 L257.60834 194.336312 L257.686398 194.348417 L257.770661 194.35707 L257.861123 194.362267 L257.957778 194.364 L258.016464 194.363624 L258.07252 194.362492 L258.125939 194.360599 L258.176715 194.357937 L258.224843 194.354503 L258.270317 194.350289 L258.31313 194.34529 L258.353278 194.3395 L258.390753 194.332913 L258.425551 194.325523 L258.457665 194.317325 L258.48709 194.308312 L258.51382 194.298479 L258.537848 194.28782 L258.559169 194.276329 L258.577778 194.264 L258.594838 194.250265 L258.611512 194.234555 L258.627788 194.216864 L258.643653 194.197187 L258.659096 194.175519 L258.674106 194.151852 L258.68867 194.126181 L258.702778 194.0985 L258.716416 194.068804 L258.729575 194.037086 L258.742241 194.003341 L258.754403 193.967562 L258.766049 193.929745 L258.777168 193.889883 L258.787748 193.84797 L258.797778 193.804 L258.813574 193.704063 L258.830957 193.603758 L258.849923 193.503089 L258.870465 193.402062 L258.892578 193.300685 L258.916254 193.198961 L258.94149 193.096897 L258.968278 192.9945 L258.996613 192.891774 L259.026489 192.788727 L259.0579 192.685362 L259.09084 192.581687 L259.125304 192.477708 L259.161286 192.37343 L259.198779 192.268858 L259.237778 192.164 L259.352529 191.831046 L259.476286 191.50268 L259.609054 191.178896 L259.75084 190.859687 L259.90165 190.54505 L260.061489 190.234977 L260.230363 189.929462 L260.408278 189.6285 L260.59524 189.332085 L260.791254 189.040211 L260.996328 188.752872 L261.210465 188.470062 L261.433673 188.191776 L261.665957 187.918008 L261.907324 187.648751 L262.157778 187.384 L262.191328 187.356808 L262.287989 187.279336 L262.441779 187.157743 L262.646715 186.998187 L262.896816 186.806827 L263.186098 186.58982 L263.50858 186.353325 L263.858278 186.1035 L264.22921 185.846503 L264.615395 185.588492 L265.010849 185.335626 L265.40959 185.094062 L265.805636 184.86996 L266.193004 184.669477 L266.565712 184.498771 L266.917778 184.364 L266.961372 184.348204 L267.002153 184.33082 L267.040122 184.311854 L267.075278 184.291312 L267.107622 184.2692 L267.137153 184.245523 L267.163872 184.220288 L267.187778 184.1935 L267.208872 184.165165 L267.227153 184.135289 L267.242622 184.103878 L267.255278 184.070937 L267.265122 184.036474 L267.272153 184.000492 L267.276372 183.962999 L267.277778 183.924 L267.276372 183.919937 L267.272153 183.908375 L267.265122 183.89025 L267.255278 183.8665 L267.242622 183.838062 L267.227153 183.805875 L267.208872 183.770875 L267.187778 183.734 L267.163872 183.696187 L267.137153 183.658375 L267.107622 183.6215 L267.075278 183.5865 L267.040122 183.554312 L267.002153 183.525875 L266.961372 183.502125 L266.917778 183.484 L266.580654 183.36461 L266.248786 183.235945 L265.922179 183.098011 L265.60084 182.950812 L265.284775 182.794356 L264.973989 182.628648 L264.668488 182.453694 L264.368278 182.2695 L264.073365 182.076071 L263.783754 181.873414 L263.499453 181.661534 L263.220465 181.440437 L262.946798 181.21013 L262.678457 180.970617 L262.415449 180.721905 L262.157778 180.464 L262.131445 180.429962 L262.056426 180.331945 L261.938693 180.176097 L261.784215 179.968562 L261.598964 179.715489 L261.388911 179.423023 L261.160025 179.097312 L260.918278 178.7445 L260.66964 178.370735 L260.420082 177.982164 L260.175576 177.584933 L259.94209 177.185187 L259.725597 176.789075 L259.532067 176.402742 L259.36747 176.032335 L259.237778 175.684 L259.203041 175.579327 L259.169325 175.475305 L259.136616 175.371927 L259.104903 175.269187 L259.074174 175.167081 L259.044418 175.065602 L259.015623 174.964743 L258.987778 174.8645 L258.96087 174.764866 L258.934887 174.665836 L258.909819 174.567403 L258.885653 174.469562 L258.862377 174.372308 L258.839981 174.275633 L258.818452 174.179532 L258.797778 174.084 L258.787748 174.034967 L258.777168 173.988359 L258.766049 173.944166 L258.754403 173.902375 L258.742241 173.862975 L258.729575 173.825953 L258.716416 173.791299 L258.702778 173.759 L258.68867 173.729045 L258.674106 173.701422 L258.659096 173.676119 L258.643653 173.653125 L258.627788 173.632428 L258.611512 173.614016 L258.594838 173.597877 L258.577778 173.584 L258.559169 173.571671 L258.537848 173.56018 L258.51382 173.549521 L258.48709 173.539687 L258.457665 173.530675 L258.425551 173.522477 L258.390753 173.515087 L258.353278 173.5085 L258.31313 173.50271 L258.270317 173.497711 L258.224843 173.493497 L258.176715 173.490062 L258.125939 173.487401 L258.07252 173.485508 L258.016464 173.484376 L257.957778 173.484 L257.856059 173.485733 L257.760903 173.49093 L257.672309 173.499583 L257.590278 173.511687 L257.514809 173.527237 L257.445903 173.546227 L257.383559 173.568649 L257.327778 173.5945 L257.278559 173.623772 L257.235903 173.656461 L257.199809 173.69256 L257.170278 173.732062 L257.147309 173.774964 L257.130903 173.821258 L257.121059 173.870938 L257.117778 173.924 L257.118715 173.941954 L257.121528 173.96582 L257.126215 173.995604 L257.132778 174.031312 L257.141215 174.07295 L257.151528 174.120523 L257.163715 174.174038 L257.177778 174.2335 L257.193715 174.298915 L257.211528 174.370289 L257.231215 174.447628 L257.252778 174.530937 L257.276215 174.620224 L257.301528 174.715492 L257.328715 174.816749 L257.357778 174.924 L257.525029 175.541764 L257.716286 176.145547 L257.931554 176.735338 L258.17084 177.311125 L258.43415 177.872896 L258.721489 178.420641 L259.032863 178.954346 L259.368278 179.474 L259.72774 179.979592 L260.111254 180.471109 L260.518828 180.948541 L260.950465 181.411875 L261.406173 181.8611 L261.885957 182.296203 L262.389824 182.717174 L262.917778 183.124 L147.277778 183.124" fill="rgba(0,0,0,1)" fill-rule="nonzero" stroke="none"/><path d="M147.277778 184.724 L263.277778 184.724 L263.277778 183.124 L147.277778 183.124" fill="rgba(0,0,0,1)" fill-rule="nonzero" stroke="none"/><path d="M298.79776 168.804001 Q298.79776 168.763992 298.757782 168.703995 Q298.717773 168.643997 298.637756 168.623993 Q298.55777 168.604004 298.477783 168.563995 Q298.397766 168.524002 298.237762 168.503998 Q298.077759 168.483994 297.957764 168.483994 Q297.837769 168.483994 297.637756 168.483994 Q297.437775 168.483994 297.29776 168.463989 Q297.157776 168.444 296.917786 168.444 Q296.677765 168.444 296.517761 168.444 Q295.55777 168.444 295.357758 168.403992 Q295.157776 168.363998 295.077759 168.164001 Q294.997772 168.043991 295.117767 167.444 Q295.31778 166.723999 295.477783 166.643997 Q295.517761 166.604004 300.677765 166.604004 Q311.037781 166.604004 311.597778 166.68399 Q314.357758 167.084 315.917786 168.604004 Q317.517761 170.123993 317.517761 172.164001 Q317.517761 173.563995 316.757782 174.884003 Q315.877777 176.483994 313.937775 177.783997 Q311.997772 179.084 309.877777 179.524002 L309.477783 179.643997 Q312.117767 180.003998 313.737762 181.483994 Q315.357758 182.963989 315.357758 185.164001 Q315.357758 188.043991 312.717773 190.563995 Q309.637756 193.524002 305.397766 193.884003 Q305.117767 193.923996 296.957764 193.923996 Q288.957764 193.923996 288.837769 193.843994 Q288.55777 193.68399 288.757782 192.963989 Q288.757782 192.923996 288.79776 192.804001 Q288.997772 192.164001 289.237762 192.123993 Q289.357758 192.084 289.757782 192.084 L289.997772 192.084 Q291.077759 192.084 292.397766 191.963989 Q292.957764 191.843994 293.157776 191.483994 Q293.277771 191.32399 296.037781 180.363998 Q298.79776 169.403992 298.79776 168.804001 L298.79776 168.804001 Z M313.237762 172.164001 Q313.237762 170.804001 312.537781 169.843994 Q311.837769 168.884003 310.677765 168.563995 Q310.397766 168.483994 306.997772 168.444 Q306.197784 168.444 305.31778 168.463989 Q304.437775 168.483994 303.917786 168.483994 L303.397766 168.483994 Q302.837769 168.524002 302.677765 168.763992 Q302.597778 168.884003 300.077759 178.963989 L303.31778 178.963989 Q306.55777 178.963989 307.037781 178.884003 Q308.677765 178.604004 310.137756 177.584 Q311.597778 176.563995 312.397766 175.123993 Q313.237762 173.604004 313.237762 172.164001 L313.237762 172.164001 Z M311.077759 184.763992 Q311.077759 183.003998 310.137756 181.843994 Q309.197784 180.68399 307.757782 180.483994 Q307.517761 180.444 304.437775 180.444 Q299.717773 180.444 299.677765 180.483994 Q299.677765 180.563995 298.977783 183.403992 Q298.277771 186.244003 297.597778 189.043991 L296.877777 191.843994 Q296.877777 192.003998 297.357758 192.024002 Q297.837769 192.043991 300.597778 192.084 Q304.157776 192.084 304.437775 192.043991 Q307.037781 191.763992 309.05777 189.723999 Q311.077759 187.68399 311.077759 184.763992 L311.077759 184.763992 Z" fill="rgba(0,0,0,1)" fill-rule="evenodd" stroke="none"/></svg>