<svg xmlns="http://www.w3.org/2000/svg" viewBox="0 0 173.398756 94.37304" width="173.398756" height="94.37304"><path d="M27.959999 65.279839 Q27.959999 65.799843 26.459999 71.699844 Q24.959999 77.599838 24.959999 78.319839 Q24.959999 79.99984 26.08 79.99984 Q26.440001 79.959839 26.879999 79.639839 Q27.719999 78.839844 28.52 75.799843 Q28.76 74.99984 28.92 74.959839 Q29 74.919838 29.32 74.919838 L29.48 74.919838 Q30.24 74.919838 30.24 75.239838 Q30.24 75.399841 30.119999 75.879837 Q29.24 79.239838 27.959999 80.519844 Q27.039999 81.439842 25.719999 81.439842 Q23.200001 81.439842 22.200001 79.479843 Q22 78.959839 22 78.99984 Q21.959999 78.959839 21.84 79.039841 Q21.759998 79.119843 21.68 79.199844 Q19.76 80.99984 17.879999 81.399841 Q17.639999 81.439842 16.879999 81.439842 Q14.24 81.439842 12.52 79.239838 Q11.32 77.479843 11.32 74.759842 Q11.32 74.119843 11.36 73.879837 Q11.64 71.319839 13.02 68.979843 Q14.4 66.639839 16.32 65.199844 Q18.639999 63.399841 21.200001 63.399841 Q23.200001 63.399841 24.799999 65.35984 Q25.439999 64.159843 26.639999 64.159843 Q27.16 64.159843 27.559999 64.479843 Q27.959999 64.799843 27.959999 65.279839 L27.959999 65.279839 Z M14.719999 76.799843 Q14.719999 78.239838 15.34 79.119843 Q15.96 79.99984 17.16 79.99984 Q18.32 79.99984 19.639999 79.039841 Q20.119999 78.719841 20.939999 77.839844 Q21.759998 76.959839 21.92 76.639839 Q22 76.479843 23.02 72.35984 Q24.040001 68.239838 24.040001 67.919838 Q24.040001 67.439842 23.599998 66.559845 Q22.719999 64.839844 21.08 64.839844 Q19.48 64.839844 18.26 66.199844 Q17.040001 67.559845 16.4 69.319839 Q15.24 72.479843 14.76 75.879837 Q14.76 75.99984 14.74 76.319839 Q14.719999 76.639839 14.719999 76.799843 L14.719999 76.799843 Z" fill="rgba(0,0,0,1)" fill-rule="evenodd" stroke="none"/><path d="M42.272491 71.039841 Q42.272491 70.519844 42.832489 70.239838 L54.792488 70.239838 L54.792488 64.239838 L54.832489 58.239841 Q55.232491 57.719841 55.592491 57.719841 Q56.112488 57.719841 56.392487 58.319839 L56.392487 70.239838 L68.312485 70.239838 Q68.912491 70.559845 68.912491 71.039841 Q68.912491 71.519844 68.312485 71.839844 L56.392487 71.839844 L56.392487 83.759842 Q56.112488 84.319839 55.592491 84.319839 Q55.072491 84.319839 54.792488 83.759842 L54.792488 71.839844 L42.832489 71.839844 Q42.272491 71.559845 42.272491 71.039841 L42.272491 71.039841 Z" fill="rgba(0,0,0,1)" fill-rule="evenodd" stroke="none"/><path d="M83.592575 53.719841 Q83.632576 53.719841 86.492577 53.49984 Q89.352577 53.279839 89.392578 53.279839 Q89.872574 53.279839 89.872574 53.639839 Q89.872574 53.959839 88.47258 59.49984 Q87.072578 65.039841 87.072578 65.079842 Q87.072578 65.199844 87.312576 64.959839 Q88.672577 63.839844 90.352577 63.439842 Q90.832581 63.35984 91.352577 63.35984 Q91.872574 63.35984 92.352577 63.439842 Q94.432579 63.919842 95.672577 65.599838 Q96.912575 67.279839 96.912575 69.839844 Q96.912575 74.319839 93.772575 77.899841 Q90.632576 81.479843 86.952576 81.479843 Q85.79258 81.479843 84.752579 80.959839 Q81.632576 79.559837 81.632576 75.039841 Q81.632576 73.879837 81.872574 72.759842 Q81.872574 72.719841 83.872574 64.559845 L85.912575 56.399841 Q85.992577 55.839844 85.65258 55.699841 Q85.312576 55.559841 84.512581 55.559841 Q84.232574 55.559841 84.072578 55.559841 Q83.232574 55.559841 83.112579 55.439842 Q82.872574 55.239841 83.072578 54.479843 Q83.232574 53.919842 83.352577 53.839844 Q83.47258 53.719841 83.592575 53.719841 L83.592575 53.719841 Z M93.47258 68.039841 Q93.47258 64.839844 91.032578 64.839844 Q90.952576 64.839844 90.772575 64.85984 Q90.592575 64.879837 90.552574 64.879837 Q88.47258 65.319839 86.632576 67.759842 Q86.552574 67.839844 86.432579 67.99984 L86.312576 68.159843 Q86.312576 68.199844 85.612579 71.019844 Q84.912575 73.839844 84.832581 74.239838 Q84.592575 75.479843 84.592575 76.479843 Q84.592575 78.399841 85.552574 79.35984 Q86.192581 79.99984 87.15258 79.99984 Q88.47258 79.99984 89.832581 78.719841 Q90.832581 77.799843 91.452576 76.459839 Q92.072578 75.119843 92.752579 72.279839 Q93.47258 69.399841 93.47258 68.039841 L93.47258 68.039841 Z" fill="rgba(0,0,0,1)" fill-rule="evenodd" stroke="none"/><path d="M108.328262 71.039841 Q108.328262 70.519844 108.888268 70.239838 L120.848267 70.239838 L120.848267 64.239838 L120.88826 58.239841 Q121.288261 57.719841 121.648262 57.719841 Q122.168266 57.719841 122.448265 58.319839 L122.448265 70.239838 L134.368256 70.239838 Q134.968262 70.559845 134.968262 71.039841 Q134.968262 71.519844 134.368256 71.839844 L122.448265 71.839844 L122.448265 83.759842 Q122.168266 84.319839 121.648262 84.319839 Q121.128265 84.319839 120.848267 83.759842 L120.848267 71.839844 L108.888268 71.839844 Q108.328262 71.559845 108.328262 71.039841 L108.328262 71.039841 Z" fill="rgba(0,0,0,1)" fill-rule="evenodd" stroke="none"/><path d="M163.16835 66.839844 Q163.16835 68.079842 162.408356 68.85984 Q161.648346 69.639839 160.488342 69.639839 Q159.728348 69.639839 159.288345 69.219841 Q158.848343 68.799843 158.848343 68.039841 Q158.848343 67.35984 159.248352 66.719841 Q159.648346 66.079842 160.288345 65.799843 Q160.608353 65.599838 160.728348 65.599838 Q160.888351 65.599838 160.448349 65.319839 Q159.688354 64.879837 158.328354 64.879837 Q156.128342 64.879837 154.328354 66.67984 Q153.288345 67.719841 152.648346 69.159843 Q152.008347 70.599838 151.368347 73.279839 Q150.928345 75.159843 150.928345 76.279839 Q150.928345 79.159843 153.448349 79.919838 Q153.768341 79.99984 154.448349 79.99984 Q155.048355 79.99984 155.688354 79.919838 Q159.448349 79.35984 161.848343 76.599838 Q162.208344 76.199844 162.328354 76.199844 Q162.488342 76.199844 162.848343 76.559837 Q163.328354 77.039841 163.208344 77.239838 Q163.04834 77.67984 162.008347 78.599838 Q159.528351 80.839844 155.728348 81.399841 Q154.848343 81.479843 154.16835 81.479843 Q149.888351 81.479843 148.208344 77.959839 Q147.448349 76.479843 147.448349 74.67984 Q147.448349 72.839844 148.208344 70.919838 Q149.368347 67.919838 151.988342 65.819839 Q154.608353 63.719841 157.568344 63.399841 Q157.80835 63.35984 158.328354 63.35984 Q159.728348 63.35984 160.928345 63.799843 Q163.16835 64.759842 163.16835 66.839844 L163.16835 66.839844 Z" fill="rgba(0,0,0,1)" fill-rule="evenodd" stroke="none"/><path d="M10 52.86224 L14.8 52.86224 L14.8 41.26224 L86.699378 41.26224 L86.699378 36.46224 L10 36.46224 L10 52.86224" fill="rgba(0,0,0,1)" fill-rule="nonzero" stroke="none"/><path d="M163.198756 52.86224 L158.398756 52.86224 L158.398756 41.26224 L86.699378 41.26224 L86.699378 36.46224 L163.198756 36.46224 L163.198756 52.86224" fill="rgba(0,0,0,1)" fill-rule="nonzero" stroke="none"/><path d="M61.010777 15.15424 Q61.122776 15.15424 63.152775 15.00024 Q65.182777 14.84624 65.238777 14.84624 L65.322777 14.84624 L65.322777 15.96624 Q65.322777 17.030239 65.350777 17.030239 L65.378777 17.002239 Q66.890778 14.84624 69.662773 14.84624 Q72.882774 14.958241 73.218781 18.010241 Q73.24678 18.20624 73.24678 21.902241 Q73.24678 25.48624 73.27478 25.54224 Q73.498779 25.93424 74.674774 25.93424 L74.982773 25.93424 L75.430779 25.93424 L75.430779 27.22224 L75.206779 27.22224 Q74.842773 27.138241 72.070778 27.138241 Q69.298775 27.138241 68.934776 27.22224 L68.710777 27.22224 L68.710777 25.93424 L69.158775 25.93424 L69.382774 25.93424 Q70.866776 25.93424 70.866776 25.48624 Q70.894775 25.430241 70.894775 21.62224 Q70.866776 17.842239 70.838776 17.61824 Q70.642776 16.72224 70.208778 16.31624 Q69.77478 15.91024 68.878777 15.91024 Q67.618774 15.91024 66.666779 16.86224 Q65.686775 17.842239 65.518776 19.326241 Q65.518776 19.35424 65.518776 19.84424 Q65.518776 20.33424 65.504776 21.09024 Q65.490776 21.846241 65.490776 22.51824 Q65.490776 22.93824 65.490776 23.40024 Q65.490776 23.86224 65.504776 24.22624 Q65.518776 24.59024 65.518776 24.884241 Q65.518776 25.17824 65.518776 25.374241 L65.518776 25.54224 Q65.742775 25.93424 66.918777 25.93424 L67.226776 25.93424 L67.674774 25.93424 L67.674774 27.22224 L67.450775 27.22224 Q67.086777 27.138241 64.314774 27.138241 Q61.542774 27.138241 61.178776 27.22224 L60.954777 27.22224 L60.954777 25.93424 L61.402775 25.93424 L61.710777 25.93424 Q62.886776 25.93424 63.110775 25.54224 L63.110775 25.318241 Q63.110775 25.06624 63.110775 24.67424 Q63.110775 24.28224 63.124775 23.79224 Q63.138775 23.30224 63.138775 22.700241 Q63.138775 22.09824 63.138775 21.53824 Q63.138775 20.67024 63.124775 19.676241 Q63.110775 18.68224 63.110775 18.03824 L63.110775 17.394241 Q63.026775 16.86224 62.704777 16.680241 Q62.382774 16.498241 61.458775 16.44224 L60.954777 16.44224 L60.954777 15.79824 Q60.954777 15.15424 61.010777 15.15424 L61.010777 15.15424 Z" fill="rgba(0,0,0,1)" fill-rule="evenodd" stroke="none"/><path d="M76.594452 21.23024 Q76.594452 18.68224 78.218452 16.84824 Q79.842453 15.01424 82.110458 14.734241 Q82.558456 14.67824 82.810455 14.67824 Q85.246452 14.67824 87.038452 16.47024 Q88.998459 18.430241 88.998459 21.20224 Q88.998459 21.762241 88.858459 22.51824 Q88.522453 24.28224 87.276459 25.58424 Q86.030457 26.88624 84.266457 27.33424 Q83.622452 27.502241 82.810455 27.502241 Q81.970459 27.502241 81.326454 27.33424 Q79.226456 26.80224 77.910454 25.10824 Q76.594452 23.41424 76.594452 21.23024 L76.594452 21.23024 Z M84.322456 16.05024 Q83.566452 15.71424 82.866455 15.71424 Q82.026459 15.71424 81.270454 16.05024 Q79.702454 16.83424 79.394455 19.102242 Q79.338455 19.606239 79.338455 20.894241 Q79.338455 23.554241 79.870453 24.67424 Q80.766457 26.38224 82.810455 26.38224 Q86.226456 26.38224 86.226456 21.818241 L86.226456 20.922241 Q86.226456 19.102242 86.086456 18.458241 Q85.722458 16.75024 84.322456 16.05024 L84.322456 16.05024 Z" fill="rgba(0,0,0,1)" fill-rule="evenodd" stroke="none"/><path d="M93.758453 10.422239 L93.758453 10.002239 L94.878456 10.002239 L94.878456 15.15424 L98.658455 15.15424 L98.658455 16.44224 L94.878456 16.44224 L94.878456 20.474239 Q94.906456 23.974239 94.920456 24.436241 Q94.934456 24.898241 95.102455 25.318241 Q95.494453 26.41024 96.474457 26.41024 Q97.706459 26.41024 97.986458 24.422241 Q98.014458 24.19824 98.014458 23.134239 L98.014458 22.15424 L99.134453 22.15424 L99.134453 23.134239 Q99.134453 24.422241 98.994453 24.982241 Q98.686455 26.10224 97.944458 26.80224 Q97.202454 27.502241 95.998459 27.502241 Q94.486458 27.502241 93.590454 26.676241 Q92.694458 25.850241 92.554459 24.422241 Q92.526459 24.22624 92.526459 20.27824 L92.526459 16.44224 L90.314453 16.44224 L90.314453 15.40624 L90.566452 15.40624 Q91.602455 15.32224 92.330452 14.51024 Q93.618454 13.16624 93.758453 10.422239 L93.758453 10.422239 Z" fill="rgba(0,0,0,1)" fill-rule="evenodd" stroke="none"/><path d="M112.319382 20.36224 Q112.319382 20.558241 112.123383 20.75424 L104.227379 20.75424 L104.227379 21.17424 Q104.227379 23.246241 104.787376 24.31024 Q105.79538 26.38224 108.259377 26.38224 Q109.463379 26.38224 110.275375 25.48624 Q110.835381 24.926241 111.143379 24.030241 Q111.227379 23.72224 111.311378 23.638241 Q111.395378 23.554241 111.759377 23.554241 Q112.319382 23.554241 112.319382 23.83424 Q112.319382 23.946239 112.235382 24.19824 Q111.703377 25.65424 110.541382 26.592241 Q109.379379 27.530241 107.699379 27.530241 Q107.167381 27.530241 106.467377 27.39024 Q104.871376 27.082241 103.611382 25.93424 Q102.351379 24.78624 101.819382 23.162241 Q101.483376 22.15424 101.483376 21.11824 Q101.483376 18.54224 102.995377 16.76424 Q104.507378 14.98624 106.719376 14.70624 Q106.831375 14.67824 107.111382 14.67824 Q109.659378 14.67824 110.98938 16.176239 Q112.319382 17.67424 112.319382 20.36224 L112.319382 20.36224 Z M110.023376 19.52224 Q109.771378 16.47024 107.951378 15.826241 Q107.755379 15.74224 107.36338 15.71424 Q105.907379 15.71424 104.983376 17.058239 Q104.423378 17.954239 104.255379 19.55024 L104.255379 19.746241 L110.023376 19.746241 L110.023376 19.52224 L110.023376 19.52224 Z" fill="rgba(0,0,0,1)" fill-rule="evenodd" stroke="none"/></svg>