<svg xmlns="http://www.w3.org/2000/svg" viewBox="0 0 87.7776 47.3332" width="87.7776" height="47.3332"><path d="M20.200001 37.333199 Q19.48 37.2132 15.6 37.2132 Q12.04 37.2132 11.559999 37.333199 L11.28 37.333199 L11.28 35.493198 L11.88 35.493198 Q14.76 35.373199 15.559999 33.813198 Q15.6 33.693199 17.68 27.513199 Q19.76 21.333199 21.82 15.193199 Q23.880001 9.0532 23.92 9.013199 Q24.040001 8.693199 24.68 8.693199 L25.040001 8.693199 Q25.84 8.7332 26 8.9732 Q26.039999 9.013199 29.879999 20.413198 Q33.720001 31.813198 34.68 34.653198 Q34.799999 34.8932 34.959999 35.0532 Q35.400002 35.453197 37.48 35.493198 L38.68 35.493198 L38.68 37.333199 L38.32 37.333199 Q37.720001 37.2132 33.239998 37.2132 Q28.08 37.2132 27.48 37.333199 L27.08 37.333199 L27.08 35.493198 L27.6 35.493198 Q30.4 35.493198 30.4 34.773197 Q30.4 34.693199 29.439999 31.813198 L28.48 28.973198 L19.16 28.973198 L18.360001 31.333199 Q17.559999 33.693199 17.559999 33.933197 Q17.559999 34.133198 17.68 34.293198 Q17.92 34.813198 18.700001 35.153198 Q19.48 35.493198 20.360001 35.493198 L20.559999 35.493198 L20.559999 37.333199 L20.200001 37.333199 L20.200001 37.333199 Z M26.639999 23.453197 Q25.48 19.9732 24.599998 17.413198 L23.799999 15.0532 L21.799999 21.0532 L19.76 27.093199 Q19.76 27.133198 23.799999 27.133198 L27.879999 27.133198 L26.639999 23.453197 L26.639999 23.453197 Z" fill="rgba(0,0,0,1)" fill-rule="evenodd" stroke="none"/><path d="M40.439999 30.173199 L40.439999 27.253199 L51.080002 27.253199 L51.080002 30.173199 L40.439999 30.173199 L40.439999 30.173199 Z" fill="rgba(0,0,0,1)" fill-rule="evenodd" stroke="none"/><path d="M56.093197 19.613199 Q56.093197 19.253199 56.313198 15.173199 Q56.533199 11.093199 56.533199 10.013199 L75.293198 10.013199 Q75.533195 10.253199 75.533195 10.773199 Q75.533195 11.373199 75.493195 11.413198 Q75.4132 11.533199 67.973198 23.413198 Q60.533199 35.293198 60.493198 35.333199 Q60.453197 35.373199 61.013199 35.373199 Q61.573196 35.373199 63.853199 35.373199 Q67.4132 35.333199 67.773201 35.293198 Q70.373199 34.933197 71.7332 33.813198 Q73.093201 32.693199 73.613197 30.413198 Q73.853195 29.333199 74.133194 26.413198 L74.133194 26.0532 L75.7332 26.0532 L75.7332 26.373199 Q75.693199 26.453197 75.373199 31.673199 Q75.0532 36.8932 75.0532 37.013199 L75.0532 37.333199 L65.4132 37.333199 L55.773197 37.293198 L55.653198 37.2132 Q55.533199 37.013199 55.533199 36.493198 L55.533199 35.933197 Q55.613197 35.773197 59.3932 29.753199 Q63.173199 23.7332 66.893196 17.813198 Q70.613197 11.8932 70.613197 11.853199 Q64.853195 11.853199 64.333199 11.8932 Q61.293198 12.093199 59.793198 13.493198 Q58.293198 14.8932 57.853199 17.773199 Q57.693199 18.733198 57.693199 19.533199 Q57.693199 19.613199 56.8932 19.613199 L56.093197 19.613199 L56.093197 19.613199 Z" fill="rgba(0,0,0,1)" fill-rule="evenodd" stroke="none"/></svg>