<svg xmlns="http://www.w3.org/2000/svg" viewBox="0 0 212.222 47.3332" width="212.222" height="47.3332"><path d="M20.200001 37.333199 Q19.48 37.2132 15.6 37.2132 Q12.04 37.2132 11.559999 37.333199 L11.28 37.333199 L11.28 35.493198 L11.88 35.493198 Q14.76 35.373199 15.559999 33.813198 Q15.6 33.693199 17.68 27.513199 Q19.76 21.333199 21.82 15.193199 Q23.880001 9.0532 23.92 9.013199 Q24.040001 8.693199 24.68 8.693199 L25.040001 8.693199 Q25.84 8.7332 26 8.9732 Q26.039999 9.013199 29.879999 20.413198 Q33.720001 31.813198 34.68 34.653198 Q34.799999 34.8932 34.959999 35.0532 Q35.400002 35.453197 37.48 35.493198 L38.68 35.493198 L38.68 37.333199 L38.32 37.333199 Q37.720001 37.2132 33.239998 37.2132 Q28.08 37.2132 27.48 37.333199 L27.08 37.333199 L27.08 35.493198 L27.6 35.493198 Q30.4 35.493198 30.4 34.773197 Q30.4 34.693199 29.439999 31.813198 L28.48 28.973198 L19.16 28.973198 L18.360001 31.333199 Q17.559999 33.693199 17.559999 33.933197 Q17.559999 34.133198 17.68 34.293198 Q17.92 34.813198 18.700001 35.153198 Q19.48 35.493198 20.360001 35.493198 L20.559999 35.493198 L20.559999 37.333199 L20.200001 37.333199 L20.200001 37.333199 Z M26.639999 23.453197 Q25.48 19.9732 24.599998 17.413198 L23.799999 15.0532 L21.799999 21.0532 L19.76 27.093199 Q19.76 27.133198 23.799999 27.133198 L27.879999 27.133198 L26.639999 23.453197 L26.639999 23.453197 Z" fill="rgba(0,0,0,1)" fill-rule="evenodd" stroke="none"/><path d="M40.439999 30.173199 L40.439999 27.253199 L51.080002 27.253199 L51.080002 30.173199 L40.439999 30.173199 L40.439999 30.173199 Z" fill="rgba(0,0,0,1)" fill-rule="evenodd" stroke="none"/><path d="M56.093197 19.613199 Q56.093197 19.253199 56.313198 15.173199 Q56.533199 11.093199 56.533199 10.013199 L75.293198 10.013199 Q75.533195 10.253199 75.533195 10.773199 Q75.533195 11.373199 75.493195 11.413198 Q75.4132 11.533199 67.973198 23.413198 Q60.533199 35.293198 60.493198 35.333199 Q60.453197 35.373199 61.013199 35.373199 Q61.573196 35.373199 63.853199 35.373199 Q67.4132 35.333199 67.773201 35.293198 Q70.373199 34.933197 71.7332 33.813198 Q73.093201 32.693199 73.613197 30.413198 Q73.853195 29.333199 74.133194 26.413198 L74.133194 26.0532 L75.7332 26.0532 L75.7332 26.373199 Q75.693199 26.453197 75.373199 31.673199 Q75.0532 36.8932 75.0532 37.013199 L75.0532 37.333199 L65.4132 37.333199 L55.773197 37.293198 L55.653198 37.2132 Q55.533199 37.013199 55.533199 36.493198 L55.533199 35.933197 Q55.613197 35.773197 59.3932 29.753199 Q63.173199 23.7332 66.893196 17.813198 Q70.613197 11.8932 70.613197 11.853199 Q64.853195 11.853199 64.333199 11.8932 Q61.293198 12.093199 59.793198 13.493198 Q58.293198 14.8932 57.853199 17.773199 Q57.693199 18.733198 57.693199 19.533199 Q57.693199 19.613199 56.8932 19.613199 L56.093197 19.613199 L56.093197 19.613199 Z" fill="rgba(0,0,0,1)" fill-rule="evenodd" stroke="none"/><path d="M92.417603 25.133198 Q91.497604 25.133198 90.897606 24.493198 Q90.2976 23.853199 90.2976 22.973198 Q90.2976 22.413198 90.617599 21.693199 Q91.137604 20.613199 92.697601 20.013199 Q94.257607 19.413198 96.497604 19.413198 Q99.137604 19.413198 101.077606 20.613199 Q103.017601 21.813198 103.617599 23.7332 Q103.817604 24.293198 103.837601 24.993198 Q103.857605 25.693199 103.857605 29.573198 Q103.857605 33.493198 103.877602 34.153198 Q103.897598 34.813198 104.097603 35.173199 Q104.337601 35.7332 104.897598 35.7332 Q105.417603 35.7332 105.6576 35.173199 Q105.897598 34.693199 105.897598 32.973198 L105.897598 31.533199 L107.497604 31.533199 L107.497604 33.093201 Q107.457603 34.693199 107.377602 34.973198 Q107.017601 36.093197 106.057602 36.833199 Q105.097603 37.5732 103.777603 37.5732 Q102.777603 37.5732 101.997604 36.873199 Q101.217606 36.173199 100.937607 35.173199 L100.937607 35.013199 Q100.817604 35.133198 100.457603 35.5532 Q100.097603 35.973198 99.937607 36.133198 Q97.9776 37.773197 95.377602 37.773197 Q93.2976 37.773197 91.6576 36.8932 Q90.017601 36.013199 89.457603 34.5732 Q89.137604 33.813198 89.137604 33.0532 Q89.137604 31.173199 90.697601 29.613199 Q91.617599 28.693199 92.9776 28.093199 Q95.697601 26.853199 99.937607 26.613199 L100.497604 26.613199 L100.497604 25.7332 Q100.497604 24.373199 100.257599 23.7332 Q99.857605 22.413198 98.857605 21.653198 Q97.857605 20.893198 96.377602 20.893198 Q93.697601 20.893198 93.697601 21.2132 Q94.577606 21.813198 94.577606 22.973198 Q94.577606 23.853199 93.957603 24.493198 Q93.337601 25.133198 92.417603 25.133198 L92.417603 25.133198 Z M100.497604 30.333199 Q100.497604 28.013199 100.457603 28.013199 Q100.337601 28.013199 100.257599 28.0532 Q94.777603 28.413198 93.257607 31.293198 Q92.817604 32.093201 92.817604 33.093201 Q92.817604 34.453197 93.777603 35.373199 Q94.737602 36.293198 96.137604 36.293198 Q97.737602 36.293198 98.877602 35.333199 Q100.017601 34.373199 100.377602 32.973198 Q100.457603 32.693199 100.497604 30.333199 L100.497604 30.333199 Z" fill="rgba(0,0,0,1)" fill-rule="evenodd" stroke="none"/><path d="M108.217606 30.173199 L108.217606 27.253199 L118.857605 27.253199 L118.857605 30.173199 L108.217606 30.173199 L108.217606 30.173199 Z" fill="rgba(0,0,0,1)" fill-rule="evenodd" stroke="none"/><path d="M122.790802 26.813198 Q122.790802 26.7332 122.990799 23.633198 Q123.190804 20.533199 123.230804 20.413198 L123.230804 20.093199 L136.830795 20.093199 Q137.070801 20.333199 137.070801 20.733198 Q137.070801 21.2132 137.030807 21.253199 L136.3508 22.2132 Q135.670807 23.133198 134.330795 24.973198 Q132.990799 26.813198 131.7108 28.533199 L126.470802 35.693199 L128.390808 35.7332 Q130.870804 35.7332 131.830795 35.613197 Q133.550797 35.293198 134.3508 34.253197 Q135.190796 33.133198 135.470795 29.933199 L135.550797 29.293198 Q135.550797 29.253199 136.3508 29.253199 L137.150803 29.253199 L137.150803 29.493198 Q137.150803 29.533199 136.830795 33.293198 Q136.510803 37.0532 136.470795 37.093197 L136.470795 37.333199 L129.470795 37.333199 L122.470802 37.293198 L122.3508 37.2132 Q122.230804 37.013199 122.230804 36.653198 Q122.230804 36.133198 122.270805 36.093197 Q122.3508 36.013199 127.570801 28.853199 Q132.790802 21.693199 132.870804 21.5732 L130.550797 21.5732 Q127.870804 21.613199 127.190804 21.813198 Q126.190804 22.0532 125.630798 22.653198 Q124.670799 23.5732 124.3908 26.773199 L124.3908 27.133198 L122.790802 27.133198 L122.790802 26.813198 L122.790802 26.813198 Z" fill="rgba(0,0,0,1)" fill-rule="evenodd" stroke="none"/><path d="M152.72879 13.933199 Q154.968796 10.693199 158.848801 10.693199 Q161.768799 10.693199 163.968796 12.693199 Q165.048798 13.733198 165.808792 15.413198 Q167.288788 18.733198 167.288788 24.533199 Q167.288788 30.733198 165.568787 34.013199 Q164.448792 36.333199 162.288788 37.373199 Q160.608795 38.2132 158.888794 38.2132 Q154.288788 38.2132 152.168793 34.013199 Q150.448792 30.733198 150.448792 24.533199 Q150.448792 20.813198 150.948792 18.3932 Q151.448792 15.9732 152.72879 13.933199 L152.72879 13.933199 Z M161.72879 13.453199 Q160.568787 12.173199 158.888794 12.173199 Q157.208801 12.173199 156.008789 13.453199 Q155.128799 14.373199 154.808792 15.693199 Q154.4888 17.013199 154.408798 20.253199 Q154.408798 20.493198 154.388794 21.813198 Q154.36879 23.133198 154.36879 24.013199 Q154.36879 27.853199 154.448792 29.373199 Q154.608795 32.173199 154.928787 33.3932 Q155.248795 34.613197 156.128799 35.493198 Q157.208801 36.693199 158.888794 36.693199 Q160.528793 36.693199 161.608795 35.493198 Q162.4888 34.613197 162.808792 33.3932 Q163.128799 32.173199 163.288788 29.373199 Q163.36879 27.853199 163.36879 24.013199 Q163.36879 23.133198 163.348801 21.813198 Q163.328796 20.493198 163.328796 20.253199 Q163.248795 17.013199 162.928787 15.693199 Q162.608795 14.373199 161.72879 13.453199 L161.72879 13.453199 Z" fill="rgba(0,0,0,1)" fill-rule="evenodd" stroke="none"/><path d="M169.328796 30.173199 L169.328796 27.253199 L179.968796 27.253199 L179.968796 30.173199 L169.328796 30.173199 L169.328796 30.173199 Z" fill="rgba(0,0,0,1)" fill-rule="evenodd" stroke="none"/><path d="M189.141998 33.493198 Q189.141998 34.333199 188.722 34.8932 Q188.302002 35.453197 187.621994 35.5732 L187.462006 35.613197 Q187.462006 35.653198 187.742004 35.833199 Q188.022003 36.013199 188.182007 36.0532 Q189.102005 36.453197 190.462006 36.453197 Q191.222 36.453197 191.501999 36.373199 Q193.421997 35.8932 194.742004 33.8932 Q196.302002 31.653198 196.302002 26.133198 L196.302002 25.853199 L196.102005 26.173199 Q194.462006 28.8932 191.501999 28.8932 Q188.302002 28.8932 186.061996 26.133198 Q184.901993 24.693199 184.401993 23.333199 Q183.901993 21.973198 183.901993 19.893198 Q183.901993 17.573198 184.522003 16.093199 Q185.141998 14.613199 186.662003 13.093199 Q188.742004 11.013199 191.621994 10.7332 Q191.781998 10.653198 192.501999 10.7332 Q193.341995 10.7332 193.662003 10.8132 Q196.901993 11.533199 198.742004 14.933199 Q200.462006 18.413198 200.462006 23.973198 Q200.462006 29.573198 198.061996 33.453197 Q196.662003 35.693199 194.682007 36.953197 Q192.701996 38.2132 190.541992 38.2132 Q188.022003 38.2132 186.481995 37.033199 Q184.942001 35.853199 184.942001 33.613197 Q184.942001 31.373199 187.061996 31.373199 Q187.981995 31.373199 188.561996 31.933199 Q189.141998 32.493198 189.141998 33.493198 L189.141998 33.493198 Z M193.182007 12.413198 Q192.781998 12.333199 192.061996 12.333199 Q190.541992 12.333199 189.462006 13.413198 Q188.621994 14.2932 188.362 15.513199 Q188.102005 16.733198 188.102005 19.693199 Q188.102005 22.413198 188.302002 24.013199 Q188.501999 25.533199 189.481995 26.473198 Q190.462006 27.413198 191.981995 27.413198 Q193.141998 27.413198 194.001999 26.773199 Q194.862 26.133198 195.341995 25.033199 Q195.822006 23.933199 196.041992 22.7132 Q196.261993 21.493198 196.261993 20.1332 Q196.261993 17.013199 195.942001 15.653198 Q195.742004 14.493198 194.962006 13.573198 Q194.182007 12.653198 193.182007 12.413198 L193.182007 12.413198 Z" fill="rgba(0,0,0,1)" fill-rule="evenodd" stroke="none"/></svg>