<svg xmlns="http://www.w3.org/2000/svg" viewBox="0 0 145.0908 55.2188" width="145.0908" height="55.2188"><path d="M33.32 32.6964 L24.040001 38.8964 Q22.92 37.6964 22.139999 36.956398 Q21.360001 36.2164 20.059999 35.476398 Q18.76 34.736401 17.639999 34.736401 Q15.84 34.736401 12.32 36.416397 L11.44 35.736401 L19.439999 30.616398 Q26.48 26.176399 26.48 19.4564 Q26.48 16.896399 24.34 14.7964 Q22.200001 12.6964 19.279999 12.6964 Q17.4 12.6964 16.34 13.5364 Q15.28 14.3764 15.28 15.816399 Q15.28 16.3764 15.799999 17.136398 Q16.08 17.5364 17.119999 18.476398 Q18.16 19.416399 18.92 20.2964 Q19.68 21.176399 19.68 21.8564 Q19.68 24.776398 13.44 27.6964 L12.68 27.096399 Q15.440001 25.496399 15.440001 24.016399 Q15.440001 23.336399 14.38 22.236399 Q13.32 21.136398 12.24 19.896399 Q11.16 18.656399 11.16 17.5364 Q11.16 15.936399 13 14.2164 Q14.6 12.736399 17.619999 11.436399 Q20.639999 10.1364 22.759998 10.1364 Q26.32 10.1364 28.879999 12.076399 Q31.439999 14.016399 31.439999 17.056398 Q31.439999 20.736399 29.039999 24.976398 L21.32 31.296398 Q23.92 31.296398 27.48 34.496399 Q29 34.136398 33.16 31.5364 L33.16 14.3764 L40.119999 10.176399 L40.68 10.6964 L38.639999 12.736399 Q38.32 14.6964 38.32 25.656399 Q38.32 28.3764 38.48 30.496399 L40.760002 34.5364 L42.880001 33.6964 L43.079998 34.576401 Q42.68 34.8564 40.34 36.456398 Q38 38.0564 36.720001 38.816399 L36.239998 38.6964 L33.32 32.6964 L33.32 32.6964 Z" fill="rgba(0,0,0,1)" fill-rule="evenodd" stroke="none"/><path d="M39.143997 30.496399 L39.143997 27.576399 L49.783997 27.576399 L49.783997 30.496399 L39.143997 30.496399 L39.143997 30.496399 Z" fill="rgba(0,0,0,1)" fill-rule="evenodd" stroke="none"/><path d="M62.1572 11.096399 L69.237198 10.8564 Q71.157196 10.8564 72.6772 11.576399 Q74.197205 12.2964 74.197205 13.7764 Q74.197205 16.4564 71.977203 18.7164 Q69.757202 20.976398 66.437202 22.616398 Q67.6772 22.616398 68.557205 22.636398 Q69.437202 22.656399 70.657196 22.796398 Q71.877197 22.936399 72.737198 23.156399 Q73.597198 23.3764 74.537201 23.816399 Q75.477203 24.256399 76.037201 24.836399 Q76.597198 25.416399 76.977203 26.336399 Q77.357201 27.256399 77.357201 28.3764 Q77.357201 35.136398 73.377197 39.136398 Q69.397202 43.136398 62.9972 43.136398 Q62.637199 43.136398 61.857201 43.156399 Q61.077202 43.176399 60.6772 43.176399 Q59.077202 43.176399 58.1572 42.996399 Q57.237202 42.816399 57.277199 42.256397 L57.3172 40.2164 Q57.3172 39.576397 56.8372 39.096397 Q56.357201 38.616398 55.6772 38.616398 Q54.5172 38.616398 53.117203 39.416397 L52.717201 38.816399 Q56.8372 35.816399 60.277199 35.816399 Q61.6772 35.816399 62.137199 36.496399 Q62.597198 37.176399 62.597198 38.256397 Q62.597198 38.776398 62.4772 39.736397 Q62.357201 40.6964 62.357201 41.176399 Q62.357201 41.616398 62.897202 41.836399 Q63.437202 42.0564 64.077202 42.0564 Q65.837204 42.0564 67.1772 41.416397 Q68.517197 40.776398 69.357201 39.736397 Q70.197205 38.6964 70.717201 37.256397 Q71.237198 35.816399 71.437202 34.3964 Q71.637199 32.976398 71.637199 31.416399 Q71.637199 28.456398 70.557205 27.576399 Q68.757202 26.096399 65.237198 26.096399 Q63.597198 26.096399 60.957199 26.776398 L60.277199 26.256399 L62.5172 23.016399 Q65.397202 22.496399 67.357201 20.736399 Q69.3172 18.976398 69.3172 16.5364 Q69.3172 14.816399 66.357201 14.816399 Q64.917198 14.816399 62.137199 15.1364 Q59.357201 15.4564 58.9972 15.4564 Q56.397202 15.4564 55.917202 13.2964 Q57.8372 10.656399 59.597202 8.976398 L60.3172 8.936399 Q60.1572 9.256399 60.1572 9.736399 Q60.1572 10.3764 60.697201 10.736399 Q61.237202 11.096399 62.037201 11.096399 L62.1572 11.096399 L62.1572 11.096399 Z" fill="rgba(0,0,0,1)" fill-rule="evenodd" stroke="none"/><path d="M100.877602 34.456398 L93.437599 38.936398 Q91.437599 37.296398 89.357597 34.736401 Q89.317596 33.936398 89.317596 32.3764 Q89.317596 27.776398 90.117599 22.976398 Q93.397598 21.5364 97.997597 18.7764 Q99.917603 19.5364 103.037598 20.056398 L105.677597 18.936399 L105.997597 19.216398 Q105.317596 21.8564 105.317596 27.2164 Q105.317596 29.616398 105.437599 31.936399 L107.517601 34.456398 Q107.877602 34.456398 109.397598 33.656399 L109.597595 34.3764 L103.7976 38.816399 Q102.557602 36.976398 100.917603 35.496399 L100.877602 34.456398 L100.877602 34.456398 Z M100.837601 33.256397 L100.757599 23.016399 Q98.557602 23.016399 94.957596 22.096399 Q93.877602 23.736399 93.877602 28.2164 Q93.877602 29.496399 94.037598 32.136398 Q96.117599 34.2164 97.277603 35.016399 Q98.1576 35.016399 100.837601 33.256397 L100.837601 33.256397 Z" fill="rgba(0,0,0,1)" fill-rule="evenodd" stroke="none"/><path d="M106.576004 30.496399 L106.576004 27.576399 L117.216003 27.576399 L117.216003 30.496399 L106.576004 30.496399 L106.576004 30.496399 Z" fill="rgba(0,0,0,1)" fill-rule="evenodd" stroke="none"/><path d="M133.309204 41.776398 L127.069199 46.256397 Q124.189201 46.256397 122.189201 45.416397 Q120.189201 44.576401 119.1492 42.256397 Q123.429199 36.096397 129.1492 31.6964 Q127.509201 30.5364 123.829201 30.296398 L123.7892 29.896399 L127.4692 27.296398 Q128.869202 26.296398 128.869202 25.416399 Q128.869202 24.336399 127.769203 23.576399 Q126.669197 22.816399 125.509201 22.816399 Q124.309196 22.816399 122.069199 24.416399 L121.429199 23.816399 Q124.189201 21.3764 128.349197 18.7764 Q130.269196 19.4564 131.629196 20.576399 Q132.989197 21.6964 132.989197 23.0564 Q132.989197 23.5364 131.709198 24.736399 L129.1492 27.096399 Q131.469208 27.816399 133.909195 29.096399 Q134.549194 31.7764 134.549194 34.6964 Q134.549194 37.8564 133.309204 41.776398 L133.309204 41.776398 Z M129.549194 32.8564 Q127.7892 34.296398 126.7892 35.176399 Q125.7892 36.0564 124.669197 37.3764 Q123.549202 38.6964 123.549202 39.496399 Q123.549202 42.176399 129.029205 43.016399 Q129.829193 41.296398 129.829193 37.816399 Q129.829193 35.656399 129.549194 32.8564 L129.549194 32.8564 Z" fill="rgba(0,0,0,1)" fill-rule="evenodd" stroke="none"/></svg>